<?xml version="1.0" encoding="UTF-8"?>
<svg width="784px" height="1936px" viewBox="0 0 784 1936" version="1.1" xmlns="http://www.w3.org/2000/svg" xmlns:xlink="http://www.w3.org/1999/xlink">
    <title>Teammates_StLouis_Characters_Child5_BodyFull_Sensory_Taste_Good</title>
    <defs>
        <path d="M0,0 L158.039854,0 L158.039854,129.809614 C130.269697,155.25973 103.726681,167.984788 78.4108068,167.984788 C53.0949325,167.984788 26.9579969,155.25973 0,129.809614 L0,0 Z" id="path-1"></path>
        <linearGradient x1="50%" y1="0%" x2="50%" y2="90.9732133%" id="linearGradient-3">
            <stop stop-color="#DD4F40" offset="0%"></stop>
            <stop stop-color="#FF6C5E" offset="100%"></stop>
        </linearGradient>
        <path d="M258.70862,1.31956172 L369.784202,123.448202 L466.998395,0 C529.274711,2.47072275 569.908256,7.40306597 588.89903,14.7970297 C602.919312,20.2557575 616.03544,28.0289731 623.839886,37.3350886 C630.25487,44.9843924 634.839185,54.2184992 638.274752,61.280303 C654.382251,94.3892538 683.55372,162.974101 725.789157,267.034845 L696.708489,288.277679 L611.476152,320.477666 L572.052502,323.290326 C579.869352,427.589384 585.484861,514.558671 588.89903,584.198186 C592.313198,653.837701 596.076051,758.160883 600.187591,897.167733 C497.92154,909.732872 438.489344,916.015441 421.891003,916.015441 C396.993492,916.015441 347.740028,916.015441 329.262126,916.015441 C316.943525,916.015441 256.737866,909.732872 148.64515,897.167733 C148.229841,757.338178 148.229841,653.014995 148.64515,584.198186 C149.060459,515.381376 150.220565,427.474536 152.125469,320.477666 L131.712308,320.477666 L24.8430597,301.655626 L0,288.277679 L92.5598297,74.8472636 C95.8264269,65.6299206 100.57215,57.3634898 106.797,50.0479713 C116.134274,39.0746936 125.448494,25.9186008 145.716264,18.2838599 C157.06684,14.0081699 179.957579,8.50854377 183.754511,7.65670527 C199.124119,4.20854707 224.108821,2.09616589 258.70862,1.31956172 Z" id="path-4"></path>
    </defs>
    <g id="Teammates_StLouis_Characters_Child5_BodyFull_Sensory_Taste_Good" stroke="none" stroke-width="1" fill="none" fill-rule="evenodd">
        <g id="Child_7-Copy" transform="translate(-198.000000, 0.000000)">
            <g id="Body" transform="translate(198.006544, 0.000000)">
                <g id="Neck" transform="translate(309.873893, 568.644002)">
                    <mask id="mask-2" fill="white">
                        <use xlink:href="#path-1"></use>
                    </mask>
                    <use id="Rectangle" fill="#B57849" xlink:href="#path-1"></use>
                    <path d="M-31.0435428,-33.8633775 L172.150556,-33.8633775 L175.346036,23.8540503 C145.882695,60.6620257 114.126219,79.0660135 80.0766093,79.0660135 C46.0269996,79.0660135 9.92766235,60.6620257 -28.2214026,23.8540503 L-31.0435428,-33.8633775 Z" id="Rectangle" fill="#000000" opacity="0.430146717" style="mix-blend-mode: multiply;" mask="url(#mask-2)"></path>
                </g>
                <g id="Head" transform="translate(20.121731, 0.000000)">
                    <g>
                        <path d="M376.642112,0.855948698 C322.402815,-3.49926092 270.881654,9.33282719 227.665077,26.4762945 C141.743659,60.5602298 70.7486632,121.24555 48.8820149,190.539396 C37.959705,225.151415 47.2724852,269.927932 40.83569,292.848777 C23.6678592,353.981866 8.15809229,347.825223 2.02124322,389.67499 C-8.32913524,460.258595 24.0755934,483.136971 31.3864066,507.066884 C46.7113082,557.228689 110.818998,587.204963 152.125469,585.639075 C179.663117,584.59515 206.722375,576.627845 233.303244,561.737159 L343.454621,216.282581 L368.965255,169.522898 L503.633952,236.714278 L503.762087,561.737159 C521.785662,572.822991 547.644021,578.88787 581.337164,579.931795 C631.876879,581.497682 677.338873,557.35621 713.759294,503.739195 C725.818777,485.985598 743.639501,473.95845 743.639501,407.981089 C743.639501,357.192745 716.939265,340.801013 713.759294,323.814288 C702.270879,262.445625 695.491258,222.056899 691.622534,209.504422 C685.556359,189.822084 672.639023,129.321575 639.017627,92.9756002 C618.626474,70.9320086 607.264567,57.1713429 565.592742,38.1312366 C523.920916,19.0911304 488.554024,32.460228 459.901374,26.4762945 C431.978894,20.6448528 425.214895,4.7561588 376.642112,0.855948698 Z" id="Hair" fill="#332B25"></path>
                        <g transform="translate(107.827436, 130.653408)">
                            <g id="Ear_L" transform="translate(0.000000, 255.633342)">
                                <path d="M41.2723713,1.27275859 C25.1101841,-2.63567933 13.1326199,2.45752319 5.33967877,16.5523662 C-6.34973295,37.6946306 -0.158801613,84.7439783 37.0526854,84.7439783 C61.8603433,84.7439783 63.2669053,56.9202384 41.2723713,1.27275859 Z" id="Path-2" fill="#936037"></path>
                                <path d="M18.3523533,58.6804328 C12.0247246,50.8325323 10.9140773,42.6160097 15.0204113,34.0308652 C19.1267454,25.4457207 25.8444194,22.8601063 35.1734334,26.274022" id="Path-8-Copy" stroke="#4C250F" stroke-width="2.8224" stroke-linecap="round" transform="translate(23.884872, 41.748744) scale(-1, 1) translate(-23.884872, -41.748744) "></path>
                            </g>
                            <g id="Ear_R" transform="translate(480.852593, 248.440615)">
                                <path d="M41.2723713,1.27275859 C25.1101841,-2.63567933 13.1326199,2.45752319 5.33967877,16.5523662 C-6.34973295,37.6946306 -0.158801613,84.7439783 37.0526854,84.7439783 C61.8603433,84.7439783 63.2669053,56.9202384 41.2723713,1.27275859 Z" id="Path-2-Copy" fill="#936037" transform="translate(28.388379, 42.371989) scale(-1, 1) translate(-28.388379, -42.371989) "></path>
                                <path d="M17.2636032,59.7403651 C10.9359745,51.8924646 9.82532722,43.675942 13.9316613,35.0907975 C18.0379954,26.505653 24.7556694,23.9200386 34.0846833,27.3339543" id="Path-8" stroke="#4C250F" stroke-width="2.8224" stroke-linecap="round"></path>
                            </g>
                            <g transform="translate(25.628625, 0.000000)" fill="#B57849" id="Path">
                                <path d="M2.22929415,233.66293 C22.4127269,326.284884 41.5497632,384.57757 59.6404032,408.540989 C86.7763631,444.486116 213.020745,483.141764 240.912032,483.141764 C268.803319,483.141764 383.38959,440.940807 416.421102,408.540989 C449.452613,376.14117 476.504974,237.485273 476.504974,209.494876 C476.504974,181.50448 479.60617,0 228.51777,0 C61.1255035,0 -14.3039885,77.8876433 2.22929415,233.66293 Z"></path>
                            </g>
                        </g>
                        <path d="M143.879822,400.685276 L143.879822,372.22429 C189.252514,313.453226 223.147722,274.867135 245.565446,256.466017 C311.605634,202.258317 369.734675,186.993661 371.819751,186.700548 C378.777977,185.722385 296.611392,256.852327 306.177611,256.466017 C317.831376,255.995406 330.572899,255.765046 342.337407,255.290276 C359.182068,254.610492 374.023743,253.429641 380.801528,250.325056 C414.972955,234.672731 443.329166,208.401988 465.870159,171.512827 C461.496607,169.927752 480.871531,193.522247 523.99493,242.296313 C547.796466,269.216679 596.895341,313.569682 602.488582,342.997835 C606.679717,365.048971 607.555189,377.081034 605.115001,379.094023 L610.889112,379.094023 L639.017627,315.951069 L523.99493,110.738666 L208.190537,83.907351 L119.011877,225.075337 L107.827436,324.162008 L143.879822,400.685276 Z" id="BANGS" fill="#332B25"></path>
                    </g>
                    <g id="LowerLip" transform="translate(345.767020, 574.286949)" stroke="#4C250F" stroke-width="2.82323073">
                        <path d="M0,0 C9.52079601,3.76259128 17.5665766,5.64388692 24.1373419,5.64388692 C30.7081071,5.64388692 39.6125173,3.76259128 50.8505723,0" id="Path-4"></path>
                    </g>
                    <g id="Expressions" transform="translate(186.255245, 306.991162)">
                        <g id="Expression_Taste_IceCream" transform="translate(5.595463, 13.875023)">
                            <g id="Mouth" transform="translate(108.739499, 206.637382)">
                                <path d="M0,0 C31.6722898,3.13368175 55.4740805,4.70052263 71.4053721,4.70052263 C87.3366638,4.70052263 110.697458,3.13368175 141.487755,0 C108.891325,19.900856 85.5305311,29.8512841 71.4053721,29.8512841 C57.2802132,29.8512841 33.4784225,19.900856 0,0 Z" id="Path-3" stroke="#69381D" stroke-width="1.97698172" fill="#000000"></path>
                                <g id="Path-11" transform="translate(45.980086, 46.782932)" stroke="#4C250F" stroke-width="1.97698172">
                                    <path d="M0,0 C9.52079601,3.76258832 17.5665766,5.64388249 24.1373419,5.64388249 C30.7081071,5.64388249 39.6125173,3.76258832 50.8505723,0" id="Path-4"></path>
                                </g>
                                <g id="Tounge" transform="translate(29.998911, 9.848342)" stroke="#000000" stroke-width="1.00065887">
                                    <path d="M0,5.07730041 C13.1571784,1.69243347 26.7387135,0 40.7446052,0 C54.7504969,0 69.2668088,1.69243347 84.2935408,5.07730041 C84.0421782,21.4214529 82.8062451,32.0405494 80.5857414,36.9345899 C77.254986,44.2756507 62.0820586,53.5836947 41.5208963,53.5836947 C20.959734,53.5836947 9.01186228,45.9012443 5.26193134,36.9345899 C2.76197738,30.9568203 1.00800027,20.3377238 0,5.07730041 Z" id="Path-16" fill="url(#linearGradient-3)"></path>
                                    <line x1="41.6875165" y1="2.75543527e-12" x2="41.6875165" y2="26.7918474" id="Path-25" stroke-linecap="round" stroke-linejoin="round"></line>
                                </g>
                            </g>
                            <g id="Eyes_Closed_Happy" transform="translate(39.117581, 92.138471)" stroke="#000000" stroke-linecap="round" stroke-linejoin="round" stroke-width="3.7699761">
                                <g id="Eye_L" transform="translate(0.000000, 0.000000)">
                                    <path d="M66.4301367,9.12944834 C65.9743275,12.8138289 62.2109611,16.8572285 55.1400376,21.2596471 C46.2599437,26.7884709 35.7971599,27.6714681 27.5530346,26.8861419 C13.5540104,25.5526106 4.3696655,16.5905632 0,0" id="Path-12"></path>
                                </g>
                                <g id="Eye_R" transform="translate(217.343745, 0.000000)">
                                    <path d="M66.4301367,9.12944834 C65.9743275,12.8138289 62.2109611,16.8572285 55.1400376,21.2596471 C46.2599437,26.7884709 35.7971599,27.6714681 27.5530346,26.8861419 C13.5540104,25.5526106 4.3696655,16.5905632 0,0" id="Path-12-Copy-2" transform="translate(33.215068, 13.566660) scale(-1, 1) translate(-33.215068, -13.566660) "></path>
                                </g>
                            </g>
                            <g id="Eyebrows_Neutral" fill="#000000">
                                <g id="Brow-L" transform="translate(63.025266, 28.134300) rotate(-10.000000) translate(-63.025266, -28.134300) translate(2.025776, 11.134276)">
                                    <path d="M0.233752578,19.9908058 C-0.347621191,21.8991864 0.155470489,24.9579371 1.74302762,29.1670579 C4.12436331,35.4807392 9.90363765,34.2084696 12.9216474,33.0404295 C47.2976759,19.7361045 63.4471636,13.0839421 74.7561617,13.0839421 C86.3583379,13.0839421 94.5717044,16.36385 115.103379,22.779726 C117.899525,23.6534844 120.973463,25.3304248 121.848715,24.6155532 C122.723967,23.9006816 119.589153,21.5398205 117.272542,19.9908058 C96.7693322,6.28122113 87.9887464,1.32764046 75.4651659,0.223780087 C62.9415854,-0.880080284 37.6193979,1.96282763 16.7858215,11.8201502 C15.0051281,12.6626781 9.48777182,15.38623 0.233752578,19.9908058 Z" id="Path-5-Copy-3" transform="translate(60.999491, 17.000024) scale(-1, 1) translate(-60.999491, -17.000024) "></path>
                                </g>
                                <g id="Brow-R" transform="translate(296.023322, 28.134300) rotate(11.000000) translate(-296.023322, -28.134300) translate(236.023822, 11.134276)">
                                    <path d="M0.229920568,19.9908058 C-0.341922483,21.8991864 0.152921792,24.9579371 1.71445339,29.1670579 C4.05675079,35.4807392 9.74128294,34.2084696 12.7098171,33.0404295 C46.5223042,19.7361045 62.4070461,13.0839421 73.5306508,13.0839421 C84.9426274,13.0839421 93.0213486,16.36385 113.216438,22.779726 C115.966746,23.6534844 118.990291,25.3304248 119.851195,24.6155532 C120.712098,23.9006816 117.628675,21.5398205 115.350041,19.9908058 C95.1829497,6.28122113 86.5463079,1.32764046 74.228032,0.223780087 C61.9097562,-0.880080284 37.0026864,1.96282763 16.5106441,11.8201502 C14.7591424,12.6626781 9.33223457,15.38623 0.229920568,19.9908058 Z" id="Path-5-Copy-3"></path>
                                </g>
                            </g>
                        </g>
                    </g>
                    <g id="Nose" transform="translate(329.262126, 478.341662)">
                        <path d="M5.64428051,11.2877925 C22.3097236,26.3381825 34.6697038,33.8633775 42.724221,33.8633775 C50.7787383,33.8633775 62.877307,26.9309422 79.0199271,13.0660717 L66.1416777,17.5393413 L47.648834,26.4935356 L39.59819,26.4935356 L22.3327267,17.5393413 L5.64428051,11.2877925 Z" id="Path-9" fill="#664429"></path>
                        <path d="M0.761507664,0 C-2.49231486,9.87693476 4.80257073,14.5246676 20.3198781,19.9107203 C25.5264658,21.7179253 32.8659756,27.9668146 40.8622262,28.2150743 C48.2124032,28.4432753 58.1782309,19.7391944 67.7313661,18.3342748" id="Path-6" stroke="#4C250F" stroke-width="2.8224" stroke-linecap="round"></path>
                        <path d="M17.6960482,0 C14.4349662,9.87690821 21.7461271,14.5246285 37.2980545,19.9106668 C42.5162584,21.717867 49.8721431,27.9667394 57.8862339,28.2149984 C65.2528095,28.4431989 75.0897588,19.8891883 84.6642077,18.4842724" id="Path-6-Copy" stroke="#4C250F" stroke-width="2.8224" stroke-linecap="round" transform="translate(50.798525, 14.109741) scale(-1, 1) translate(-50.798525, -14.109741) "></path>
                    </g>
                </g>
                <g transform="translate(0.000000, 647.658151)">
                    <g transform="translate(138.195966, 0.000000)" fill="#B57849" id="Combined-Shape">
                        <path d="M258.690841,0 C352.470124,0.0768619533 377.418466,1.381988 401.424687,3.45795415 L403.232442,3.61579388 C408.0541,4.04054939 412.90653,4.49594571 418.340074,4.97824488 C452.299723,7.99261474 474.415134,14.7571631 485.552588,20.8910868 C520.340841,40.0506257 511.444361,92.8107846 491.886799,138.898967 C472.329238,184.98715 454.740021,184.98715 454.740021,210.316219 L454.740021,376.434294 C454.740021,407.235574 458.490193,471.362589 465.990537,568.815337 L466.218907,571.778656 C467.989056,594.700457 452.255881,615.293395 429.674841,619.610686 C351.104181,634.634868 294.108883,642.697105 258.688909,643.797194 L258.690841,643.926 L258.412792,643.927563 C257.160603,643.927563 255.875399,643.916909 254.557181,643.895603 C253.235247,643.916909 251.950044,643.927563 250.697854,643.927563 L250.419805,643.926 L250.421062,643.797173 C215.001038,642.697002 158.005965,634.634773 79.4358052,619.610686 C56.8547648,615.293395 41.1215899,594.700457 42.8917386,571.778656 L43.1201088,568.815337 C50.6204527,471.362589 54.3706246,407.235574 54.3706246,376.434294 L54.3706246,210.316219 C54.3706246,184.98715 36.7814086,184.98715 17.223847,138.898967 C-2.33371461,92.8107846 -11.2301952,40.0506257 23.5580578,20.8910868 C34.6955121,14.7571631 56.8109236,7.99261474 90.770572,4.97824488 C96.2041158,4.49594571 101.056546,4.04054939 105.878205,3.61579388 L107.685959,3.45795415 C131.692152,1.38199042 156.640464,0.0768649957 250.414918,0.00364967754 L258.690841,0 Z"></path>
                    </g>
                    <g id="Leg-R" transform="translate(422.306195, 406.360928)" fill="#B57849">
                        <path d="M170.828073,31.9463297 C173.017692,52.8749742 187.603972,164.663958 186.671779,195.671986 C184.647221,263.015941 179.060268,356.305611 169.910919,475.540995 C169.978781,474.654333 170.046826,473.766402 170.114672,472.879913 C169.849642,457.801296 161.828687,509.706377 115.055656,509.706377 C83.3213223,509.706377 60.3662624,491.393425 46.1904756,454.767523 L46.5431249,455.666422 C48.2903145,447.867444 49.4382521,440.267454 48.1668308,428.02306 C46.1640507,408.735331 41.3662455,373.513193 33.7734152,322.356645 L0.475244391,93.6374388 C-2.77265901,71.3281686 10.9306283,50.04107 32.5826651,43.7608061 L130.052933,15.4891468 C137.098198,13.4453775 143.539593,9.71619027 148.818726,4.62271316 C160.415801,-6.56063782 167.75225,2.54723436 170.828073,31.9463297 Z" id="Combined-Shape"></path>
                        <path d="M117.073538,406.400524 C163.903419,406.400524 169.933973,454.35302 170.117177,472.854637 C165.202882,537.060028 159.248582,608.845487 152.254338,688.205081 C150.405057,709.194224 134.28635,726.114863 113.411699,728.980682 L104.237211,730.239572 C80.4874983,733.498422 58.5927322,716.887296 55.3338825,693.137583 C55.2492499,692.520801 55.1778968,691.90227 55.1198627,691.28242 C45.4851637,588.358429 40.6678142,524.904784 40.6678142,500.921482 C40.6678142,475.176327 44.8162489,464.425525 47.1531115,452.809213 C62.6815652,421.870007 85.9883622,406.400524 117.073538,406.400524 Z" id="Combined-Shape"></path>
                        <path d="M49.7879351,729.23876 C51.4591711,743.997179 57.802491,774.061451 66.3424711,786.214168 C79.9359754,805.558241 105.16655,802.062009 126.749273,827.904067 C161.891122,869.981133 186.547676,875.415487 207.061707,875.589637 C227.575737,875.761472 249.650269,856.490194 252.464349,853.005049 C262.622408,840.424634 262.843307,837.708455 262.667264,815.420569 C262.53424,798.579109 240.774341,783.085986 233.458795,773.696633 C228.410974,767.217857 225.821106,767.718545 206.104361,754.383881 C176.508488,734.367848 155.232838,707.083721 142.277411,672.5315 C141.59558,670.713052 138.983876,630.412816 83.7028974,642.045572 C57.0752507,647.648818 45.6548319,671.023643 44.9374832,689.734999 C44.5342647,700.25257 49.1636838,723.726096 49.7879351,729.23876 Z" id="Path-9-Copy-2" transform="translate(153.805634, 757.765311) rotate(7.000000) translate(-153.805634, -757.765311) "></path>
                    </g>
                    <g id="Leg-L" transform="translate(222.029660, 850.351388) scale(-1, 1) translate(-222.029660, -850.351388) translate(83.904663, 406.360928)" fill="#B57849">
                        <path d="M170.828073,31.9463297 C173.017692,52.8749742 187.603972,164.663958 186.671779,195.671986 C184.647221,263.015941 179.060268,356.305611 169.910919,475.540995 C169.978781,474.654333 170.046826,473.766402 170.114672,472.879913 C169.849642,457.801296 161.828687,509.706377 115.055656,509.706377 C83.3213223,509.706377 60.3662624,491.393425 46.1904756,454.767523 L46.5431249,455.666422 C48.2903145,447.867444 49.4382521,440.267454 48.1668308,428.02306 C46.1640507,408.735331 41.3662455,373.513193 33.7734152,322.356645 L0.475244391,93.6374388 C-2.77265901,71.3281686 10.9306283,50.04107 32.5826651,43.7608061 L130.052933,15.4891468 C137.098198,13.4453775 143.539593,9.71619027 148.818726,4.62271316 C160.415801,-6.56063782 167.75225,2.54723436 170.828073,31.9463297 Z" id="Combined-Shape"></path>
                        <path d="M117.073538,406.400524 C163.903419,406.400524 169.933973,454.35302 170.117177,472.854637 C165.202882,537.060028 159.248582,608.845487 152.254338,688.205081 C150.405057,709.194224 134.28635,726.114863 113.411699,728.980682 L104.237211,730.239572 C80.4874983,733.498422 58.5927322,716.887296 55.3338825,693.137583 C55.2492499,692.520801 55.1778968,691.90227 55.1198627,691.28242 C45.4851637,588.358429 40.6678142,524.904784 40.6678142,500.921482 C40.6678142,475.176327 44.8162489,464.425525 47.1531115,452.809213 C62.6815652,421.870007 85.9883622,406.400524 117.073538,406.400524 Z" id="Combined-Shape"></path>
                        <path d="M49.7879351,729.23876 C51.4591711,743.997179 57.802491,774.061451 66.3424711,786.214168 C79.9359754,805.558241 105.16655,802.062009 126.749273,827.904067 C161.891122,869.981133 186.547676,875.415487 207.061707,875.589637 C227.575737,875.761472 249.650269,856.490194 252.464349,853.005049 C262.622408,840.424634 262.843307,837.708455 262.667264,815.420569 C262.53424,798.579109 240.774341,783.085986 233.458795,773.696633 C228.410974,767.217857 225.821106,767.718545 206.104361,754.383881 C176.508488,734.367848 155.232838,707.083721 142.277411,672.5315 C141.59558,670.713052 138.983876,630.412816 83.7028974,642.045572 C57.0752507,647.648818 45.6548319,671.023643 44.9374832,689.734999 C44.5342647,700.25257 49.1636838,723.726096 49.7879351,729.23876 Z" id="Path-9-Copy-2" transform="translate(153.805634, 757.765311) rotate(7.000000) translate(-153.805634, -757.765311) "></path>
                    </g>
                    <g id="Sock_Green" transform="translate(105.194099, 1059.875486)">
                        <g id="Sock-L" transform="translate(101.538323, 113.989622) scale(-1, 1) translate(-101.538323, -113.989622) translate(0.000000, 0.000000)">
                            <path d="M101.568005,21.0602809 C110.455916,55.6756361 128.01439,84.4111247 154.242714,107.268139 C162.138379,114.148919 167.069425,117.96705 170.475647,120.685722 L170.930816,121.049819 C174.944705,124.268682 176.760479,125.965948 179.03962,129.770603 C185.156362,139.98151 204.86593,158.011015 202.945505,174.743153 C200.404025,196.886363 199.853754,199.555375 188.238245,210.804062 C185.020408,213.920279 160.761839,230.357702 140.421658,227.687117 C120.081759,225.014233 96.2712731,216.615509 66.5192707,170.569364 C48.2467762,142.289657 22.778183,142.684995 11.6434522,121.828478 C4.64817127,108.725584 2.01604668,78.1123504 2.15586665,63.2602657 C2.18499094,60.1665987 1.65857412,51.3773511 1.47884358,42.4050893 L1.45862981,41.3059052 C1.45557009,41.1226803 1.45267009,40.9394729 1.4499375,40.7563299 L1.43561206,39.6586187 L1.42567229,38.5647009 C1.38882187,33.2902222 1.51855175,28.2274805 2.00189648,24.5192479 C1.30733801,17.0195407 0.640121928,9.74418584 0.000262491405,2.69317505 C10.7533137,10.0034482 26.4038355,13.6583515 46.9504766,13.6583515 C69.8824487,13.6583515 88.7001723,9.1055677 103.403647,3.88966637e-13 C102.800109,6.95812102 102.18829,13.9783675 101.568005,21.0602809 Z" id="Combined-Shape" fill="#DAECE5"></path>
                            <path d="M101.568005,21.0602809 C101.991876,22.711115 102.435468,24.3485758 102.898781,25.9726635 C90.4838912,32.7917065 74.0131126,36.163707 53.5072264,36.163707 C34.0677305,36.163707 16.8056928,33.1331696 1.73961808,27.0553458 C1.81247488,26.1560981 1.89920466,25.307102 2.00189648,24.5192479 C1.87735038,23.1744234 1.75368346,21.8368128 1.63089581,20.5064161 C16.4865911,26.9382005 33.7714651,30.1637031 53.5072264,30.1637031 C74.0616666,30.1637031 90.1121044,26.6652811 101.681965,19.756016 C101.644241,20.189738 101.606139,20.6248929 101.568005,21.0602809 Z" id="Combined-Shape" fill="#9CCCB9" fill-rule="nonzero"></path>
                        </g>
                        <g id="Sock-R" transform="translate(368.985985, 0.000000)">
                            <path d="M101.568005,21.0602809 C110.455916,55.6756361 128.01439,84.4111247 154.242714,107.268139 C162.138379,114.148919 167.069425,117.96705 170.475647,120.685722 L170.930816,121.049819 C174.944705,124.268682 176.760479,125.965948 179.03962,129.770603 C185.156362,139.98151 204.86593,158.011015 202.945505,174.743153 C200.404025,196.886363 199.853754,199.555375 188.238245,210.804062 C185.020408,213.920279 160.761839,230.357702 140.421658,227.687117 C120.081759,225.014233 96.2712731,216.615509 66.5192707,170.569364 C48.2467762,142.289657 22.778183,142.684995 11.6434522,121.828478 C4.64817127,108.725584 2.01604668,78.1123504 2.15586665,63.2602657 C2.18499094,60.1665987 1.65857412,51.3773511 1.47884358,42.4050893 L1.45862981,41.3059052 C1.45557009,41.1226803 1.45267009,40.9394729 1.4499375,40.7563299 L1.43561206,39.6586187 L1.42567229,38.5647009 C1.38882187,33.2902222 1.51855175,28.2274805 2.00189648,24.5192479 C1.30733801,17.0195407 0.640121928,9.74418584 0.000262491406,2.69317505 C10.7533137,10.0034482 26.4038355,13.6583515 46.9504766,13.6583515 C69.8824487,13.6583515 88.7001723,9.1055677 103.403647,3.89410726e-13 C102.800109,6.95812102 102.18829,13.9783675 101.568005,21.0602809 Z" id="Combined-Shape" fill="#DAECE5"></path>
                            <path d="M101.568005,21.0602809 C101.991876,22.711115 102.435468,24.3485758 102.898781,25.9726635 C90.4838912,32.7917065 74.0131126,36.163707 53.5072264,36.163707 C34.0677305,36.163707 16.8056928,33.1331696 1.73961808,27.0553458 C1.81247488,26.1560981 1.89920466,25.307102 2.00189648,24.5192479 C1.87735038,23.1744234 1.75368346,21.8368128 1.63089581,20.5064161 C16.4865911,26.9382005 33.7714651,30.1637031 53.5072264,30.1637031 C74.0616666,30.1637031 90.1121044,26.6652811 101.681965,19.756016 C101.644241,20.189738 101.606139,20.6248929 101.568005,21.0602809 Z" id="Combined-Shape" fill="#9CCCB9" fill-rule="nonzero"></path>
                        </g>
                    </g>
                    <g id="Arm_R" transform="translate(532.793805, 4.637701)">
                        <g id="UpperArm" fill="#B57849">
                            <path d="M64.0596373,49.9569886 C75.5920588,21.6091949 80.0937093,0.609189102 128.37393,11.6934067 C142.689953,14.9800923 153.810803,28.5571063 161.73648,52.4244488 L161.73648,52.4244488 L159.679423,303.496598 C159.475092,328.436056 139.092023,348.487839 114.152564,348.283508 C112.287647,348.268228 110.425467,348.137436 108.576723,347.891882 L90.5880448,345.502588 C67.8756026,342.485874 51.0218101,322.938455 51.38101,300.029362 L53.7698446,147.674001 L53.7698446,147.674001 C52.9414255,101.427855 56.3713564,68.8555177 64.0596373,49.9569886 Z" id="Rectangle" transform="translate(106.243731, 181.651503) rotate(-18.000000) translate(-106.243731, -181.651503) "></path>
                        </g>
                        <g id="LowerArm" transform="translate(77.731233, 243.615849)" fill="#B57849">
                            <path d="M69.9379601,12.1310311 L88.3424566,11.3206056 C113.258608,10.2234453 134.346563,29.5325525 135.443724,54.4487036 C135.484628,55.3776269 135.496832,56.3075919 135.480319,57.2372686 L132.977216,198.161253 C132.543299,222.590695 112.387564,242.042911 87.958122,241.608993 C87.5657358,241.602023 87.1734596,241.589833 86.7813977,241.572425 L81.1829513,241.323846 C58.446055,240.314296 40.0135982,222.542462 38.1752324,199.857532 L26.9137032,60.8933506 C24.8991689,36.0345494 43.4181062,14.2494066 68.2769075,12.2348722 C68.8299068,12.1900577 69.383685,12.1554381 69.9379601,12.1310311 Z" id="Rectangle-Copy-3" transform="translate(79.731258, 126.397562) rotate(-12.000000) translate(-79.731258, -126.397562) "></path>
                        </g>
                        <g id="Hand" transform="translate(116.873179, 412.764726)" fill="#B57849">
                            <path d="M8.50784093,48.1590951 C2.83594698,77.513631 0,96.7928259 0,105.99668 C0,119.80246 0,138.023338 4.25392046,165.345714 C8.50784093,192.668089 8.50784093,206.17992 8.50784093,206.17992 C8.50784093,206.17992 32.2280284,202.676347 32.2280284,184.01103 C32.2280284,165.345714 31.2948453,119.95084 39.6729912,112.97376 C48.0511371,105.99668 61.976749,146.680397 61.976749,165.345714 C61.976749,184.01103 25.4404634,236.556198 39.6729912,246.964771 C53.9055189,257.373343 85.2650646,214.313196 100.756379,206.17992 C116.247693,198.046644 141.471763,148.448779 132.414709,105.99668 C126.376673,77.6952799 118.224398,52.0049066 107.957886,28.9255597 C98.2102063,6.47564057 80.5143306,-2.90628073 54.8702589,0.779795838 C29.2261872,4.46587241 13.7720479,20.2589721 8.50784093,48.1590951 Z" id="Path-7"></path>
                        </g>
                        <g id="HospitalBracelet" transform="translate(121.069590, 429.538598)" fill="#F1F1F1">
                            <path d="M107.142011,0 L117.27771,34.5546514 C95.789302,39.427859 77.9080956,41.6845727 63.6340905,41.3247926 C59.9365186,41.2315943 55.7438376,40.9739952 51.0560475,40.5519952 C48.6580796,40.3361275 45.6469843,33.362871 42.0227617,32.8955133 C35.4319192,32.0455985 21.4243319,29.6521538 0,25.7151793 L1.73286206,5.12325932 C20.259758,8.64936457 33.6897246,10.6385389 42.0227617,11.0907823 C44.0985281,11.2034365 48.8439332,5.06260309 50.818367,5.12325932 C53.1215668,5.19401552 55.3558224,5.22939362 57.5211339,5.22939362 C72.7202445,5.22939362 89.260537,3.48626241 107.142011,0 Z M28.3394502,15.4398676 C25.7662071,15.4398676 23.6801814,17.5322217 23.6801814,20.1132713 C23.6801814,22.694321 25.7662071,24.7866751 28.3394502,24.7866751 C30.9126933,24.7866751 32.9987189,22.694321 32.9987189,20.1132713 C32.9987189,17.5322217 30.9126933,15.4398676 28.3394502,15.4398676 Z M13.2539877,13.6534415 C10.813996,13.6534415 8.83599182,15.6311295 8.83599182,18.0707313 C8.83599182,20.5103332 10.813996,22.4880212 13.2539877,22.4880212 C15.6939795,22.4880212 17.6719836,20.5103332 17.6719836,18.0707313 C17.6719836,15.6311295 15.6939795,13.6534415 13.2539877,13.6534415 Z" id="Combined-Shape"></path>
                        </g>
                    </g>
                    <g id="Arm_L-" transform="translate(125.599826, 335.308928) scale(-1, 1) translate(-125.599826, -335.308928) translate(0.000000, 4.637701)" fill="#B57849">
                        <g id="UpperArm">
                            <path d="M64.0596373,49.9569886 C75.5920588,21.6091949 80.0937093,0.609189102 128.37393,11.6934067 C142.689953,14.9800923 153.810803,28.5571063 161.73648,52.4244488 L161.73648,52.4244488 L159.679423,303.496598 C159.475092,328.436056 139.092023,348.487839 114.152564,348.283508 C112.287647,348.268228 110.425467,348.137436 108.576723,347.891882 L90.5880448,345.502588 C67.8756026,342.485874 51.0218101,322.938455 51.38101,300.029362 L53.7698446,147.674001 L53.7698446,147.674001 C52.9414255,101.427855 56.3713564,68.8555177 64.0596373,49.9569886 Z" id="Rectangle" transform="translate(106.243731, 181.651503) rotate(-18.000000) translate(-106.243731, -181.651503) "></path>
                        </g>
                        <g id="LowerArm" transform="translate(77.731233, 243.615849)">
                            <path d="M69.9379601,12.1310311 L88.3424566,11.3206056 C113.258608,10.2234453 134.346563,29.5325525 135.443724,54.4487036 C135.484628,55.3776269 135.496832,56.3075919 135.480319,57.2372686 L132.977216,198.161253 C132.543299,222.590695 112.387564,242.042911 87.958122,241.608993 C87.5657358,241.602023 87.1734596,241.589833 86.7813977,241.572425 L81.1829513,241.323846 C58.446055,240.314296 40.0135982,222.542462 38.1752324,199.857532 L26.9137032,60.8933506 C24.8991689,36.0345494 43.4181062,14.2494066 68.2769075,12.2348722 C68.8299068,12.1900577 69.383685,12.1554381 69.9379601,12.1310311 Z" id="Rectangle-Copy-3" transform="translate(79.731258, 126.397562) rotate(-12.000000) translate(-79.731258, -126.397562) "></path>
                        </g>
                        <g id="Hand" transform="translate(116.873179, 412.764726)">
                            <path d="M8.50784093,48.1590951 C2.83594698,77.513631 0,96.7928259 0,105.99668 C0,119.80246 0,138.023338 4.25392046,165.345714 C8.50784093,192.668089 8.50784093,206.17992 8.50784093,206.17992 C8.50784093,206.17992 32.2280284,202.676347 32.2280284,184.01103 C32.2280284,165.345714 31.2948453,119.95084 39.6729912,112.97376 C48.0511371,105.99668 61.976749,146.680397 61.976749,165.345714 C61.976749,184.01103 25.4404634,236.556198 39.6729912,246.964771 C53.9055189,257.373343 85.2650646,214.313196 100.756379,206.17992 C116.247693,198.046644 141.471763,148.448779 132.414709,105.99668 C126.376673,77.6952799 118.224398,52.0049066 107.957886,28.9255597 C98.2102063,6.47564057 80.5143306,-2.90628073 54.8702589,0.779795838 C29.2261872,4.46587241 13.7720479,20.2589721 8.50784093,48.1590951 Z" id="Path-7"></path>
                        </g>
                    </g>
                </g>
            </g>
            <g id="Gown_Green" transform="translate(218.128275, 647.710016)">
                <mask id="mask-5" fill="white">
                    <use xlink:href="#path-4"></use>
                </mask>
                <use id="Path-5" stroke="#000000" stroke-width="2.25792" fill="#AFE5D0" xlink:href="#path-4"></use>
                <path d="M64.1024909,905.014286 L71.7604909,916.015286 L63.2794909,916.015441 L64.1024909,905.014286 Z M152.125469,198.510286 L151.79638,297.794809 L205.087955,361.387639 L205.087955,463.304237 L219.960801,665.928291 L329.262126,848.09881 L375.869491,914.909286 L325.724226,914.747365 L302.085475,912.903811 L275.053079,910.205631 L149.740218,896.096078 C149.66665,830.548574 149.62766,774.590049 149.623246,728.220504 L149.623246,710.930769 C149.62766,667.009474 149.66665,632.677159 149.740218,607.933824 C149.882053,560.22964 150.455531,517.091526 150.672905,482.320041 C150.858187,452.681956 151.153274,426.520219 151.46729,404.770533 C151.910112,374.099301 152.536309,345.618497 153.345879,319.328122 L131.137715,319.328122 L109.703491,315.310286 L152.125469,198.510286 Z" id="Combined-Shape" fill="#9CCCB9" mask="url(#mask-5)"></path>
                <path d="M573.124651,322.518371 C573.251115,292.677223 573.251115,268.720292 573.124651,250.64758 C572.998186,232.574867 572.640803,205.459215 572.052502,169.300625 L641.38628,308.463674 L611.389176,319.513872 L573.124651,322.518371 Z" id="Path-64" fill="#9CCCB9" mask="url(#mask-5)"></path>
                <g id="Group-5" mask="url(#mask-5)" stroke="#000000">
                    <g transform="translate(151.467290, 2.260570)">
                        <path d="M344.326204,0 C259.254177,116.885738 193.350647,203.278343 146.615616,259.177816 C99.8805838,315.07729 51.0087119,368.87181 0,420.561378 L0.329089606,388.398283 C51.1551297,332.367023 88.8522029,289.293534 113.420309,259.177816 C137.988416,229.062099 172.95395,183.06537 218.316912,121.187632" id="Path-62" stroke-width="1.69344"></path>
                        <line x1="204.182906" y1="141.411337" x2="79.6049266" y2="1.25598498e-13" id="Path-63" stroke-width="2.25792"></line>
                    </g>
                </g>
                <g id="Group-16" mask="url(#mask-5)" stroke="#000000" stroke-width="2.25792">
                    <g transform="translate(143.659048, 251.587740)">
                        <line x1="428.393453" y1="71.7025861" x2="428.393453" y2="0" id="Path-60"></line>
                        <line x1="8.46642077" y1="70.3243767" x2="7.80824155" y2="22.0897625" id="Path-61" stroke-linecap="round"></line>
                    </g>
                </g>
                <g id="Teammates_Logo_7" mask="url(#mask-5)">
                    <g transform="translate(386.365563, 212.166311)" id="STLChildren's_EDIT2">
                        <path d="M119.298031,0.0197104909 C122.736747,-0.193327679 126.089702,1.34220718 128.615484,3.57772461 C135.586975,9.7419979 138.834804,21.28756 139.731138,30.2655972 C139.863929,31.5936274 140.254,34.9192362 139.747737,36.0203945 C139.097618,37.4341933 136.652063,37.2958568 136.250926,35.7464883 C135.988112,34.7366321 136.096004,32.9216575 135.993645,31.7955986 C135.266065,23.9104196 133.371036,14.38457 129.000022,7.68908462 C124.321931,0.523255257 117.859469,-1.29725274 112.094157,6.0262802 C107.35797,12.0439168 105.266523,21.1741241 104.284428,28.6498272 C104.132272,29.817387 104.135039,32.5066481 103.548548,33.367101 C102.688178,34.6314963 100.591198,34.3741905 100.107066,32.8939902 C99.8774497,32.1940077 100.079402,32.0224704 100.140264,31.3999563 C100.668659,26.0795355 101.545628,21.0330209 103.410225,16.0114069 C105.924941,9.22738621 111.206122,0.523255257 119.298031,0.0197104909 Z" id="Path" fill="#000F5D" fill-rule="nonzero"></path>
                        <path d="M11.0213573,11.0579101 C13.8458577,10.8133749 16.7842919,11.3296158 19.20075,12.8674703 C20.4672709,13.6744363 22.8307365,15.6578882 21.0925824,17.2310644 C19.9611925,18.2526779 19.2590418,17.2038938 18.4111618,16.5871218 C11.6493184,11.6746821 4.8874751,15.3372754 3.53881591,23.3145557 C2.78367275,27.781398 3.18641577,34.8158594 7.46556035,37.3698933 C10.6424609,39.2636823 16.6120663,38.918616 19.1610057,36.0167988 C19.9982872,35.0631117 20.5679566,33.0253187 22.1418339,33.7154512 C23.8084481,34.4463396 22.6744086,36.92973 21.8636233,37.9404754 C17.71696,43.1191867 7.82061012,43.4316483 3.46197678,38.3670534 C-2.90772203,30.957638 -0.544256413,12.0577872 11.0213573,11.0579101 Z" id="Path" fill="#000F5D" fill-rule="nonzero"></path>
                        <path d="M28.6653233,14.9420422 C32.3493569,11.6995497 37.728723,12.2761148 39.7230659,16.9655112 C41.4127566,20.935574 41.3337727,29.1529998 40.0248971,33.2383756 C39.6158735,34.5150555 38.6849921,36.7252218 36.9360634,35.5226717 C35.5933375,34.6001675 36.7978416,32.2582149 37.096852,30.9650616 C37.8613031,27.6539305 38.4395779,20.1970215 36.2280294,17.4157811 C34.0164809,14.6345408 29.3677156,16.6799742 28.4622219,19.4419957 C27.8924097,21.1799278 28.2252703,23.8760561 28.2760456,25.7073368 C28.3127167,27.0691287 28.2901499,28.4309206 28.3719546,29.7927126 C28.4706845,31.4620059 28.9615128,33.9192715 28.8486787,35.4759974 C28.806366,36.0443259 28.5581309,36.8103338 27.9093348,36.936629 C26.0419303,37.301787 25.8783209,36.0305981 25.6498318,34.6193863 C24.5525201,27.8735743 25.0010357,18.7748275 25.8444706,11.9576313 C25.9798716,10.8566664 26.3606867,7.3835479 26.8684402,6.59283001 C27.7400836,5.23103809 29.7231431,6.45280705 29.4551621,7.86950994 L28.6681442,14.9392966 L28.6653233,14.9420422 Z" id="Path" fill="#000F5D" fill-rule="nonzero"></path>
                        <path d="M148.103833,16.0309185 C150.012517,15.8348407 152.394339,16.5701324 153.469654,18.2721967 C154.147102,19.345178 154.410555,21.458461 152.802959,21.7253447 C151.59323,21.9241458 151.681943,21.1561744 151.141597,20.4372224 C149.902297,18.7977941 147.21401,18.5418037 146.337628,20.6469168 C144.415503,25.262915 149.638845,26.6409063 151.421179,29.7563647 C153.214267,32.8881629 151.964213,37.6975157 148.308143,38.7405407 C144.665514,39.7808424 140.482539,37.6321565 141.052456,33.3838041 C141.254077,31.8805409 143.299864,31.423026 143.816015,32.8309736 C144.213882,33.9148481 143.719237,34.3260668 144.816058,35.2084169 C147.345736,37.2400008 150.448019,33.9747608 148.447934,31.4448124 C147.19788,29.8680201 145.308014,28.9448205 144.133233,27.1447173 C141.582048,23.2367777 142.829414,16.575579 148.101145,16.0336418 L148.103833,16.0309185 Z" id="Path" fill="#000F5D" fill-rule="nonzero"></path>
                        <path d="M77.4408412,17.409835 L78.4376184,15.9339828 C79.8537889,13.9395134 83.8839861,13.2277941 85.4840002,15.2801941 C86.5497188,16.6484608 85.9091387,19.2691329 84.0735749,18.2512087 C82.9302972,17.6167302 82.8067773,16.7919081 81.1521846,17.4843173 C77.7769303,18.8967216 78.9747865,25.7904686 78.51805,28.7890692 C78.3658045,29.795959 77.7798029,32.6759397 76.573329,32.9324897 C73.6978996,33.547658 75.0853446,29.7904418 75.3180217,28.4883816 C75.9241312,25.1339213 75.659856,20.6925717 74.272411,17.5339721 C73.7180075,16.2705323 71.9025516,14.102271 73.9506846,13.158829 C76.093612,12.1712494 77.1018795,16.0581199 77.4408412,17.4070764 L77.4408412,17.409835 Z" id="Path" fill="#000F5D" fill-rule="nonzero"></path>
                        <path d="M53.5165803,35.7630531 C53.0576263,36.1278035 51.7551891,36.0559184 51.293134,35.6538943 C50.2697906,34.7619864 50.5023686,32.1368487 50.4372468,30.954738 C50.2852958,28.1698556 50.1767593,25.3689987 50,22.5867787 C50.2418812,18.8753771 49.9007667,14.9403329 50.2139718,11.2582178 C50.2914978,10.3609852 50.5860967,9.06172836 51.8885339,9.00315531 C54.1088791,8.90198368 53.8111792,11.2582178 53.7677646,12.5548122 C53.6654303,15.7417188 53.2995074,18.9286253 53.3305178,22.1288439 C53.3615283,25.5819916 53.8980083,29.0697507 53.9848375,32.5228984 C54.0034437,33.2151254 54.0871718,35.3131056 53.5165803,35.7657156 L53.5165803,35.7630531 Z" id="Path" fill="#000F5D" fill-rule="nonzero"></path>
                        <path d="M42.4227653,2.03252384 C48.8710471,1.38328159 50.1411195,10.6553603 44.0441957,11.8723382 C37.0343173,13.2720033 35.6404056,2.71549296 42.4227653,2.03252384 Z" id="Path" fill="#000F5D" fill-rule="nonzero"></path>
                        <path d="M45.155714,13.041273 C45.9818037,12.8809429 46.7580657,13.1767242 46.8996811,14.1221186 C47.2117594,16.2174663 46.6741455,19.1061712 46.9101711,21.2872126 C46.7134831,23.9464797 46.7239731,26.6472115 46.4512324,29.309243 C46.3515772,30.296102 46.0814589,33.0327698 45.4074746,33.6602684 C44.5472924,34.4619186 42.9947682,33.7570193 43,32.4633218 C43.0026358,31.8192373 43.4248594,30.4453748 43.5323822,29.6796606 C43.9047782,27.034215 44.0070559,24.0570521 44.0044334,21.3729062 C44.0018109,19.5788684 43.7998779,17.735073 43.9047782,15.9272136 C43.9572283,15.0260482 44.1172012,13.2403034 45.155714,13.0385087 L45.155714,13.041273 Z" id="Path" fill="#000F5D" fill-rule="nonzero"></path>
                        <path d="M140.628961,11.2602231 C139.601177,11.2459817 138.350707,11.0836306 138.068067,9.92153808 C137.774007,8.71102508 138.447776,7.21853374 139.798169,7.03339646 C144.260462,6.42101929 143.683761,14.4161017 140.36916,15.7747245 C139.381346,16.1791783 137.842526,16.1620887 138.279334,14.6781421 C138.390677,14.2964745 139.478414,13.8777794 139.832428,13.5673184 C140.506197,12.9777274 140.706044,12.1317924 140.631815,11.2602231 L140.628961,11.2602231 Z" id="Path" fill="#000F5D" fill-rule="nonzero"></path>
                        <path d="M71.67526,12.932654 C71.7513042,11.5042177 72.1118099,9.71391094 71.9653544,8.32356631 C71.818899,6.90873421 70.1571931,6.60400114 69.3854856,7.52636284 C68.3265001,8.78882841 68.844727,12.4701127 68.6532084,14.0645197 C68.6419426,14.1706321 68.6222274,14.3665319 68.4983036,14.3882985 C68.4081771,14.4046235 67.0928946,13.8577365 66.7943509,13.7788324 C62.752744,12.706825 58.6688904,14.0944488 56.3143376,17.4084209 C52.8641854,22.2651042 52.5093126,33.7225234 60.5953428,34.2422021 C63.614578,34.4353811 66.0958711,33.2572613 68.1603295,31.2275214 L68.1603295,32.9688532 C68.1603295,33.0232698 68.275804,33.5728777 68.301152,33.6789901 C68.5489997,34.6530476 69.1263721,35.1700055 70.2135221,34.9496182 C71.0077612,34.7863683 71.2161785,33.937469 71.2781405,33.2490988 C71.5823171,29.9868225 71.2105456,26.0688259 71.2781405,22.7113205 C71.3401024,19.46809 71.5034565,16.184047 71.6724436,12.932654 L71.67526,12.932654 Z M68.1518801,27.0782542 C67.0027682,27.3258498 66.7492877,28.6644986 66.0958711,29.4698646 C64.6594812,31.2465672 61.5811005,31.8043376 59.5842369,30.6071719 C56.2213947,28.5910362 56.9762035,22.0528794 58.8125294,19.2504235 C60.8938865,16.0779346 65.2537523,15.6289975 68.3067849,17.7757331 C68.3828291,20.8747596 68.2532724,23.9792277 68.1490637,27.0782542 L68.1518801,27.0782542 Z" id="Shape" fill="#000F5D" fill-rule="nonzero"></path>
                        <path d="M95.0002026,24.4423908 C98.5630475,23.7417133 100.524144,23.5872783 99.8778737,19.2116187 C98.9502526,12.9284003 92.2451959,10.8406673 88.1280069,15.6224338 C83.590185,20.8961046 83.0971252,34.7437803 92.7187562,33.9687452 C94.4709293,33.8286097 97.6577116,32.009708 98.1006297,30.1908064 C98.3931229,28.9839251 97.4710731,27.5654106 96.1646038,28.1087932 C95.7467565,28.2803877 94.8581345,29.5616266 94.4040738,29.9620137 C93.2257443,31.0058802 92.0028445,31.2775715 90.5180936,30.6798507 C88.3647871,29.8132985 87.8661559,26.8733128 87.9385828,24.7712803 C90.2840991,25.2031264 92.6825428,24.8999761 95.0002026,24.4423908 L95.0002026,24.4423908 Z M88.7603492,20.2240262 C90.9415123,14.7787609 96.6994484,14.3068761 97.1061531,20.9132641 C94.7522799,21.5224245 92.3566219,21.9971693 89.9136078,22.005749 C89.6183291,21.8427342 88.2533611,22.0086089 88.2338108,21.756937 C88.2282903,21.6768596 88.6823511,20.4213599 88.7631349,20.2240262 L88.7603492,20.2240262 Z" id="Shape" fill="#000F5D" fill-rule="nonzero"></path>
                    </g>
                </g>
            </g>
        </g>
    </g>
</svg>