<?xml version="1.0" encoding="UTF-8"?>
<svg width="785px" height="1936px" viewBox="0 0 785 1936" version="1.1" xmlns="http://www.w3.org/2000/svg" xmlns:xlink="http://www.w3.org/1999/xlink">
    <title>Teammates_Characters_Child4_BodyFull_Sensory_Hearing_Good</title>
    <defs>
        <path d="M0,0 L158.134371,0 L158.134371,129.838842 C130.347606,155.294689 103.788716,168.022613 78.457701,168.022613 C53.1266863,168.022613 26.9741193,155.294689 0,129.838842 L0,0 Z" id="path-1"></path>
        <path d="M258.598385,1.31955987 L369.626639,123.448029 L466.799409,0 C529.049189,2.47071928 569.665421,7.40305557 588.648102,14.7970089 C602.662411,20.255729 615.77295,28.0289337 623.574071,37.3350362 C629.986321,44.9843292 634.568683,54.2184231 638.002785,61.280217 C654.103421,94.3891213 683.26246,162.973872 725.479902,267.03447 L696.411625,288.277274 L611.215604,320.477216 L571.808752,323.289872 C579.622272,427.588784 585.235389,514.557949 588.648102,584.197366 C592.060815,653.836783 595.822066,758.159819 599.931853,897.166474 C497.709377,909.731594 438.302505,916.014155 421.711237,916.014155 C396.824335,916.014155 347.591858,916.014155 329.121829,916.014155 C316.808476,916.014155 256.628471,909.731594 148.581813,897.166474 C148.166681,757.337115 148.166681,653.014079 148.581813,584.197366 C148.996945,515.380653 150.156557,427.473936 152.060649,320.477216 L131.656186,320.477216 L24.8324742,301.655203 L0,288.277274 L92.5203903,74.8471585 C95.7855957,65.6298284 100.529297,57.3634093 106.751494,50.047901 C116.084789,39.0746387 125.395041,25.9185645 145.654175,18.2838342 C156.999914,14.0081502 179.8809,8.50853183 183.676214,7.65669452 C199.039273,4.20854116 224.013329,2.09616295 258.598385,1.31955987 Z" id="path-3"></path>
    </defs>
    <g id="Teammates_Characters_Child4_BodyFull_Sensory_Hearing_Good" stroke="none" stroke-width="1" fill="none" fill-rule="evenodd">
        <g id="Child_4-Copy-4" transform="translate(-93.000000, 0.000000)">
            <g id="Body" transform="translate(93.537671, 0.000000)">
                <g id="Neck" transform="translate(310.059216, 568.328830)">
                    <mask id="mask-2" fill="white">
                        <use xlink:href="#path-1"></use>
                    </mask>
                    <use id="Rectangle" fill="#EEB881" xlink:href="#path-1"></use>
                    <path d="M-31.0621086,-33.8710024 L172.253512,-33.8710024 L175.450903,23.8594214 C145.969941,60.6756848 114.194473,79.0838165 80.1244997,79.0838165 C46.0545264,79.0838165 9.93359967,60.6756848 -28.2382806,23.8594214 L-31.0621086,-33.8710024 Z" id="Rectangle" fill="#000000" opacity="0.430146717" style="mix-blend-mode: multiply;" mask="url(#mask-2)"></path>
                </g>
                <g id="Head" transform="translate(50.591811, 0.000000)">
                    <g>
                        <path d="M350.444879,0.856141678 C296.599653,-3.50004986 245.452814,9.33493135 202.550224,26.4822637 C117.253061,60.5738835 71.6553543,115.311582 39.6005358,216.331344 C24.8624214,262.778052 0,402.748421 0,444.95484 C0,534.901195 81.6135067,615.499797 122.619869,613.933557 C149.957444,612.889397 207.841495,603.501915 296.272021,585.771112 L317.498509,216.331344 L342.823798,169.561118 L476.514071,236.767647 L381.854943,591.378621 C466.979398,605.41244 526.265799,612.95143 559.714148,613.99559 C609.886671,615.561831 667.034969,564.266467 685.112766,503.852767 C697.055228,463.942577 695.815944,390.949393 690.508184,354.255796 C681.588869,292.594819 666.977455,222.106963 663.136839,209.551656 C657.114737,189.864881 644.291251,129.350732 610.914128,92.9965622 C590.671125,70.9480007 579.391767,57.1842327 538.022705,38.1398336 C496.653642,19.0954346 461.543705,32.4675464 433.099228,26.4822637 C405.379617,20.6495074 398.664761,4.75723112 350.444879,0.856141678 Z" id="Hair" fill="#000000"></path>
                        <g transform="translate(77.433877, 130.239615)">
                            <g id="Ear_L" transform="translate(0.000000, 255.690902)">
                                <path d="M41.2970545,1.27304518 C25.1252014,-2.63627279 13.140474,2.45807654 5.34287221,16.5560932 C-6.35353046,37.7031182 -0.158896586,84.7630598 37.074845,84.7630598 C61.8973394,84.7630598 63.3047426,56.9330549 41.2970545,1.27304518 Z" id="Path-2" fill="#DA9D6D"></path>
                                <path d="M18.363329,58.6936457 C12.0319161,50.8439781 10.9206045,42.6256054 15.0293944,34.0385278 C19.1381843,25.4514502 25.8598759,22.8652536 35.1944691,26.279938" id="Path-8-Copy" stroke="#4C250F" stroke-width="2.82323073" stroke-linecap="round" transform="translate(23.899157, 41.758144) scale(-1, 1) translate(-23.899157, -41.758144) "></path>
                            </g>
                            <g id="Ear_R" transform="translate(481.140171, 248.496556)">
                                <path d="M41.2970545,1.27304518 C25.1252014,-2.63627279 13.140474,2.45807654 5.34287221,16.5560932 C-6.35353046,37.7031182 -0.158896586,84.7630598 37.074845,84.7630598 C61.8973394,84.7630598 63.3047426,56.9330549 41.2970545,1.27304518 Z" id="Path-2-Copy" fill="#DA9D6D" transform="translate(28.405357, 42.381530) scale(-1, 1) translate(-28.405357, -42.381530) "></path>
                                <path d="M17.2739279,59.7538166 C10.9425149,51.904149 9.83120333,43.6857764 13.9399932,35.0986988 C18.0487831,26.5116211 24.7704747,23.9254245 34.1050679,27.3401089" id="Path-8" stroke="#4C250F" stroke-width="2.82323073" stroke-linecap="round"></path>
                            </g>
                            <g transform="translate(25.643952, 0.000000)" fill="#EEB881" id="Path">
                                <path d="M2.2306274,233.715543 C22.426131,326.358352 41.5746124,384.664164 59.6760716,408.632978 C86.8282604,444.5862 213.148144,483.250551 241.056111,483.250551 C268.964079,483.250551 383.618879,441.040092 416.670145,408.632978 C449.721412,376.225864 476.789951,237.538747 476.789951,209.542048 C476.789951,181.545348 479.893002,0 228.654437,0 C61.16206,0 -14.3125431,77.9051809 2.2306274,233.715543 Z"></path>
                            </g>
                        </g>
                        <path d="M113.770431,400.775613 L113.770431,372.308211 C139.175084,328.897 155.409466,302.584661 162.473578,293.371194 C173.069746,279.550994 198.411202,259.941884 202.544154,256.523839 C268.104533,202.303918 337.984355,187.03582 340.054282,186.742642 C346.961953,185.764258 265.392343,256.910237 274.889059,256.523839 C286.458155,256.053122 341.960621,256.523839 350.444879,256.523839 C406.982726,256.523839 493.145263,254.471436 493.914324,255.347833 C517.542931,282.274268 563.494605,313.640379 569.04721,343.075167 C573.207893,365.131274 575.319951,377.166049 575.383384,379.179493 L577.386706,379.179493 L605.310855,316.022303 L491.123846,110.763633 L177.613902,83.9262685 L89.0831618,225.126082 L77.9799802,324.235093 L113.770431,400.775613 Z" id="BANGS" fill="#000000"></path>
                    </g>
                    <g id="LowerLip" transform="translate(315.943966, 574.286142)" stroke="#4C250F" stroke-width="2.82323073">
                        <path d="M0,0 C9.51673924,3.76258599 17.5590916,5.64387899 24.1270571,5.64387899 C30.6950225,5.64387899 39.5956385,3.76258599 50.828905,0" id="Path-4"></path>
                    </g>
                    <g id="Expression_Happy_EyesClosed" transform="translate(162.093237, 320.865734)">
                        <g id="Mouth_Neutral" transform="translate(108.365043, 206.638379)" fill="#FFFFFF" stroke="#69381D" stroke-width="2.8224">
                            <path d="M0,0 C31.6263902,3.13368499 55.3936874,4.70052749 71.3018914,4.70052749 C87.2100954,4.70052749 110.537035,3.13368499 141.28271,0 C108.73352,19.9008766 85.4065801,29.851315 71.3018914,29.851315 C57.1972026,29.851315 33.4299055,19.9008766 0,0 Z" id="Path-3"></path>
                        </g>
                        <g id="Eyes_Closed_Happy" transform="translate(39.100913, 92.138342)" stroke="#000000" stroke-linecap="round" stroke-linejoin="round" stroke-width="3.7699761">
                            <g id="Eye_L" transform="translate(0.000000, 0.000000)">
                                <path d="M66.4018311,9.12943552 C65.9462161,12.8138109 62.1844532,16.8572048 55.1165426,21.2596172 C46.2402325,26.7884333 35.7819069,27.6714292 27.5412943,26.8861042 C13.5482351,25.5525747 4.3678036,16.5905399 0,0" id="Path-12"></path>
                            </g>
                            <g id="Eye_R" transform="translate(217.251136, 0.000000)">
                                <path d="M66.4018311,9.12943552 C65.9462161,12.8138109 62.1844532,16.8572048 55.1165426,21.2596172 C46.2402325,26.7884333 35.7819069,27.6714292 27.5412943,26.8861042 C13.5482351,25.5525747 4.3678036,16.5905399 0,0" id="Path-12-Copy-2" transform="translate(33.200916, 13.566641) scale(-1, 1) translate(-33.200916, -13.566641) "></path>
                            </g>
                        </g>
                        <g id="Eyebrows_Neutral" fill="#000000">
                            <g id="Brow-L" transform="translate(62.998412, 28.134260) rotate(-10.000000) translate(-62.998412, -28.134260) translate(2.024912, 11.134261)">
                                <path d="M0.233652977,19.9907778 C-0.347473071,21.8991556 0.155404243,24.957902 1.74228492,29.167017 C4.12260593,35.4806894 9.89941775,34.2084216 12.9161415,33.0403831 C47.2775226,19.7360768 63.420129,13.0839237 74.7243084,13.0839237 C86.3215409,13.0839237 94.5314078,16.363827 115.054334,22.779694 C117.849288,23.6534512 120.921916,25.3303892 121.796795,24.6155187 C122.671674,23.9006481 119.538196,21.5397903 117.222573,19.9907778 C96.7280992,6.28121231 87.9512547,1.32763859 75.4330105,0.223779773 C62.9147663,-0.880079049 37.6033684,1.96282488 16.7786692,11.8201336 C14.9987345,12.6626603 9.48372911,15.3862084 0.233652977,19.9907778 Z" id="Path-5-Copy-3" transform="translate(60.973499, 17.000000) scale(-1, 1) translate(-60.973499, -17.000000) "></path>
                            </g>
                            <g id="Brow-R" transform="translate(295.897187, 28.134260) rotate(11.000000) translate(-295.897187, -28.134260) translate(235.923254, 11.134261)">
                                <path d="M0.2298226,19.9907778 C-0.341776791,21.8991556 0.152856633,24.957902 1.71372287,29.167017 C4.05502223,35.4806894 9.73713222,34.2084216 12.7044015,33.0403831 C46.5024812,19.7360768 62.3804547,13.0839237 73.4993197,13.0839237 C84.9064337,13.0839237 92.9817126,16.363827 113.168197,22.779694 C115.917333,23.6534512 118.93959,25.3303892 119.800127,24.6155187 C120.660663,23.9006481 117.578554,21.5397903 115.300891,19.9907778 C95.1423927,6.28121231 86.5094309,1.32763859 74.1964038,0.223779773 C61.8833767,-0.880079049 36.9869197,1.96282488 16.503609,11.8201336 C14.7528536,12.6626603 9.32825815,15.3862084 0.2298226,19.9907778 Z" id="Path-5-Copy-3"></path>
                            </g>
                        </g>
                    </g>
                    <g id="Nose" transform="translate(298.005904, 484.094677)">
                        <path d="M0.755974997,0 C-2.47420717,7.90332927 4.76767808,11.6223538 20.1722458,15.9321675 C25.3410055,17.3782575 32.6271908,22.3784959 40.5653453,22.5771485 C47.8621202,22.7597504 57.7555421,15.7949158 67.2392698,14.6707267" id="Path-6" stroke="#4C250F" stroke-width="2.82683179" stroke-linecap="round"></path>
                        <path d="M17.5674791,0 C14.3300902,7.90330803 21.5881325,11.6223226 37.0270687,15.9321246 C42.2073602,17.3782107 49.5098014,22.3784358 57.4656665,22.5770878 C64.7787209,22.7596893 74.5442008,15.914938 84.0490873,14.7907519" id="Path-6-Copy" stroke="#4C250F" stroke-width="2.82683179" stroke-linecap="round" transform="translate(50.429452, 11.290337) scale(-1, 1) translate(-50.429452, -11.290337) "></path>
                        <path d="M5.60327249,11.2903374 C22.1476343,22.5806748 34.4178141,28.2258435 42.413812,28.2258435 C50.4098098,28.2258435 62.4204774,23.0253449 78.4458148,12.6243475 L65.6611311,15.9800561 L47.3026456,22.6972159 L39.3104928,22.6972159 L22.1704702,15.9800561 L5.60327249,11.2903374 Z" id="Path-9" fill="#664429"></path>
                    </g>
                </g>
                <g transform="translate(0.000000, 647.360994)">
                    <g transform="translate(138.278615, 0.000000)" fill="#EEB881" id="Combined-Shape">
                        <path d="M258.845779,0 C354.059797,0.0777593708 378.362995,1.42071675 402.72295,3.55051493 L404.514571,3.70846657 C408.999098,4.10685258 413.544242,4.53140752 418.590266,4.97914223 C452.570224,7.99419083 474.698862,14.7602623 485.842977,20.8955672 C520.652035,40.0594202 511.750234,92.8314589 492.180976,138.930019 C472.611718,185.028579 455.011982,185.028579 455.011982,210.363352 L455.011982,376.518831 C455.011982,407.326415 458.764243,471.465872 466.268765,568.937201 L466.497323,571.901081 C468.268298,594.830415 452.529566,615.430079 429.940928,619.747973 C351.318577,634.7769 294.286134,642.841554 258.843601,643.941932 L258.845779,644.071 L258.567338,644.07233 C257.314354,644.07233 256.028334,644.061673 254.709278,644.04036 C253.386789,644.061673 252.100769,644.07233 250.847786,644.07233 L250.569345,644.071 L250.571523,643.941932 C215.128989,642.841554 158.096547,634.7769 79.4741952,619.747973 C56.885558,615.430079 41.1468258,594.830415 42.9178009,571.901081 L42.9178009,571.901081 L43.1463583,568.937201 C50.6508803,471.465872 54.4031414,407.326415 54.4031414,376.518831 L54.4031414,376.518831 L54.4031414,210.363352 C54.4031414,185.028579 36.803406,185.028579 17.2341478,138.930019 C-2.33511031,92.8314589 -11.2369115,40.0594202 23.5721469,20.8955672 C34.716262,14.7602623 56.8448998,7.99419083 90.8248581,4.97914223 C95.8708819,4.53140752 100.416026,4.10685258 104.900552,3.70846657 L106.692173,3.55051493 C131.052129,1.42071675 155.355327,0.0777593708 250.562035,0.00342898288 L250.569345,0 L258.845779,0 Z"></path>
                    </g>
                    <g id="Leg-R" transform="translate(422.560519, 406.452203)" fill="#EEB881">
                        <path d="M48.1938764,428.119436 C46.1898985,408.827364 41.3892239,373.597295 33.7918526,322.429229 L0.474990885,93.6669218 C-2.77543275,71.348661 10.9342853,50.0526621 32.5958418,43.7719784 L130.129449,15.49249 C137.177157,13.4490343 143.620945,9.71939741 148.90346,4.62617206 C160.50892,-6.56342762 167.850592,2.54568934 170.928477,31.9535229 C173.119405,52.8868799 187.714409,164.701034 186.781659,195.716045 C184.744105,263.467033 179.10043,357.472407 169.850635,477.732168 C169.972454,476.149572 170.093891,474.567165 170.214701,472.98933 C169.950504,457.897632 161.926749,509.821146 115.122704,509.821146 C83.3693923,509.821146 60.4006039,491.504071 46.2163392,454.869921 L46.569,455.77 L46.4902558,456.119651 C46.4206124,456.427594 46.3500787,456.735958 46.2787665,457.045043 C48.1852371,448.781966 49.5352958,441.033132 48.1938764,428.119436 Z" id="Combined-Shape"></path>
                        <path d="M117.141794,406.492032 C164.003072,406.492032 170.034715,454.462265 170.217196,472.965124 C165.299731,537.183223 159.342011,608.98308 152.34378,688.358386 C150.492637,709.354418 134.367101,726.279533 113.485147,729.143812 L104.29779,730.403998 C80.5318422,733.66386 58.6230944,717.040393 55.3632322,693.274445 C55.278738,692.658442 55.2074806,692.040695 55.1495268,691.42163 C45.5100922,588.48415 40.690375,525.021697 40.690375,501.034273 C40.690375,475.283321 44.8412906,464.530098 47.1795509,452.91117 C62.7172685,421.965013 86.038012,406.492032 117.141794,406.492032 Z" id="Combined-Shape"></path>
                        <path d="M49.8178177,729.407502 C51.4893783,744.16925 57.8351006,774.240172 66.3795927,786.395307 C79.9802789,805.74323 105.225961,802.245054 126.820307,828.0921 C161.98108,870.177288 186.651998,875.611784 207.178176,875.785036 C227.704354,875.955998 249.792834,856.679279 252.608739,853.193203 C262.773384,840.609427 262.994536,837.892612 262.819394,815.599591 C262.687051,798.754252 240.914958,783.258536 233.595501,773.867347 C228.544981,767.387304 225.953556,767.888224 206.22573,754.551373 C176.613223,734.532058 155.326198,707.242596 142.364653,672.682987 C141.6825,670.86415 139.071066,630.554735 83.7568081,642.192669 C57.1131313,647.798408 45.6848913,671.179141 44.9662737,689.894846 C44.5623419,700.414861 49.1934451,723.893594 49.8178177,729.407502 Z" id="Path-9-Copy-2" transform="translate(153.895927, 757.935900) rotate(7.000000) translate(-153.895927, -757.935900) "></path>
                    </g>
                    <g id="Leg-L" transform="translate(222.171209, 850.545605) scale(-1, 1) translate(-222.171209, -850.545605) translate(83.974128, 406.452203)" fill="#EEB881">
                        <path d="M48.1938764,428.119436 C46.1898985,408.827364 41.3892239,373.597295 33.7918526,322.429229 L0.474990885,93.6669218 C-2.77543275,71.348661 10.9342853,50.0526621 32.5958418,43.7719784 L130.129449,15.49249 C137.177157,13.4490343 143.620945,9.71939741 148.90346,4.62617206 C160.50892,-6.56342762 167.850592,2.54568934 170.928477,31.9535229 C173.119405,52.8868799 187.714409,164.701034 186.781659,195.716045 C184.744105,263.467033 179.10043,357.472407 169.850635,477.732168 C169.972454,476.149572 170.093891,474.567165 170.214701,472.98933 C169.950504,457.897632 161.926749,509.821146 115.122704,509.821146 C83.3693923,509.821146 60.4006039,491.504071 46.2163392,454.869921 L46.569,455.77 L46.4902558,456.119651 C46.4206124,456.427594 46.3500787,456.735958 46.2787665,457.045043 C48.1852371,448.781966 49.5352958,441.033132 48.1938764,428.119436 Z" id="Combined-Shape"></path>
                        <path d="M117.141794,406.492032 C164.003072,406.492032 170.034715,454.462265 170.217196,472.965124 C165.299731,537.183223 159.342011,608.98308 152.34378,688.358386 C150.492637,709.354418 134.367101,726.279533 113.485147,729.143812 L104.29779,730.403998 C80.5318422,733.66386 58.6230944,717.040393 55.3632322,693.274445 C55.278738,692.658442 55.2074806,692.040695 55.1495268,691.42163 C45.5100922,588.48415 40.690375,525.021697 40.690375,501.034273 C40.690375,475.283321 44.8412906,464.530098 47.1795509,452.91117 C62.7172685,421.965013 86.038012,406.492032 117.141794,406.492032 Z" id="Combined-Shape"></path>
                        <path d="M49.8178177,729.407502 C51.4893783,744.16925 57.8351006,774.240172 66.3795927,786.395307 C79.9802789,805.74323 105.225961,802.245054 126.820307,828.0921 C161.98108,870.177288 186.651998,875.611784 207.178176,875.785036 C227.704354,875.955998 249.792834,856.679279 252.608739,853.193203 C262.773384,840.609427 262.994536,837.892612 262.819394,815.599591 C262.687051,798.754252 240.914958,783.258536 233.595501,773.867347 C228.544981,767.387304 225.953556,767.888224 206.22573,754.551373 C176.613223,734.532058 155.326198,707.242596 142.364653,672.682987 C141.6825,670.86415 139.071066,630.554735 83.7568081,642.192669 C57.1131313,647.798408 45.6848913,671.179141 44.9662737,689.894846 C44.5623419,700.414861 49.1934451,723.893594 49.8178177,729.407502 Z" id="Path-9-Copy-2" transform="translate(153.895927, 757.935900) rotate(7.000000) translate(-153.895927, -757.935900) "></path>
                    </g>
                    <g id="Sock_Green" transform="translate(105.952206, 1060.170246)">
                        <g id="Sock-L" transform="translate(101.495058, 113.989462) scale(-1, 1) translate(-101.495058, -113.989462) ">
                            <path d="M101.524712,21.0604202 C110.408851,55.675558 127.959843,84.4110062 154.176992,107.267988 C156.591931,109.373413 158.729417,111.192088 160.630682,112.780257 L161.332664,113.365126 C168.358543,119.203672 172.025815,121.793969 174.619301,124.252744 L174.871016,124.494276 C174.912418,124.534497 174.953552,124.574711 174.994427,124.61493 L175.281642,124.901995 C176.649991,126.291734 177.73987,127.727183 178.963332,129.770421 C185.077468,139.981314 204.778638,158.010793 202.85903,174.742907 C200.318634,196.886086 199.768597,199.555095 188.158038,210.803766 C184.941571,213.919978 160.693339,230.357379 140.361823,227.686811 C120.030593,225.013917 96.2302523,216.615204 66.4909271,170.569125 C48.2262185,142.289457 22.7684773,142.684794 11.6384909,121.828307 C4.6461907,108.725432 2.01518765,78.1122407 2.15494804,63.2601769 C2.189407,59.5982905 1.44583848,47.9564348 1.41988104,37.4767729 L1.41981696,36.3971906 C1.43072705,31.9193285 1.58454454,27.7159613 2.00104348,24.5192135 C1.30666426,17.0191198 0.639654838,9.74338875 1.52418178e-05,2.69201939 C10.7487317,10.0034342 26.3925849,13.6583324 46.9304712,13.6583324 C69.8526721,13.6583324 88.6623775,9.10555491 103.359587,3.96627176e-13 C102.756318,6.95798296 102.144747,13.9783668 101.524712,21.0604202 Z" id="Combined-Shape" fill="#DAECE5"></path>
                            <path d="M101.524712,21.0604202 C101.948337,22.7109837 102.391668,24.3481785 102.854704,25.9720048 C90.4453363,32.7916605 73.9815759,36.1636563 53.4844271,36.1636563 C34.0532144,36.1636563 16.7985319,33.1331231 1.73887684,27.0553078 C1.81170259,26.1560614 1.89839542,25.3070665 2.00104348,24.5192135 C1.87642958,23.1732401 1.75269715,21.8344926 1.62984621,20.502971 C16.4795662,26.9381627 33.7570752,30.1636608 53.4844271,30.1636608 C74.0307036,30.1636608 90.0746363,26.6650412 101.639642,19.7553886 C101.600973,20.1892344 101.562859,20.6247106 101.524712,21.0604202 Z" id="Combined-Shape" fill="#9CCCB9" fill-rule="nonzero"></path>
                        </g>
                        <g id="Sock-R" transform="translate(368.828762, -0.000000)">
                            <path d="M101.524712,21.0604202 C110.408851,55.675558 127.959843,84.4110062 154.176992,107.267988 C156.591931,109.373413 158.729417,111.192088 160.630682,112.780257 L161.332664,113.365126 C168.358543,119.203672 172.025815,121.793969 174.619301,124.252744 L174.871016,124.494276 C174.912418,124.534497 174.953552,124.574711 174.994427,124.61493 L175.281642,124.901995 C176.649991,126.291734 177.73987,127.727183 178.963332,129.770421 C185.077468,139.981314 204.778638,158.010793 202.85903,174.742907 C200.318634,196.886086 199.768597,199.555095 188.158038,210.803766 C184.941571,213.919978 160.693339,230.357379 140.361823,227.686811 C120.030593,225.013917 96.2302523,216.615204 66.4909271,170.569125 C48.2262185,142.289457 22.7684773,142.684794 11.6384909,121.828307 C4.6461907,108.725432 2.01518765,78.1122407 2.15494804,63.2601769 C2.189407,59.5982905 1.44583848,47.9564348 1.41988104,37.4767729 L1.41981696,36.3971906 C1.43072705,31.9193285 1.58454454,27.7159613 2.00104348,24.5192135 C1.30666426,17.0191198 0.639654838,9.74338875 1.52418162e-05,2.69201939 C10.7487317,10.0034342 26.3925849,13.6583324 46.9304712,13.6583324 C69.8526721,13.6583324 88.6623775,9.10555491 103.359587,3.96627176e-13 C102.756318,6.95798296 102.144747,13.9783668 101.524712,21.0604202 Z" id="Combined-Shape" fill="#DAECE5"></path>
                            <path d="M101.524712,21.0604202 C101.948337,22.7109837 102.391668,24.3481785 102.854704,25.9720048 C90.4453363,32.7916605 73.9815759,36.1636563 53.4844271,36.1636563 C34.0532144,36.1636563 16.7985319,33.1331231 1.73887684,27.0553078 C1.81170259,26.1560614 1.89839542,25.3070665 2.00104348,24.5192135 C1.87642958,23.1732401 1.75269715,21.8344926 1.62984621,20.502971 C16.4795662,26.9381627 33.7570752,30.1636608 53.4844271,30.1636608 C74.0307036,30.1636608 90.0746363,26.6650412 101.639642,19.7553886 C101.600973,20.1892344 101.562859,20.6247106 101.524712,21.0604202 Z" id="Combined-Shape" fill="#9CCCB9" fill-rule="nonzero"></path>
                        </g>
                    </g>
                    <g id="Arm_L" transform="translate(533.190353, 4.622840)">
                        <path d="M64.0079207,49.9739686 C75.543722,21.6200464 80.0456031,0.615057682 128.354194,11.7074568 C140.602863,14.5199404 150.514803,24.8581859 158.090017,42.7221934 C160.503562,48.4138575 161.723092,54.5403682 161.673104,60.722418 L159.70936,303.579427 C159.50764,328.526248 139.120719,348.586115 114.173899,348.384395 C112.305817,348.36929 110.440471,348.238313 108.588608,347.99222 L90.5651595,345.59709 C67.8491571,342.578369 50.9926244,323.028531 51.349483,300.115607 L53.7230493,147.715336 L53.7230493,147.715336 C52.8890961,101.457039 56.3173866,68.8765834 64.0079207,49.9739686 Z" id="Rectangle" fill="#EEB881" transform="translate(106.231781, 181.710321) rotate(-18.000000) translate(-106.231781, -181.710321) "></path>
                        <path d="M147.668041,255.819462 L166.108444,255.009126 C191.032028,253.913898 212.124443,273.230597 213.219672,298.154181 C213.260398,299.080971 213.272565,300.008796 213.256154,300.936335 L210.762473,441.883304 C210.330061,466.323958 190.166457,485.786484 165.725802,485.354072 C165.331316,485.347092 164.936941,485.334838 164.542783,485.317313 L158.922848,485.06744 C136.182117,484.056344 117.746572,466.282277 115.905569,443.593649 L104.627412,304.60092 C102.60974,279.735008 121.131899,257.941558 145.99781,255.923886 C146.553861,255.878767 147.110701,255.843953 147.668041,255.819462 Z" id="Rectangle-Copy-3" fill="#EEB881" transform="translate(157.471100, 370.118260) rotate(-12.000000) translate(-157.471100, -370.118260) "></path>
                        <path d="M125.378099,461.043287 C119.702813,490.404433 116.86517,509.687968 116.86517,518.893894 C116.86517,532.702784 116.86517,550.927764 121.121634,578.256292 C125.378099,605.584819 125.378099,619.099693 125.378099,619.099693 C125.378099,619.099693 149.112472,615.59533 149.112472,596.925811 C149.112472,578.256292 148.178731,532.851197 156.561888,525.872546 C164.945044,518.893894 178.878984,559.586773 178.878984,578.256292 C178.878984,596.925811 142.320848,649.482811 156.561888,659.893727 C170.802927,670.304643 202.181228,627.2348 217.681807,619.099693 C233.182385,610.964585 258.42154,561.355553 249.35907,518.893894 C243.317423,490.586122 235.160273,464.889964 224.887621,441.805421 C215.134111,419.350447 197.427652,409.966413 171.768244,413.653319 C146.108836,417.340226 130.645454,433.136882 125.378099,461.043287 Z" id="Path-7" fill="#EEB881"></path>
                        <g id="HospitalBracelet" transform="translate(121.197363, 429.849097)" fill="#F1F1F1">
                            <path d="M107.096359,0 L117.227738,34.5546029 C95.7484865,39.4278036 77.8748993,41.6845142 63.6069763,41.3247346 C59.9109799,41.2315364 55.7200853,40.9739377 51.0342927,40.5519383 C48.6373466,40.3360709 45.6275343,33.3628241 42.004856,32.8954671 C35.4952507,32.0556715 21.7475243,29.7088801 0.761676648,25.855093 L0,25.7151432 L1.73212369,5.12325213 C20.2511254,8.64935243 33.6753695,10.638524 42.004856,11.0907667 C44.0797379,11.2034208 48.823121,5.06259598 50.7967135,5.12325213 C53.0989319,5.19400823 55.3322355,5.22938628 57.4966244,5.22938628 C72.6892587,5.22938628 89.2225034,3.48625752 107.096359,0 Z M28.3273748,15.4398459 C25.7552282,15.4398459 23.6700914,17.5321971 23.6700914,20.1132431 C23.6700914,22.6942891 25.7552282,24.7866403 28.3273748,24.7866403 C30.8995215,24.7866403 32.9846583,22.6942891 32.9846583,20.1132431 C32.9846583,17.5321971 30.8995215,15.4398459 28.3273748,15.4398459 Z M13.2483403,13.6534223 C10.8093882,13.6534223 8.83222684,15.6311076 8.83222684,18.070706 C8.83222684,20.5103044 10.8093882,22.4879897 13.2483403,22.4879897 C15.6872924,22.4879897 17.6644537,20.5103044 17.6644537,18.070706 C17.6644537,15.6311076 15.6872924,13.6534223 13.2483403,13.6534223 Z" id="Combined-Shape"></path>
                        </g>
                    </g>
                    <g id="Arm_L-Copy" transform="translate(125.635988, 335.376364) scale(-1, 1) translate(-125.635988, -335.376364) translate(0.000000, 4.622840)" fill="#EEB881">
                        <path d="M64.0079207,49.9739686 C75.543722,21.6200464 80.0456031,0.615057682 128.354194,11.7074568 C140.602863,14.5199404 150.514803,24.8581859 158.090017,42.7221934 C160.503562,48.4138575 161.723092,54.5403682 161.673104,60.722418 L159.70936,303.579427 C159.50764,328.526248 139.120719,348.586115 114.173899,348.384395 C112.305817,348.36929 110.440471,348.238313 108.588608,347.99222 L90.5651595,345.59709 C67.8491571,342.578369 50.9926244,323.028531 51.349483,300.115607 L53.7230493,147.715336 L53.7230493,147.715336 C52.8890961,101.457039 56.3173866,68.8765834 64.0079207,49.9739686 Z" id="Rectangle" transform="translate(106.231781, 181.710321) rotate(-18.000000) translate(-106.231781, -181.710321) "></path>
                        <path d="M147.668041,255.819462 L166.108444,255.009126 C191.032028,253.913898 212.124443,273.230597 213.219672,298.154181 C213.260398,299.080971 213.272565,300.008796 213.256154,300.936335 L210.762473,441.883304 C210.330061,466.323958 190.166457,485.786484 165.725802,485.354072 C165.331316,485.347092 164.936941,485.334838 164.542783,485.317313 L158.922848,485.06744 C136.182117,484.056344 117.746572,466.282277 115.905569,443.593649 L104.627412,304.60092 C102.60974,279.735008 121.131899,257.941558 145.99781,255.923886 C146.553861,255.878767 147.110701,255.843953 147.668041,255.819462 Z" id="Rectangle-Copy-3" transform="translate(157.471100, 370.118260) rotate(-12.000000) translate(-157.471100, -370.118260) "></path>
                        <path d="M125.378099,461.043287 C119.702813,490.404433 116.86517,509.687968 116.86517,518.893894 C116.86517,532.702784 116.86517,550.927764 121.121634,578.256292 C125.378099,605.584819 125.378099,619.099693 125.378099,619.099693 C125.378099,619.099693 149.112472,615.59533 149.112472,596.925811 C149.112472,578.256292 148.178731,532.851197 156.561888,525.872546 C164.945044,518.893894 178.878984,559.586773 178.878984,578.256292 C178.878984,596.925811 142.320848,649.482811 156.561888,659.893727 C170.802927,670.304643 202.181228,627.2348 217.681807,619.099693 C233.182385,610.964585 258.42154,561.355553 249.35907,518.893894 C243.317423,490.586122 235.160273,464.889964 224.887621,441.805421 C215.134111,419.350447 197.427652,409.966413 171.768244,413.653319 C146.108836,417.340226 130.645454,433.136882 125.378099,461.043287 Z" id="Path-7"></path>
                    </g>
                </g>
            </g>
            <g id="Gown_Green" transform="translate(114.453757, 647.709106)">
                <mask id="mask-4" fill="white">
                    <use xlink:href="#path-3"></use>
                </mask>
                <use id="Path-5" stroke="#000000" stroke-width="2.25792" fill="#AFE5D0" xlink:href="#path-3"></use>
                <path d="M64.0745278,905.014008 L71.7285278,916.014008 L63.2525278,916.014155 L64.0745278,905.014008 Z M152.060649,198.510008 L151.7317,297.794391 L205.000568,361.387131 L205.000568,463.303587 L219.867077,665.927357 L329.121829,848.097619 L375.710528,914.908008 L325.585436,914.74608 L301.956757,912.902529 L274.93588,910.204353 L149.676414,896.09482 C149.602878,830.547408 149.563904,774.588962 149.559492,728.219482 L149.559492,710.929771 C149.563904,667.008538 149.602878,632.676271 149.676414,607.932971 C149.818188,560.228854 150.391423,517.0908 150.608704,482.319364 C150.793907,452.68132 151.088869,426.51962 151.40275,404.769965 C151.845384,374.098775 152.471314,345.618012 153.280539,319.327674 L153.280539,319.327674 L131.081837,319.327674 L109.656528,315.310008 L152.060649,198.510008 Z" id="Combined-Shape" fill="#9CCCB9" opacity="0.67670913" mask="url(#mask-4)"></path>
                <path d="M572.880445,322.517918 C573.006855,292.676812 573.006855,268.719915 572.880445,250.647228 C572.754034,232.57454 572.396803,205.458927 571.808752,169.300387 L641.112988,308.46324 L611.128666,319.513424 L572.880445,322.517918 Z" id="Path-64" fill="#9CCCB9" mask="url(#mask-4)"></path>
                <g id="Group-5" mask="url(#mask-4)" stroke="#000000">
                    <g transform="translate(151.402750, 2.260567)">
                        <path d="M344.179488,0 C259.14371,116.885573 193.268262,203.278058 146.553143,259.177452 C99.8380251,315.076847 50.9869773,368.871292 0,420.560788 L0.328949382,388.397738 C51.1333327,332.366556 88.8143434,289.293128 113.371981,259.177452 C137.92962,229.061777 172.880255,183.065113 218.223888,121.187461" id="Path-62" stroke-width="1.69344"></path>
                        <line x1="204.095905" y1="141.411139" x2="79.5710073" y2="1.25598322e-13" id="Path-63" stroke-width="2.25792"></line>
                    </g>
                </g>
                <g id="Group-16" mask="url(#mask-4)" stroke="#000000" stroke-width="2.25792">
                    <g transform="translate(143.597836, 251.587386)">
                        <line x1="428.210917" y1="71.7024854" x2="428.210917" y2="0" id="Path-60"></line>
                        <line x1="8.46281326" y1="70.324278" x2="7.80491449" y2="22.0897314" id="Path-61" stroke-linecap="round"></line>
                    </g>
                </g>
                <g id="Group" mask="url(#mask-4)">
                    <g transform="translate(385.040080, 167.167221)">
                        <path d="M70.8947646,12.1026065 C74.9205414,2.49738234 81.4955919,-1.39045784 90.6199159,0.439085915 C99.7442399,2.26862967 104.332275,8.47856761 104.384021,19.0688997 C110.90398,11.557087 117.971582,9.67930321 125.586826,13.4355483 C133.202069,17.1917933 136.038227,23.9466841 134.095299,33.7002207 C140.794567,32.1285982 146.941858,34.028512 152.537171,39.3999621 C158.132484,44.7714122 157.140519,52.9948272 149.561276,64.0702069 L149.561276,64.0702069 L103.084227,131.825455 L56.9313114,131.825455 C40.5325815,111.725987 26.4256105,94.2801965 14.6103982,79.4880837 C-3.11242025,57.2999144 -2.08863754,51.3829374 4.00562628,43.7532416 C10.0998901,36.1235458 18.4357108,37.9460783 25.2296359,40.9818374 C29.7589192,43.0056768 34.4195503,46.9966728 39.2115292,52.9548254 L39.2115292,52.9548254 L46.733839,47.5560499 L40.331316,31.3427869 C34.884396,17.4970163 37.0185704,8.52001798 46.733839,4.41179209 C56.4491076,0.303566213 64.5027495,2.867171 70.8947646,12.1026065 Z M91.4311359,53.9304619 C86.4775927,54.5082137 81.4834359,58.2215648 80.1837259,60.7214025 C79.3172525,62.387961 78.6017609,64.5257072 78.0372509,67.134641 C76.3331622,60.892198 73.1127857,56.818263 68.3761215,54.912836 C61.2711253,52.0546955 53.5175271,56.0767215 51.8513644,57.6714059 C50.1852017,59.2660903 43.3657906,66.841765 46.7754961,75.6309654 C49.0486332,81.4904323 59.1965788,96.2396459 77.219333,119.878606 L104.278697,82.8699932 C108.115738,77.3758171 109.818943,72.7385548 109.388313,68.9582063 C108.742367,63.2876835 105.656937,59.01033 103.229688,57.2891035 C100.802439,55.567877 96.384679,53.3527102 91.4311359,53.9304619 Z" id="Combined-Shape" stroke="none" fill="#DC6363" fill-rule="evenodd"></path>
                        <path d="M19.8904772,40.0666085 C21.4664601,37.0499601 24.3142373,33.8187713 28.433809,30.3730422 C32.5533806,26.927313 36.8109638,24.6706099 41.2065583,23.6029328" id="Path-18" stroke="#DC6363" stroke-width="5.22043011" fill="none"></path>
                        <path d="M25.9124501,46.8933197 C27.4884329,43.8766713 30.3362102,40.6454825 34.4557818,37.1997533 C38.5753535,33.7540241 42.8329366,31.497321 47.2285311,30.429644" id="Path-18-Copy" stroke="#DC6363" stroke-width="5.22043011" fill="none"></path>
                        <path d="M29.5256338,55.727887 C31.1016166,52.7112386 33.9493939,49.4800498 38.0689655,46.0343207 C42.1885372,42.5885915 46.4461203,40.3318884 50.8417148,39.2642113" id="Path-18-Copy-2" stroke="#DC6363" stroke-width="5.22043011" fill="none"></path>
                    </g>
                </g>
            </g>
        </g>
    </g>
</svg>