<?xml version="1.0" encoding="UTF-8"?><svg xmlns="http://www.w3.org/2000/svg" width="673" height="979.54" xmlns:xlink="http://www.w3.org/1999/xlink" viewBox="0 0 673 979.54"><defs><mask id="j" x="120.83" y="442.1" width="39.61" height="505.93" maskUnits="userSpaceOnUse"><g id="k"><path id="l" d="M128.94,453.71c3.6-2.59,8.85-3.88,15.76-3.88s12.15,1.29,15.76,3.88v483.23c-3,2.59-8.25,3.88-15.76,3.88s-12.75-1.29-15.76-3.88v-483.23Z" style="fill:#fff; fill-rule:evenodd;"/></g></mask><mask id="di" x="420.54" y="276" width="103.14" height="100.91" maskUnits="userSpaceOnUse"><g id="dj"><path id="dk" d="M436.06,292.93h78.98v64.9c-13.88,12.72-27.14,19.09-39.79,19.09s-25.71-6.36-39.19-19.09v-64.9Z" style="fill:#fff; fill-rule:evenodd;"/></g></mask><linearGradient id="eh" x1="38.72" y1="911.19" x2="38.08" y2="911.45" gradientTransform="translate(-483.83 24647.05) scale(26.6 -26.81)" gradientUnits="userSpaceOnUse"><stop offset="0" stop-color="#877a7a"/><stop offset="1" stop-color="#4f4545"/></linearGradient><linearGradient id="ep" x1="41.65" y1="911.19" x2="41.01" y2="911.45" gradientTransform="translate(1516.81 24647.05) rotate(-180) scale(26.6 26.81)" gradientUnits="userSpaceOnUse"><stop offset="0" stop-color="#877a7a"/><stop offset="1" stop-color="#4f4545"/></linearGradient><mask id="gs" x="291.25" y="332.46" width="362.72" height="457.96" maskUnits="userSpaceOnUse"><g id="gt"><path id="gu" d="M420.54,333.12l55.51,61.06,48.58-61.72c31.12,1.24,51.43,3.7,60.92,7.4,7.01,2.73,13.56,6.62,17.46,11.27,3.21,3.82,5.5,8.44,7.21,11.97,8.05,16.55,22.63,50.84,43.74,102.87l-14.53,10.62-42.6,16.1-19.7,1.41c3.91,52.14,6.71,95.62,8.42,130.44,1.71,34.82,3.59,86.97,5.64,156.47-51.11,6.28-80.81,9.42-89.1,9.42h-46.29c-6.16,0-36.24-3.14-90.26-9.42-.21-69.91-.21-122.06,0-156.47.21-34.41.79-78.35,1.74-131.85h-10.2l-53.41-9.41-12.42-6.69,46.26-106.7c1.63-4.61,4-8.74,7.12-12.4,4.67-5.49,9.32-12.06,19.45-15.88,5.67-2.14,17.11-4.89,19.01-5.31,7.68-1.72,20.17-2.78,37.46-3.17Z" style="fill:#fff; fill-rule:evenodd;"/></g></mask><mask id="gy" x="291.25" y="332.46" width="362.72" height="457.96" maskUnits="userSpaceOnUse"><g id="gz"><path id="ha" d="M420.54,333.12l55.51,61.06,48.58-61.72c31.12,1.24,51.43,3.7,60.92,7.4,7.01,2.73,13.56,6.62,17.46,11.27,3.21,3.82,5.5,8.44,7.21,11.97,8.05,16.55,22.63,50.84,43.74,102.87l-14.53,10.62-42.6,16.1-19.7,1.41c3.91,52.14,6.71,95.62,8.42,130.44,1.71,34.82,3.59,86.97,5.64,156.47-51.11,6.28-80.81,9.42-89.1,9.42h-46.29c-6.16,0-36.24-3.14-90.26-9.42-.21-69.91-.21-122.06,0-156.47.21-34.41.79-78.35,1.74-131.85h-10.2l-53.41-9.41-12.42-6.69,46.26-106.7c1.63-4.61,4-8.74,7.12-12.4,4.67-5.49,9.32-12.06,19.45-15.88,5.67-2.14,17.11-4.89,19.01-5.31,7.68-1.72,20.17-2.78,37.46-3.17Z" style="fill:#fff; fill-rule:evenodd;"/></g></mask><mask id="he" x="291.25" y="332.46" width="362.72" height="457.96" maskUnits="userSpaceOnUse"><g id="hf"><path id="hg" d="M420.54,333.12l55.51,61.06,48.58-61.72c31.12,1.24,51.43,3.7,60.92,7.4,7.01,2.73,13.56,6.62,17.46,11.27,3.21,3.82,5.5,8.44,7.21,11.97,8.05,16.55,22.63,50.84,43.74,102.87l-14.53,10.62-42.6,16.1-19.7,1.41c3.91,52.14,6.71,95.62,8.42,130.44,1.71,34.82,3.59,86.97,5.64,156.47-51.11,6.28-80.81,9.42-89.1,9.42h-46.29c-6.16,0-36.24-3.14-90.26-9.42-.21-69.91-.21-122.06,0-156.47.21-34.41.79-78.35,1.74-131.85h-10.2l-53.41-9.41-12.42-6.69,46.26-106.7c1.63-4.61,4-8.74,7.12-12.4,4.67-5.49,9.32-12.06,19.45-15.88,5.67-2.14,17.11-4.89,19.01-5.31,7.68-1.72,20.17-2.78,37.46-3.17Z" style="fill:#fff; fill-rule:evenodd;"/></g></mask><mask id="jf" x="329.69" y="350.56" width="306.84" height="387.34" maskUnits="userSpaceOnUse"><g id="jg"><g id="jh"><path id="ji" d="M439.07,351.12l46.96,51.64,41.1-52.2c26.33,1.04,43.51,3.13,51.54,6.26,5.93,2.31,11.47,5.59,14.77,9.53,2.71,3.23,4.65,7.14,6.1,10.13,6.81,14,19.14,43,37,87l-12.3,8.98-36.03,13.62-16.67,1.19c3.3,44.1,5.68,80.88,7.12,110.32,1.44,29.45,3.03,73.56,4.77,132.34-43.23,5.31-68.36,7.97-75.38,7.97h-39.16c-5.21,0-30.66-2.66-76.36-7.97-.17-59.13-.17-103.24,0-132.34.17-29.1.67-66.27,1.47-111.51h-8.63l-45.18-7.96-10.5-5.66,39.13-90.25c1.38-3.9,3.39-7.39,6.02-10.49,3.95-4.64,7.89-10.2,16.45-13.43,4.8-1.81,14.48-4.13,16.08-4.49,6.5-1.46,17.06-2.35,31.69-2.68h0Z" style="fill:#fff; fill-rule:evenodd;"/></g></g></mask><mask id="kv" x="498.48" y="432.82" width="47.34" height="24.29" maskUnits="userSpaceOnUse"><g id="kw"><g id="kx"><path id="ky" d="M498.91,438.69c.67-.08,7.4-.65,8.19-.74-.4.94-6.21,16.61-7.06,18.47l.15.23c1.02-.13,44.16-5.34,44.74-5.41l-.45-4.46c-.64.18-35.37,4.14-36.74,4.31.22-.47,6.94-16.85,7.38-18.04l-.12-.23c-1.1.06-15.46,1.6-16.52,1.59l.43,4.29h0Z" style="fill:#fff; fill-rule:evenodd;"/></g></g></mask><mask id="lh" x="542.06" y="435.25" width="11.49" height="15.83" maskUnits="userSpaceOnUse"><g id="li"><g id="lj"><path id="lk" d="M552.57,446.61c-1.1.04-4.62-.12-5.23-.14l.08-2.37c.51.02,3.62.21,4.25.23l.04-3.21c-1.03.05-3.72.05-4.18.04l.09-2.65c.42.02,4.09.04,4.95.07l.02-3.33c-.87.03-8.72.06-10.02.01,0,.58-.12,5.44-.13,5.76l-.1,2.69c-.02.46-.17,4.73-.27,5.79,1.21.04,9.63.54,10.47.57l.03-3.45h0Z" style="fill:#fff; fill-rule:evenodd;"/></g></g></mask><radialGradient id="lv" cx="-294.97" cy="93.25" fx="-294.97" fy="93.25" r=".08" gradientTransform="translate(32650.39 -9716.21) scale(108.93)" gradientUnits="userSpaceOnUse"><stop offset="0" stop-color="#fff"/><stop offset=".09" stop-color="#f8fcfe"/><stop offset=".23" stop-color="#e5f5fb"/><stop offset=".39" stop-color="#c5e9f7"/><stop offset=".57" stop-color="#9ad8f1"/><stop offset=".77" stop-color="#62c3ea"/><stop offset=".98" stop-color="#1faae2"/></radialGradient><radialGradient id="mh" cx="-294.95" cy="93.31" fx="-294.95" fy="93.31" r=".08" gradientTransform="translate(32762.66 -9758.23) scale(109.32)" xlink:href="#lv"/></defs><g style="isolation:isolate;"><g id="a"><g id="b"><g id="c"><g id="d"><g id="e"><g id="f"><g id="g"><g id="h"><path id="i" d="M128.94,453.71c3.6-2.59,8.85-3.88,15.76-3.88s12.15,1.29,15.76,3.88v483.23c-3,2.59-8.25,3.88-15.76,3.88s-12.75-1.29-15.76-3.88v-483.23Z" style="fill:#264556; fill-rule:evenodd; stroke:#000; stroke-width:1.8px;"/></g><g style="mask:url(#j);"><rect id="m" x="120.83" y="442.1" width="20.71" height="505.93" style="fill:#527284;"/></g><g id="n"><path id="o" d="M128.94,445.77c3.6-2.63,8.85-3.95,15.76-3.95s12.15,1.32,15.76,3.95v491.11c-3,2.63-8.25,3.95-15.76,3.95s-12.75-1.32-15.76-3.95v-491.11Z" style="fill:none; stroke:#000; stroke-width:1.8px;"/></g></g><g id="p"><g id="q"><g id="r"><g id="s"><circle id="t" cx="101.93" cy="943.53" r="20.26" style="fill:#264556; stroke:#000; stroke-width:.9px;"/><circle id="u" cx="101.48" cy="943.08" r="9.9" style="fill:#527284; stroke:#000; stroke-width:.9px;"/></g><polygon id="v" points="120.83 915.62 79.19 924.64 79.19 931.58 145.14 931.58 145.14 914.72 120.83 915.62" style="fill:#264556; fill-rule:evenodd; stroke:#000; stroke-width:1.8px;"/></g><g id="w"><g id="x"><circle id="y" cx="188.12" cy="943.53" r="20.26" style="fill:#264556; stroke:#000; stroke-width:.9px;"/><circle id="z" cx="188.57" cy="943.08" r="9.9" style="fill:#527284; stroke:#000; stroke-width:.9px;"/></g><polygon id="aa" points="169.22 915.62 210.87 924.64 210.87 931.58 144.91 931.58 144.91 914.72 169.22 915.62" style="fill:#264556; fill-rule:evenodd; stroke:#000; stroke-width:1.8px;"/></g><g id="ab"><circle id="ac" cx="145.14" cy="953.43" r="25.66" style="fill:#264556; stroke:#000; stroke-width:.9px;"/><circle id="ad" cx="144.69" cy="952.98" r="12.6" style="fill:#527284; stroke:#000; stroke-width:.9px;"/></g></g><polygon id="ae" points="131.19 914.72 158.65 914.72 172.79 927.33 172.79 940.83 117.48 940.83 117.48 927.78 131.19 914.72" style="fill:#264556; fill-rule:evenodd; stroke:#000; stroke-width:1.8px;"/><rect id="af" x="120.83" y="902.43" width="46.82" height="13.5" rx="1.8" ry="1.8" style="fill:#264556; stroke:#000; stroke-width:1.8px;"/></g></g><g id="ag"><g id="ah"><rect id="ai" x=".43" y="298.97" width="292.14" height="155.14" rx="19.2" ry="19.2" style="fill:#b9d6de; stroke:#000; stroke-width:.86px;"/><rect id="aj" x="13.38" y="316.25" width="266.24" height="121.06" rx="19.2" ry="19.2" style="fill:#a8c2c9; stroke:#000; stroke-width:.86px;"/></g><g id="ak"><ellipse id="al" cx="146.26" cy="376.3" rx="51.01" ry="51.06" style="fill:#cee5eb; stroke:#000; stroke-width:.6px;"/><g id="am"><g id="an"><ellipse id="ao" cx="110.53" cy="358.78" rx="5.21" ry="5.22" style="fill:#65797e; stroke:#000; stroke-width:.6px;"/><ellipse id="ap" cx="110.53" cy="375.58" rx="5.21" ry="5.22" style="fill:#65797e; stroke:#000; stroke-width:.6px;"/><ellipse id="aq" cx="110.53" cy="392.38" rx="5.21" ry="5.22" style="fill:#65797e; stroke:#000; stroke-width:.6px;"/></g><g id="ar"><ellipse id="as" cx="128.28" cy="358.78" rx="5.21" ry="5.22" style="fill:#65797e; stroke:#000; stroke-width:.6px;"/><ellipse id="at" cx="128.28" cy="375.58" rx="5.21" ry="5.22" style="fill:#65797e; stroke:#000; stroke-width:.6px;"/><ellipse id="au" cx="128.28" cy="392.38" rx="5.21" ry="5.22" style="fill:#65797e; stroke:#000; stroke-width:.6px;"/></g><g id="av"><ellipse id="aw" cx="146.5" cy="358.78" rx="5.21" ry="5.22" style="fill:#65797e; stroke:#000; stroke-width:.6px;"/><ellipse id="ax" cx="146.5" cy="375.58" rx="5.21" ry="5.22" style="fill:#65797e; stroke:#000; stroke-width:.6px;"/><ellipse id="ay" cx="146.5" cy="392.38" rx="5.21" ry="5.22" style="fill:#65797e; stroke:#000; stroke-width:.6px;"/></g><g id="az"><ellipse id="ba" cx="164.72" cy="358.78" rx="5.21" ry="5.22" style="fill:#65797e; stroke:#000; stroke-width:.6px;"/><ellipse id="bb" cx="164.72" cy="375.58" rx="5.21" ry="5.22" style="fill:#65797e; stroke:#000; stroke-width:.6px;"/><ellipse id="bc" cx="164.72" cy="392.38" rx="5.21" ry="5.22" style="fill:#65797e; stroke:#000; stroke-width:.6px;"/></g><g id="bd"><ellipse id="be" cx="182.47" cy="358.78" rx="5.21" ry="5.22" style="fill:#65797e; stroke:#000; stroke-width:.6px;"/><ellipse id="bf" cx="182.47" cy="375.58" rx="5.21" ry="5.22" style="fill:#65797e; stroke:#000; stroke-width:.6px;"/><ellipse id="bg" cx="182.47" cy="392.38" rx="5.21" ry="5.22" style="fill:#65797e; stroke:#000; stroke-width:.6px;"/></g></g></g><g id="bh"><rect id="bi" x="22.84" y="325.24" width="31.05" height="102.12" rx="8.16" ry="8.16" style="fill:#cee5eb; stroke:#000; stroke-width:.6px;"/><ellipse id="bj" cx="37.88" cy="342.7" rx="6.89" ry="6.9" style="fill:#65797e; stroke:#000; stroke-width:.6px;"/><ellipse id="bk" cx="37.88" cy="363.82" rx="6.89" ry="6.9" style="fill:#65797e; stroke:#000; stroke-width:.6px;"/><ellipse id="bl" cx="37.88" cy="384.94" rx="6.89" ry="6.9" style="fill:#65797e; stroke:#000; stroke-width:.6px;"/><ellipse id="bm" cx="37.88" cy="406.06" rx="6.89" ry="6.9" style="fill:#65797e; stroke:#000; stroke-width:.6px;"/></g><g id="bn"><rect id="bo" x="239.11" y="325.24" width="31.05" height="102.12" rx="8.16" ry="8.16" style="fill:#cee5eb; stroke:#000; stroke-width:.6px;"/><ellipse id="bp" cx="254.16" cy="342.7" rx="6.89" ry="6.9" style="fill:#65797e; stroke:#000; stroke-width:.6px;"/><ellipse id="bq" cx="254.16" cy="363.82" rx="6.89" ry="6.9" style="fill:#65797e; stroke:#000; stroke-width:.6px;"/><ellipse id="br" cx="254.16" cy="384.94" rx="6.89" ry="6.9" style="fill:#65797e; stroke:#000; stroke-width:.6px;"/><ellipse id="bs" cx="254.16" cy="406.06" rx="6.89" ry="6.9" style="fill:#65797e; stroke:#000; stroke-width:.6px;"/></g><g id="bt"><rect id="bu" x="58.8" y="325.24" width="31.53" height="102.12" rx="8.64" ry="8.64" style="fill:#cee5eb; stroke:#000; stroke-width:.6px;"/><ellipse id="bv" cx="74.57" cy="341.02" rx="5.21" ry="5.22" style="fill:#65797e; stroke:#000; stroke-width:.6px;"/><ellipse id="bw" cx="74.57" cy="358.78" rx="5.21" ry="5.22" style="fill:#65797e; stroke:#000; stroke-width:.6px;"/><ellipse id="bx" cx="74.57" cy="376.54" rx="5.21" ry="5.22" style="fill:#65797e; stroke:#000; stroke-width:.6px;"/><ellipse id="by" cx="74.57" cy="394.3" rx="5.21" ry="5.22" style="fill:#65797e; stroke:#000; stroke-width:.6px;"/><ellipse id="bz" cx="74.57" cy="412.06" rx="5.21" ry="5.22" style="fill:#65797e; stroke:#000; stroke-width:.6px;"/></g><g id="ca"><rect id="cb" x="202.19" y="325.24" width="31.53" height="102.12" rx="8.64" ry="8.64" style="fill:#cee5eb; stroke:#000; stroke-width:.6px;"/><ellipse id="cc" cx="217.95" cy="341.02" rx="5.21" ry="5.22" style="fill:#65797e; stroke:#000; stroke-width:.6px;"/><ellipse id="cd" cx="217.95" cy="358.78" rx="5.21" ry="5.22" style="fill:#65797e; stroke:#000; stroke-width:.6px;"/><ellipse id="ce" cx="217.95" cy="376.54" rx="5.21" ry="5.22" style="fill:#65797e; stroke:#000; stroke-width:.6px;"/><ellipse id="cf" cx="217.95" cy="394.3" rx="5.21" ry="5.22" style="fill:#65797e; stroke:#000; stroke-width:.6px;"/><ellipse id="cg" cx="217.95" cy="412.06" rx="5.21" ry="5.22" style="fill:#65797e; stroke:#000; stroke-width:.6px;"/></g><path id="ch" d="M115.32,311.88l.28-1.34h-3.94l.33-1.67h3.36s.26-1.3.26-1.3h-3.35l.31-1.57h3.78l.28-1.34h-5.45l-1.44,7.22h5.59ZM122.21,311.88l.28-1.34h-3.94l.33-1.67h3.36s.26-1.3.26-1.3h-3.35l.31-1.57h3.78l.28-1.34h-5.45l-1.44,7.22h5.59ZM127.3,312.01c.52,0,1.02-.08,1.5-.23.48-.15.9-.37,1.26-.65h0l.6-2.97h-1.53l-.43,2.17-.07.03h0l-.13.05c-.32.12-.65.18-.99.18-.45,0-.84-.08-1.15-.23-.31-.15-.55-.36-.71-.63s-.24-.59-.24-.95c0-.4.07-.77.2-1.11.13-.34.32-.64.56-.89.24-.25.53-.45.87-.59.34-.14.72-.21,1.15-.21s.76.06,1.07.19c.31.12.58.33.82.62h0l1.2-.97c-.31-.41-.72-.72-1.22-.93s-1.1-.33-1.79-.33-1.3.11-1.86.33-1.03.52-1.43.91-.71.85-.92,1.38c-.22.53-.32,1.1-.32,1.71s.15,1.16.44,1.64.7.84,1.24,1.1c.53.26,1.16.4,1.89.4ZM132.65,311.88l1.07-5.33,1.8,4.45h.47l3.41-4.35-1.05,5.23h.99l1.44-7.22h-.89l-3.95,5.08-2.01-5.08h-.84l-1.44,7.22h.99ZM144.95,311.97c.67,0,1.27-.11,1.81-.34.54-.22,1-.53,1.39-.93.38-.4.68-.86.89-1.39.21-.53.31-1.09.31-1.69s-.13-1.14-.4-1.59c-.26-.46-.65-.81-1.16-1.07-.51-.25-1.12-.38-1.85-.38-.67,0-1.27.11-1.8.34-.54.22-1,.53-1.38.93-.38.4-.68.86-.89,1.39-.21.53-.31,1.09-.31,1.69s.13,1.14.4,1.59c.26.46.65.81,1.16,1.07.51.25,1.12.38,1.84.38ZM145.05,311.05c-.54,0-.98-.09-1.35-.28-.36-.19-.64-.44-.82-.77-.19-.33-.28-.71-.28-1.14s.08-.88.23-1.29.37-.77.65-1.08c.29-.31.63-.56,1.03-.73.4-.18.85-.26,1.36-.26.53,0,.98.09,1.34.28.36.19.64.44.82.77.19.33.28.71.28,1.14s-.08.88-.23,1.29-.37.77-.65,1.08c-.28.31-.63.56-1.03.73s-.86.26-1.35.26ZM151.14,311.88l1.1-5.56,3.23,5.56h.85l1.44-7.22h-1.03l-1.1,5.56-3.23-5.56h-.85l-1.44,7.22h1.03ZM159.48,311.88l1.44-7.22h-1.03l-1.44,7.22h1.03ZM164.07,311.88l1.27-6.33h2.46l.19-.9h-5.97l-.18.9h2.46l-1.26,6.33h1.02ZM171,311.97c.67,0,1.27-.11,1.81-.34.54-.22,1-.53,1.39-.93.38-.4.68-.86.89-1.39.21-.53.31-1.09.31-1.69s-.13-1.14-.4-1.59c-.26-.46-.65-.81-1.16-1.07-.51-.25-1.12-.38-1.85-.38-.67,0-1.27.11-1.8.34-.54.22-1,.53-1.38.93-.38.4-.68.86-.89,1.39-.21.53-.31,1.09-.31,1.69s.13,1.14.4,1.59c.26.46.65.81,1.16,1.07.51.25,1.12.38,1.84.38ZM171.1,311.05c-.54,0-.98-.09-1.35-.28-.36-.19-.64-.44-.82-.77-.19-.33-.28-.71-.28-1.14s.08-.88.23-1.29.37-.77.65-1.08c.29-.31.63-.56,1.03-.73.4-.18.85-.26,1.36-.26.53,0,.98.09,1.34.28.36.19.64.44.82.77.19.33.28.71.28,1.14s-.08.88-.23,1.29-.37.77-.65,1.08c-.28.31-.63.56-1.03.73s-.86.26-1.35.26ZM177.2,311.88l.43-2.21h1.93c.06,0,.13,0,.19,0h.01s1.25,2.21,1.25,2.21h1.09l-1.32-2.35.15-.04c.1-.03.2-.06.3-.1l.14-.06c.51-.23.9-.56,1.17-1,.27-.43.41-.95.41-1.56,0-.67-.23-1.19-.7-1.56-.46-.37-1.12-.56-1.96-.56h-2.69l-1.44,7.22h1.04ZM178.46,305.56h1.74c.56,0,.98.11,1.28.33s.44.55.44.98c0,.63-.2,1.11-.61,1.44-.41.33-.98.49-1.72.49h-1.78s.65-3.24.65-3.24Z" style="fill:#717171;"/></g></g><g id="ci"><g id="cj"><g id="ck"><path id="cl" d="M562.05,278v163.99c-12.29,150.27-79.68,225.4-202.18,225.4s-183.56-91.75-183.18-275.25c1.21-3.52,3.05-5.28,5.52-5.28s4.31,1.84,5.51,5.52c-2.25,175.7,55.52,263.54,173.33,263.54,59.84,0,135.07-32.38,166.83-97.39,20.51-41.98,28.29-135.49,23.33-280.54h10.84Z" style="fill:#ffd761; fill-rule:evenodd; stroke:#000;"/><path id="cm" d="M544.05,278v163.99c-12.29,150.27-79.68,225.4-202.18,225.4s-183.56-91.75-183.18-275.25c1.21-3.52,3.05-5.28,5.52-5.28s4.31,1.84,5.51,5.52c-2.25,175.7,55.52,263.54,173.33,263.54,59.84,0,135.07-32.38,166.83-97.39,20.51-41.98,28.29-135.49,23.33-280.54h10.84Z" style="fill:#93e3fa; fill-rule:evenodd; stroke:#000;"/><path id="cn" d="M526.05,278v163.99c-12.29,150.27-79.68,225.4-202.18,225.4s-183.56-91.75-183.18-275.25c1.21-3.52,3.05-5.28,5.52-5.28s4.31,1.84,5.51,5.52c-2.25,175.7,55.52,263.54,173.33,263.54,59.84,0,135.07-32.38,166.83-97.39,20.51-41.98,28.29-135.49,23.33-280.54h10.84Z" style="fill:#ff94c6; fill-rule:evenodd; stroke:#000;"/><path id="co" d="M508.05,278v163.99c-12.29,150.27-79.68,225.4-202.18,225.4s-183.56-91.75-183.18-275.25c1.21-3.52,3.05-5.28,5.52-5.28s4.31,1.84,5.51,5.52c-2.25,175.7,55.52,263.54,173.33,263.54,59.84,0,135.07-32.38,166.83-97.39,20.51-41.98,28.29-135.49,23.33-280.54h10.84Z" style="fill:#f77; fill-rule:evenodd; stroke:#000;"/><path id="cp" d="M490.05,278v163.99c-12.29,150.27-79.68,225.4-202.18,225.4s-183.56-91.75-183.18-275.25c1.21-3.52,3.05-5.28,5.52-5.28s4.31,1.84,5.51,5.52c-2.25,175.7,55.52,263.54,173.33,263.54,59.84,0,135.07-32.38,166.83-97.39,20.51-41.98,28.29-135.49,23.33-280.54h10.84Z" style="fill:#97ff90; fill-rule:evenodd; stroke:#000;"/></g><g id="cq"><path id="cr" d="M519.69,260v163.99c-11.15,150.27-72.3,225.4-183.46,225.4s-164.33-91.75-159.54-275.25c1.44-3.52,3.27-5.28,5.51-5.28s4.08,1.84,5.51,5.52c-7.17,175.7,42.69,263.54,149.58,263.54,54.3,0,122.56-32.38,151.38-97.39,18.61-41.98,1.49-135.49-51.37-280.54h82.38Z" style="fill:#ff94c6; fill-rule:evenodd; stroke:#000;"/><path id="cs" d="M503.35,260v163.99c-11.15,150.27-72.3,225.4-183.46,225.4s-164.8-91.75-160.95-275.25c1.44-3.52,3.27-5.28,5.51-5.28s4.08,1.84,5.51,5.52c-6.23,175.7,44.1,263.54,150.99,263.54,54.3,0,122.56-32.38,151.38-97.39,18.61-41.98,25.67-135.49,21.17-280.54h9.84Z" style="fill:#f77; fill-rule:evenodd; stroke:#000;"/><path id="ct" d="M487.02,260v163.99c-11.15,150.27-72.3,225.4-183.46,225.4s-165.43-91.75-162.84-275.25c1.44-3.52,3.27-5.28,5.51-5.28s4.08,1.84,5.51,5.52c-4.97,175.7,45.99,263.54,152.88,263.54,54.3,0,122.56-32.38,151.38-97.39,18.61-41.98,25.67-135.49,21.17-280.54h9.84Z" style="fill:#97ff90; fill-rule:evenodd; stroke:#000;"/><path id="cu" d="M470.69,260v163.99c-11.15,150.27-72.3,225.4-183.46,225.4s-166-91.75-164.55-275.25c1.19-3.52,2.9-5.28,5.14-5.28s3.98,1.84,5.22,5.52c-3.39,175.7,48.36,263.54,155.25,263.54,54.3,0,122.56-32.38,151.38-97.39,18.61-41.98,25.67-135.49,21.17-280.54h9.84Z" style="fill:#93e3fa; fill-rule:evenodd; stroke:#000;"/><path id="cv" d="M454.36,260v163.99c-11.15,150.27-72.3,225.4-183.46,225.4s-166.22-91.75-165.22-275.25c1.25-3.52,2.99-5.28,5.23-5.28s3.87,1.84,4.88,5.52c-2.77,175.7,49.29,263.54,156.18,263.54,54.3,0,122.56-32.38,151.38-97.39,18.61-41.98,25.67-135.49,21.17-280.54h9.84Z" style="fill:#ffd761; fill-rule:evenodd; stroke:#000;"/></g><g id="cw"><path id="cx" d="M448.74,244.54v163.83c-9.22,150.11-59.81,225.17-151.77,225.17s-132.05-91.66-120.28-274.97c.69-3.52,2.53-5.27,5.51-5.27s4.82,1.84,5.51,5.51c-15.01,175.52,21.7,263.28,110.14,263.28,44.92,0,101.39-32.35,125.23-97.29,15.4-41.94,21.24-135.36,17.53-280.25h8.12Z" style="fill:#93e3fa; fill-rule:evenodd; stroke:#000;"/><path id="cy" d="M434.74,244.54v163.83c-9.22,150.11-59.8,225.17-151.73,225.17s-133.28-91.66-124.07-274.97c.61-3.52,2.45-5.27,5.51-5.27s4.9,1.84,5.51,5.51c-12.46,175.52,25.52,263.28,113.92,263.28,44.91,0,101.36-32.35,125.19-97.29,15.39-41.94,21.23-135.36,17.51-280.25h8.14Z" style="fill:#ffd761; fill-rule:evenodd; stroke:#000;"/><path id="cz" d="M421.74,244.54v163.83c-9.24,150.11-59.91,225.17-152,225.17s-135.1-91.66-129.01-274.97c.22-3.52,2.06-5.27,5.51-5.27s5.3,1.84,5.51,5.51c-9.32,175.52,30.3,263.28,118.87,263.28,44.99,0,101.55-32.35,125.42-97.29,15.42-41.94,21.27-135.36,17.54-280.25h8.15Z" style="fill:#ff94c6; fill-rule:evenodd; stroke:#000;"/><path id="da" d="M407.74,244.54v163.83c-9.23,150.11-59.83,225.17-151.81,225.17s-136.39-91.66-133.24-274.97c.6-3.52,2.38-5.27,5.33-5.27s4.79,1.84,5.51,5.51c-6.27,175.52,34.83,263.28,123.28,263.28,44.93,0,101.42-32.35,125.27-97.29,15.4-41.94,21.24-135.36,17.52-280.25h8.14Z" style="fill:#97ff90; fill-rule:evenodd; stroke:#000;"/><path id="db" d="M394.74,244.54v163.83c-9.24,150.11-59.93,225.17-152.05,225.17s-138.1-91.66-137.93-274.97c.61-3.52,2.39-5.27,5.33-5.27s4.84,1.84,5.7,5.51c-3.41,175.52,39.19,263.28,127.78,263.28,45,0,101.58-32.35,125.46-97.29,15.42-41.94,21.27-135.36,17.55-280.25h8.16Z" style="fill:#f77; fill-rule:evenodd; stroke:#000;"/></g></g><g id="dc"><g id="dd"><g id="de"><g id="df"><g id="dg"><path id="dh" d="M436.06,292.93h78.98v64.9c-13.88,12.72-27.14,19.09-39.79,19.09s-25.71-6.36-39.19-19.09v-64.9Z" style="fill:#d0885f; fill-rule:evenodd;"/></g><g style="mask:url(#di);"><path id="dl" d="M420.54,276h101.55l1.6,28.86c-14.72,18.4-30.59,27.6-47.61,27.6s-35.06-9.2-54.12-27.6l-1.41-28.86Z" style="fill-rule:evenodd; isolation:isolate; mix-blend-mode:multiply; opacity:.43;"/></g></g><g id="dm"><g id="dn"><path id="do" d="M481.49,8.86c-80.74,0-120.57,37.18-140.74,67.6-12.88,19.42-16.4,43.61-12.21,71.02,2,13.08,9.44,38.09,12.21,46.86,2.77,8.77,39.67,91.15,61.12,78.22,15.12-9.11,36.17-62.45,63.16-160.01l12.65-23.49,66.77,33.76,5.95,163.29v-2.2c41.48-39.62,66.47-71.79,74.96-96.5,2.85-8.29,4.82-11.02,8.62-26.84,3.8-15.82-.14-56.66-22.4-91.03-7.93-12.25-16.69-29.31-37.35-38.88-20.66-9.57-37.25-10.45-51.46-13.46-13.84-2.93-27.99-8.33-41.28-8.33Z" style="fill-rule:evenodd;"/></g><g id="dp"><path id="dq" d="M365.76,202.57c-8.08-1.95-14.06.59-17.96,7.64-5.84,10.57-2.75,34.08,15.85,34.08,12.4,0,13.1-13.91,2.11-41.72Z" style="fill:#d28669; fill-rule:evenodd;"/><path id="dr" d="M359.84,231.26c3.16-3.92,3.72-8.03,1.67-12.32-2.05-4.29-5.41-5.58-10.07-3.88" style="fill:none; stroke:#4c250f; stroke-linecap:round; stroke-width:1.41px;"/></g><g id="ds"><path id="dt" d="M593.18,198.97c8.08-1.95,14.06.59,17.96,7.64,5.84,10.57,2.75,34.08-15.85,34.08-12.4,0-13.1-13.91-2.11-41.72Z" style="fill:#d28669; fill-rule:evenodd;"/><path id="du" d="M594.06,228.2c-3.16-3.92-3.72-8.03-1.67-12.32,2.05-4.29,5.41-5.58,10.07-3.88" style="fill:none; stroke:#4c250f; stroke-linecap:round; stroke-width:1.41px;"/></g><g id="dv"><path d="M359.06,190.95c10.09,46.3,19.65,75.43,28.69,87.41,13.56,17.97,76.65,37.29,90.59,37.29s71.2-21.09,87.71-37.29c16.51-16.19,30.03-85.5,30.03-99.49s1.55-104.71-123.93-104.71c-83.65,0-121.34,38.93-113.08,116.79Z" style="fill:#d0885f; fill-rule:evenodd;"/></g><path id="dw" d="M361.54,201.93l-.62-5.65c-4.23-40.53,11.37-67.89,46.8-82.07,10.77-4.31,34.56-12.11,55.97-15.64,22.39-3.69,45.43-5.53,69.13-5.53-2.23-2.79,7.34,8.07,28.72,32.57,11.8,13.52,30.45,32.92,33.23,47.7,2.08,11.08,2.08,18.09,0,21.02h2.86l13.95-31.72-57.03-103.1-156.58-13.48-44.21,70.92-5.55,49.78,13.33,35.19Z" style="fill-rule:evenodd;"/><g id="dx"><path id="dy" d="M464.05,295.97c4.76,1.88,8.78,2.82,12.06,2.82s7.73-.94,13.35-2.82" style="fill:none; stroke:#4c250f; stroke-width:1.41px;"/></g><g id="dz"><g id="ea"><g id="eb"><path id="ec" d="M441.31,272.58c15.81,1.57,27.69,2.35,35.65,2.35s19.62-.78,34.99-2.35c-16.27,9.95-27.94,14.92-34.99,14.92s-18.93-4.97-35.65-14.92Z" style="fill:#fff; fill-rule:evenodd; stroke:#69381d; stroke-width:1.41px;"/></g><g id="ed"><g id="ee"><g id="ef"><ellipse id="eg" cx="530.72" cy="212.77" rx="16.81" ry="15.52" style="fill:#f4f4f4;"/><ellipse id="ei" cx="527.92" cy="211.36" rx="13.3" ry="13.4" style="fill:url(#eh); stroke:#000; stroke-width:1.41px;"/><ellipse id="ej" cx="527.92" cy="209.95" rx="8.4" ry="9.88"/><ellipse id="ek" cx="529.32" cy="204.31" rx="4.2" ry="4.23" style="fill:#fff;"/></g><path id="el" d="M513.91,214.26c-.05-2.11.37-4.16,1.24-6.15,3.08-7.03,8.63-10.23,16.55-10.23s12.49,2.15,16.45,9.01c1.45,2.51,2.17,5.15,2.17,7.93" style="fill:none; stroke:#000; stroke-linecap:round; stroke-width:2.83px;"/></g><g id="em"><g id="en"><ellipse id="eo" cx="424.26" cy="212.77" rx="16.81" ry="15.52" style="fill:#f4f4f4;"/><ellipse id="eq" cx="427.06" cy="211.36" rx="13.3" ry="13.4" style="fill:url(#ep); stroke:#000; stroke-width:1.41px;"/><ellipse id="er" cx="427.06" cy="209.95" rx="8.4" ry="9.88"/><ellipse id="es" cx="425.66" cy="204.31" rx="4.2" ry="4.23" style="fill:#fff;"/></g><path id="et" d="M441.07,214.26c.05-2.11-.37-4.16-1.24-6.15-3.08-7.03-8.63-10.23-16.55-10.23s-12.49,2.15-16.45,9.01c-1.45,2.51-2.17,5.15-2.17,7.93" style="fill:none; stroke:#000; stroke-linecap:round; stroke-width:2.83px;"/></g></g><g id="eu"><g id="ev"><path id="ew" d="M448.79,179.53c.45.89.47,2.44.05,4.65-.62,3.32-3.58,3.19-5.17,2.88-18.07-3.57-26.6-5.44-32.17-4.46s-9.47,3.33-19.02,8.28c-1.3.67-2.67,1.77-3.16,1.49-.49-.28.85-1.71,1.85-2.67,8.9-8.53,12.79-11.73,18.86-13.36,6.07-1.63,18.78-2.43,29.89.62.95.26,3.9,1.12,8.86,2.59Z" style="fill-rule:evenodd;"/></g><g id="ex"><path id="ey" d="M505.46,179.1c-.46.88-.51,2.43-.15,4.64.55,3.32,3.46,3.24,5.02,2.95,17.86-3.3,26.28-5.05,31.74-3.99s9.25,3.47,18.54,8.54c1.27.69,2.59,1.8,3.08,1.53.49-.27-.8-1.72-1.77-2.7-8.59-8.65-12.35-11.91-18.29-13.62-5.94-1.72-18.43-2.7-29.42.19-.94.25-3.86,1.07-8.77,2.46Z" style="fill-rule:evenodd;"/></g></g></g></g><g id="ez"><path id="fa" d="M455.67,250.99c-1.61,3.95,2,5.81,9.7,7.96,2.58.72,6.22,3.22,10.18,3.32,3.64.09,8.59-3.39,13.32-3.95" style="fill:none; stroke:#4c250f; stroke-linecap:round; stroke-width:1.41px;"/><path id="fb" d="M496.89,250.99c1.62,3.95-2.01,5.81-9.72,7.96-2.59.72-6.23,3.22-10.21,3.32-3.65.09-8.53-3.33-13.28-3.89" style="fill:none; stroke:#4c250f; stroke-linecap:round; stroke-width:1.41px;"/><path id="fc" d="M458.09,256.63c8.26,5.64,14.39,8.46,18.38,8.46s9.99-2.6,18-7.8l-6.39,1.68-9.17,3.36h-3.99l-8.56-3.36-8.27-2.34Z" style="fill:#664429; fill-rule:evenodd;"/></g></g><g id="fd"><path d="M479.54,332.43c45.22.04,58.42.65,70.07,1.62l.9.08c2.84.24,5.63.51,8.82.79,16.97,1.51,28.02,4.89,33.59,7.96,17.39,9.58,12.94,35.96,3.17,59-9.77,23.04-18.56,23.04-18.56,35.71v83.05c0,15.4,1.87,47.46,5.62,96.19l.11,1.48c.88,11.46-6.98,21.75-18.26,23.91-39.27,7.51-67.75,11.54-85.45,12.09v.06s-.14,0-.14,0c-.63,0-1.27,0-1.93-.02-.66.01-1.3.02-1.93.02h-.14s0-.07,0-.07c-17.7-.55-46.18-4.58-85.45-12.09-11.29-2.16-19.15-12.45-18.26-23.91h0l.11-1.48c3.75-48.73,5.62-80.79,5.62-96.19v-83.05c0-12.66-8.79-12.66-18.56-35.71-9.77-23.04-14.22-49.42,3.17-59,5.57-3.07,16.62-6.45,33.59-7.96,16.57-1.47,22.33-2.44,79.78-2.49h0s4.13,0,4.13,0Z" style="fill:#d0885f; fill-rule:evenodd;"/></g><g id="fe"><path id="ff" d="M577.62,551.56c1.09,10.46,8.38,66.35,7.92,81.85-1,33.42-3.76,79.61-8.27,138.58-.14-7.51-4.15,18.42-27.52,18.42-15.86,0-27.33-9.16-34.42-27.47l.18.45-.06.28c-.21.93-.44,1.88-.67,2.86l-.06.26c1.25-5.33,2.42-9.36,1.61-17.22-1-9.64-3.4-27.25-7.19-52.83l-16.64-114.36c-1.62-11.15,5.23-21.79,16.05-24.93l48.71-14.13c3.52-1.02,6.74-2.89,9.38-5.43,5.8-5.59,9.46-1.04,11,13.66Z" style="fill:#b56649; fill-rule:evenodd;"/><path id="fg" d="M550.75,738.77c23.4,0,26.42,23.97,26.51,33.22-2.46,32.1-5.43,67.99-8.93,107.67-.92,10.49-8.98,18.95-19.42,20.38l-4.58.63c-11.87,1.63-22.81-6.67-24.44-18.54-.04-.31-.08-.62-.11-.93-4.82-51.46-7.22-83.19-7.22-95.18,0-10.91,1.49-16.43,2.65-21.4l.14-.61c.12-.5.23-1,.33-1.5l.11-.55h0c7.76-15.47,19.41-23.2,34.94-23.2Z" style="fill:#d0885f; fill-rule:evenodd;"/><path id="fh" d="M519.25,893.94c-.07,7.43,1.25,22.73,4.74,29.28,5.56,10.43,18.29,10.23,27.42,24.37,14.87,23.02,26.77,27.22,36.93,28.56,10.17,1.34,22.29-6.88,23.9-8.44,5.8-5.62,6.08-6.96,7.35-18.03.96-8.37-8.89-17.38-11.95-22.48-2.11-3.52-3.42-3.43-12.39-11.25-13.46-11.74-22.35-26.57-26.67-44.51-.23-.94.93-21.1-27.2-18.7-13.55,1.16-20.64,12.06-22.13,21.3-.84,5.19.03,17.12,0,19.9Z" style="fill:#d0885f; fill-rule:evenodd;"/></g><g id="fi"><path id="fj" d="M375.81,551.56c-1.09,10.46-8.38,66.35-7.92,81.85,1,33.42,3.76,79.61,8.27,138.58.14-7.51,4.15,18.42,27.52,18.42,15.86,0,27.33-9.16,34.42-27.47l-.18.45.06.28c.21.93.44,1.88.67,2.86l.06.26c-1.25-5.33-2.42-9.36-1.61-17.22,1-9.64,3.4-27.25,7.19-52.83l16.64-114.36c1.62-11.15-5.23-21.79-16.05-24.93l-48.71-14.13c-3.52-1.02-6.74-2.89-9.38-5.43-5.8-5.59-9.46-1.04-11,13.66Z" style="fill:#b56649; fill-rule:evenodd;"/><path id="fk" d="M402.68,738.77c-23.4,0-26.42,23.97-26.51,33.22,2.46,32.1,5.43,67.99,8.93,107.67.92,10.49,8.98,18.95,19.42,20.38l4.58.63c11.87,1.63,22.81-6.67,24.44-18.54.04-.31.08-.62.11-.93,4.82-51.46,7.22-83.19,7.22-95.18,0-10.91-1.49-16.43-2.65-21.4l-.14-.61c-.12-.5-.23-1-.33-1.5l-.11-.55h0c-7.76-15.47-19.41-23.2-34.94-23.2Z" style="fill:#d0885f; fill-rule:evenodd;"/><path id="fl" d="M434.18,893.94c.07,7.43-1.25,22.73-4.74,29.28-5.56,10.43-18.29,10.23-27.42,24.37-14.87,23.02-26.77,27.22-36.93,28.56-10.17,1.34-22.29-6.88-23.9-8.44-5.8-5.62-6.08-6.96-7.35-18.03-.96-8.37,8.89-17.38,11.95-22.48,2.11-3.52,3.42-3.43,12.39-11.25,13.46-11.74,22.35-26.57,26.67-44.51.23-.94-.93-21.1,27.2-18.7,13.55,1.16,20.64,12.06,22.13,21.3.84,5.19-.03,17.12,0,19.9Z" style="fill:#d0885f; fill-rule:evenodd;"/></g><g id="fm"><g id="fn"><path id="fo" d="M384.5,873.05c-4.44,17.31-13.22,31.67-26.32,43.1-6.95,6.06-9.3,7.37-10.99,9.29l-.18.21c-.42.5-.8,1.06-1.22,1.75-3.06,5.1-12.91,14.12-11.95,22.48,1.27,11.07,1.55,12.4,7.35,18.03,1.61,1.56,13.73,9.78,23.9,8.44,10.16-1.34,22.06-5.53,36.93-28.56,9.13-14.14,21.86-13.94,27.42-24.37,3.5-6.55,4.81-21.86,4.74-29.28-.03-2.68.79-13.94.08-19.37.26-2.8.51-5.54.76-8.21l.24-2.7c-5.37,3.65-13.2,5.48-23.46,5.48-11.46,0-20.86-2.28-28.21-6.83.3,3.48.61,6.99.92,10.53Z" style="fill:#ecdaea; fill-rule:evenodd;"/><path id="fp" d="M384.5,873.05c-.21.83-.43,1.64-.66,2.46,6.2,3.41,14.44,5.1,24.68,5.1,9.72,0,18.34-1.52,25.87-4.55-.04-.45-.08-.87-.13-1.27.06-.67.12-1.34.19-2.01-7.42,3.22-16.06,4.83-25.93,4.83s-18.29-1.75-24.08-5.2c.02.22.04.43.06.65Z" style="fill:#cc9cbc;"/></g><g id="fq"><path id="fr" d="M568.93,873.05c4.44,17.31,13.22,31.67,26.32,43.1,6.95,6.06,9.3,7.37,10.99,9.29l.18.21c.42.5.8,1.06,1.22,1.75,3.06,5.1,12.91,14.12,11.95,22.48-1.27,11.07-1.55,12.4-7.35,18.03-1.61,1.56-13.73,9.78-23.9,8.44-10.16-1.34-22.06-5.53-36.93-28.56-9.13-14.14-21.86-13.94-27.42-24.37-3.5-6.55-4.81-21.86-4.74-29.28.03-2.68-.79-13.94-.08-19.37-.26-2.8-.51-5.54-.76-8.21l-.24-2.7c5.37,3.65,13.2,5.48,23.46,5.48,11.46,0,20.86-2.28,28.21-6.83-.3,3.48-.61,6.99-.92,10.53Z" style="fill:#ecdaea; fill-rule:evenodd;"/><path id="fs" d="M568.93,873.05c.21.83.43,1.64.66,2.46-6.2,3.41-14.44,5.1-24.68,5.1-9.72,0-18.34-1.52-25.87-4.55.04-.45.08-.87.13-1.27-.06-.67-.12-1.34-.19-2.01,7.42,3.22,16.06,4.83,25.93,4.83s18.29-1.75,24.08-5.2c-.02.22-.04.43-.06.65Z" style="fill:#cc9cbc;"/></g></g><g id="ft"><g id="fu"><path id="fv" d="M560.17,369.47c1.1-15.26,0-25.94,24.66-28.13,6.25-.55,12.56,2.83,18.91,10.15,2.02,2.33,3.55,5.05,4.48,8l36.56,115.77c3.75,11.89-2.84,24.57-14.73,28.32-.89.28-1.79.51-2.71.67l-8.91,1.64c-11.26,2.08-22.3-4.62-25.66-15.56l-22.39-72.81h0c-7.54-21.86-10.94-37.88-10.2-48.05Z" style="fill:#d0885f; fill-rule:evenodd;"/></g><g id="fw"><path id="fx" d="M609.49,464.88l8.91-2.31c12.07-3.13,24.39,4.12,27.51,16.19.12.45.22.91.31,1.36l13.42,69.19c2.33,11.99-5.51,23.59-17.5,25.92-.19.04-.38.07-.58.1l-2.76.46c-11.22,1.87-22.08-4.9-25.34-15.81l-19.95-66.8c-3.57-11.94,3.22-24.52,15.17-28.09.26-.08.53-.15.8-.22Z" style="fill:#d0885f; fill-rule:evenodd;"/></g><g id="fy"><path id="fz" d="M610.12,565.19c-2.83,14.68-4.25,24.31-4.25,28.92,0,6.9,0,16.01,2.13,29.67,2.13,13.66,2.13,20.42,2.13,20.42,0,0,11.85-1.75,11.85-11.08s-.47-32.03,3.72-35.52,11.15,16.85,11.15,26.18-18.26,35.6-11.15,40.81c7.11,5.2,22.78-16.32,30.53-20.39,7.74-4.07,20.35-28.86,15.82-50.09-3.02-14.15-7.09-26.99-12.22-38.53-4.87-11.22-13.72-15.91-26.53-14.07-12.82,1.84-20.54,9.74-23.17,23.69Z" style="fill:#d0885f; fill-rule:evenodd;"/></g><g id="ga"><path id="gb" d="M661.51,549.71l5.07,17.28c-10.74,2.44-19.68,3.56-26.81,3.38-1.85-.05-3.94-.18-6.29-.39-1.2-.11-2.7-3.59-4.51-3.83-3.23-.42-10.03-1.58-20.4-3.48l-.6-.11.87-10.29c9.26,1.76,15.97,2.76,20.14,2.98,1.04.06,3.41-3.01,4.4-2.98,1.15.04,2.27.05,3.35.05,7.6,0,15.86-.87,24.8-2.61ZM622.13,557.43c-1.29,0-2.33,1.05-2.33,2.34s1.04,2.34,2.33,2.34,2.33-1.05,2.33-2.34-1.04-2.34-2.33-2.34ZM614.59,556.53c-1.22,0-2.21.99-2.21,2.21s.99,2.21,2.21,2.21,2.21-.99,2.21-2.21-.99-2.21-2.21-2.21Z" style="fill:#f1f1f1; fill-rule:evenodd;"/></g></g><g id="gc"><g id="gd"><path id="ge" d="M394.03,369.47c-1.1-15.26,0-25.94-24.66-28.13-6.25-.55-12.56,2.83-18.91,10.15-2.02,2.33-3.55,5.05-4.48,8l-36.56,115.77c-3.75,11.89,2.84,24.57,14.73,28.32.89.28,1.79.51,2.71.67l8.91,1.64c11.26,2.08,22.3-4.62,25.66-15.56l22.39-72.81h0c7.54-21.86,10.94-37.88,10.2-48.05Z" style="fill:#d0885f; fill-rule:evenodd;"/></g><g id="gf"><path id="gg" d="M344.7,464.88l-8.91-2.31c-12.07-3.13-24.39,4.12-27.51,16.19-.12.45-.22.91-.31,1.36l-13.42,69.19c-2.33,11.99,5.51,23.59,17.5,25.92.19.04.38.07.58.1l2.76.46c11.22,1.87,22.08-4.9,25.34-15.81l19.95-66.8c3.57-11.94-3.22-24.52-15.17-28.09-.26-.08-.53-.15-.8-.22Z" style="fill:#d0885f; fill-rule:evenodd;"/></g><g id="gh"><path id="gi" d="M344.07,565.19c2.83,14.68,4.25,24.31,4.25,28.92,0,6.9,0,16.01-2.13,29.67-2.13,13.66-2.13,20.42-2.13,20.42,0,0-11.85-1.75-11.85-11.08s.47-32.03-3.72-35.52-11.15,16.85-11.15,26.18,18.26,35.6,11.15,40.81c-7.11,5.2-22.78-16.32-30.53-20.39-7.74-4.07-20.35-28.86-15.82-50.09,3.02-14.15,7.09-26.99,12.22-38.53,4.87-11.22,13.72-15.91,26.53-14.07,12.82,1.84,20.54,9.74,23.17,23.69Z" style="fill:#d0885f; fill-rule:evenodd;"/></g></g></g><g id="gj"><g id="gk"><path id="gl" d="M420.54,333.12l55.51,61.06,48.58-61.72c31.12,1.24,51.43,3.7,60.92,7.4,7.01,2.73,13.56,6.62,17.46,11.27,3.21,3.82,5.5,8.44,7.21,11.97,8.05,16.55,22.63,50.84,43.74,102.87l-14.53,10.62-42.6,16.1-19.7,1.41c3.91,52.14,6.71,95.62,8.42,130.44,1.71,34.82,3.59,86.97,5.64,156.47-51.11,6.28-80.81,9.42-89.1,9.42h-46.29c-6.16,0-36.24-3.14-90.26-9.42-.21-69.91-.21-122.06,0-156.47.21-34.41.79-78.35,1.74-131.85h-10.2l-53.41-9.41-12.42-6.69,46.26-106.7c1.63-4.61,4-8.74,7.12-12.4,4.67-5.49,9.32-12.06,19.45-15.88,5.67-2.14,17.11-4.89,19.01-5.31,7.68-1.72,20.17-2.78,37.46-3.17Z" style="fill:#e5afd3; fill-rule:evenodd; stroke:#000; stroke-width:1.13px;"/></g><g id="gm"><path id="gn" d="M367.28,431.7l-.16,49.64,26.63,31.79v50.95l7.43,101.3,54.62,91.08,23.68,33.95h-23.68c-6.16,0-36.24-3.14-90.26-9.42-.1-33.56-.15-63.02-.16-88.4v-6.26c0-24.69.06-45.3.16-61.81.21-34.41.79-78.35,1.74-131.85h-10.2l-11.22-1.98,21.42-59Z" style="fill:#cb9cbb; fill-rule:evenodd;"/></g><g id="go"><path id="gp" d="M577.14,417.1l34.79,69.88-15.09,5.7-19.7,1.41v-76.99Z" style="fill:#cb9cbb; fill-rule:evenodd;"/></g><g id="gq"><path id="gr" d="M420.54,333.12l55.51,61.06,48.58-61.72c31.12,1.24,51.43,3.7,60.92,7.4,7.01,2.73,13.56,6.62,17.46,11.27,3.21,3.82,5.5,8.44,7.21,11.97,8.05,16.55,22.63,50.84,43.74,102.87l-14.53,10.62-42.6,16.1-19.7,1.41c3.91,52.14,6.71,95.62,8.42,130.44,1.71,34.82,3.59,86.97,5.64,156.47-51.11,6.28-80.81,9.42-89.1,9.42h-46.29c-6.16,0-36.24-3.14-90.26-9.42-.21-69.91-.21-122.06,0-156.47.21-34.41.79-78.35,1.74-131.85h-10.2l-53.41-9.41-12.42-6.69,46.26-106.7c1.63-4.61,4-8.74,7.12-12.4,4.67-5.49,9.32-12.06,19.45-15.88,5.67-2.14,17.11-4.89,19.01-5.31,7.68-1.72,20.17-2.78,37.46-3.17Z" style="fill:none; stroke:#000; stroke-width:1.13px;"/></g><g style="mask:url(#gs);"><g id="gv"><path id="gw" d="M539.03,333.59c-42.52,58.44-75.45,101.63-98.81,129.58-23.36,27.95-47.78,54.84-73.27,80.68l.16-16.08c25.4-28.01,44.24-49.55,56.52-64.6,12.28-15.06,29.75-38.05,52.42-68.99" style="fill:none; stroke:#000; stroke-width:.85px;"/><line id="gx" x1="468.99" y1="404.29" x2="406.73" y2="333.59" style="fill:none; stroke:#000; stroke-width:1.13px;"/></g></g><g style="mask:url(#gy);"><g id="hb"><line id="hc" x1="577.14" y1="494.09" x2="577.14" y2="458.24" style="fill:none; stroke:#000; stroke-width:1.13px;"/><line id="hd" x1="367.28" y1="493.4" x2="366.95" y2="469.28" style="fill:none; stroke:#000; stroke-linecap:round; stroke-width:1.13px;"/></g></g></g></g><g id="hi"><g id="hj"><g id="hk"><ellipse id="hl" cx="339.17" cy="111.77" rx="20.17" ry="6.35" transform="translate(76.98 354.23) rotate(-61)" style="fill:#d8d8d8; stroke:#000; stroke-miterlimit:4; stroke-width:.87px;"/><ellipse id="hm" cx="346.49" cy="138.22" rx="20.17" ry="6.35" transform="translate(38.15 348.18) rotate(-56)" style="fill:#d8d8d8; stroke:#000; stroke-miterlimit:4; stroke-width:.87px;"/><ellipse id="hn" cx="355.03" cy="167.04" rx="20.16" ry="6.35" transform="translate(11.21 356.08) rotate(-54)" style="fill:#d8d8d8; stroke:#000; stroke-miterlimit:4; stroke-width:.87px;"/></g><g id="ho"><ellipse id="hp" cx="622.21" cy="106.92" rx="6.35" ry="20.17" transform="translate(26.18 315.06) rotate(-29)" style="fill:#d8d8d8; stroke:#000; stroke-miterlimit:4; stroke-width:.87px;"/><ellipse id="hq" cx="614.89" cy="133.37" rx="6.35" ry="20.17" transform="translate(30.54 366.64) rotate(-34)" style="fill:#d8d8d8; stroke:#000; stroke-miterlimit:4; stroke-width:.87px;"/><ellipse id="hr" cx="606.35" cy="162.19" rx="6.35" ry="20.16" transform="translate(20.47 387.38) rotate(-36)" style="fill:#d8d8d8; stroke:#000; stroke-miterlimit:4; stroke-width:.87px;"/></g><g id="hs"><ellipse id="ht" cx="568.27" cy="34.92" rx="6.35" ry="20.16" transform="translate(229.48 492.49) rotate(-57)" style="fill:#d8d8d8; stroke:#000; stroke-miterlimit:4; stroke-width:.87px;"/><ellipse id="hu" cx="561.49" cy="60.13" rx="6.35" ry="20.16" transform="translate(205.25 498.28) rotate(-57)" style="fill:#d8d8d8; stroke:#000; stroke-miterlimit:4; stroke-width:.87px;"/><ellipse id="hv" cx="554.71" cy="90.68" rx="6.35" ry="20.16" transform="translate(176.54 506.51) rotate(-57)" style="fill:#d8d8d8; stroke:#000; stroke-miterlimit:4; stroke-width:.87px;"/></g><g id="hw"><ellipse id="hx" cx="394.83" cy="34.92" rx="20.16" ry="6.35" transform="translate(44.68 220.67) rotate(-33)" style="fill:#d8d8d8; stroke:#000; stroke-miterlimit:4; stroke-width:.87px;"/><ellipse id="hy" cx="401.61" cy="60.13" rx="20.16" ry="6.35" transform="translate(32.04 228.43) rotate(-33)" style="fill:#d8d8d8; stroke:#000; stroke-miterlimit:4; stroke-width:.87px;"/><ellipse id="hz" cx="408.39" cy="90.68" rx="20.16" ry="6.35" transform="translate(16.5 237.05) rotate(-33)" style="fill:#d8d8d8; stroke:#000; stroke-miterlimit:4; stroke-width:.87px;"/></g><g id="ia"><ellipse id="ib" cx="481.55" cy="15.52" rx="20.15" ry="6.35" style="fill:#d8d8d8; stroke:#000; stroke-width:.87px;"/><ellipse id="ic" cx="481.55" cy="42.19" rx="20.15" ry="6.35" style="fill:#d8d8d8; stroke:#000; stroke-width:.87px;"/><ellipse id="id" cx="481.55" cy="73.71" rx="20.15" ry="6.35" style="fill:#d8d8d8; stroke:#000; stroke-width:.87px;"/></g></g><g id="ie"><g id="if"><path id="ig" d="M335.18,108.76c3.74-6.75,8.58-11.23,10.8-10,2.22,1.23.99,7.71-2.75,14.46-2.8,5.06-6.22,8.85-8.7,9.9-1.59,3.38-3.66,3.67-6.21.86-9.33-10.26-5.07-18.25-4.42-18.25.04,0,1.05-.8,1.05,0,0,6.55,2.75,8.91,8.26,7.08.55-1.31,1.21-2.68,1.97-4.06Z" style="fill:#ff94c6; fill-rule:evenodd; stroke:#000; stroke-width:.87px;"/><path id="ih" d="M333.76,115.3c3.62,7.2,7.59,12.68,11.91,16.44,3.6-4.03,7.19-6.2,8.82-5.06,2.08,1.46.18,7.77-4.24,14.1-4.43,6.33-9.7,10.27-11.78,8.81-1.82-1.28-.6-6.26,2.7-11.72-.98-1.04-2.22-2.38-3.72-4.03-9.33-10.26-11.77-20.15-12.48-24.13-.15-.86-.36-1.87-.56-2.92l-.08-.45c-.66-3.72-.95-7.82,2.53-7.82,4.21,0-3.31-3.56,6.91,16.78Z" style="fill:#93e3fa; fill-rule:evenodd; stroke:#000; stroke-width:.87px;"/><path id="ii" d="M332.78,93.05c.94-1.4.74,4.58-.58,17.95-1.25,12.65,5.98,29.14,21.7,49.47,3.71-4.05,7.4-6.21,9.02-5.03,2.06,1.5.05,7.77-4.49,14.02-4.54,6.25-9.88,10.1-11.94,8.61-1.72-1.25-.59-5.86,2.49-10.99-9.37-11.25-15.28-20.1-17.73-26.55-7.1-18.72-6.98-20.37-5.44-37.19.4-4.41,2.23-9.03,4.13-10.28,1.27-.84,2.22-.84,2.85,0Z" style="fill:#ffd761; fill-rule:evenodd; stroke:#000; stroke-width:.87px;"/></g><g id="ij"><path id="ik" d="M626.64,106.07c-3.74-6.75-8.58-11.23-10.8-10-2.22,1.23-.99,7.71,2.75,14.46,2.79,5.03,6.18,8.8,8.65,9.88,1.56,3.31,3.65,3.6,6.26.88,8.33-8.68,4.23-15.35,3.58-15.35-.04,0-1.83-2.56-1.83-1.77,0,6-2.08,8.32-6.23,6.97-.61-1.62-1.41-3.34-2.37-5.08Z" style="fill:#ff94c6; fill-rule:evenodd; stroke:#000; stroke-width:.87px;"/><path id="il" d="M632.03,100.79c-1.38,1.22-.5,4.37-3.97,11.28-3.62,7.2-7.59,12.68-11.91,16.44-3.6-4.03-7.19-6.2-8.82-5.06-2.08,1.46-.18,7.77,4.24,14.1,4.43,6.33,9.7,10.27,11.78,8.81,1.82-1.28.6-6.26-2.7-11.72.98-1.04,2.22-2.38,3.72-4.03,9.33-10.26,10.87-15.84,11.57-19.83.47-2.63-1.25-12.36-3.92-9.99Z" style="fill:#f77; fill-rule:evenodd; stroke:#000; stroke-width:.87px;"/><path id="im" d="M629.08,106.14c2.9,8.53-4.37,24.98-21.82,49.34-3.67-3.96-7.29-6.06-8.9-4.89-2.06,1.5-.05,7.77,4.49,14.02,4.54,6.25,9.88,10.1,11.94,8.61,1.72-1.25.59-5.86-2.49-10.99,9.37-11.25,15.28-20.1,17.73-26.55,7.1-18.72,5.84-28.41,0-37.45-2.94-4.56-5.51-5.49-7.42-6.74-.18-.12-.31-.2-.39-.25l-.05-.02c-.58-.26,2.86,3.06,6.9,14.94Z" style="fill:#93e3fa; fill-rule:evenodd; stroke:#000; stroke-width:.87px;"/></g><g id="in"><path id="io" d="M402.65,20.08c1.77.99.98,2.94-2.37,5.85-.77.67-1.46,1.29-2.09,1.87,3.99-1.56,7.18-1.8,8.09-.34,1.35,2.16-2.87,7.22-9.41,11.32-6.54,4.09-12.94,5.66-14.29,3.5-1.22-1.96,2.14-6.32,7.68-10.17.36-1.01.76-2.16,1.21-3.46,1.63-4.74,5.35-7.6,11.18-8.57Z" style="fill:#eca2ff; fill-rule:evenodd; stroke:#000; stroke-width:.87px;"/><path id="ip" d="M402.65,20.08c4.21-3.98,10.38-2.37,7.6.99-12.09,14.61-5.64,9.01-7.6,15.98-2.21,7.86-1.99,13.5.67,16.89,4.95-2.35,9.16-2.97,10.23-1.27,1.35,2.16-2.87,7.22-9.41,11.32-6.54,4.09-12.94,5.66-14.29,3.5-1.01-1.62,1.12-4.89,5.02-8.15-.61-2.57-1.3-6.39-2.05-11.48l-.06-.37c-1.51-9.78-2.4-1.81,1.43-12.62,3.87-10.94,7.41-13.8,8.46-14.79Z" style="fill:#97ff90; fill-rule:evenodd; stroke:#000; stroke-width:.87px;"/><path id="iq" d="M403.64,22.44c6.78-6.55,10.83-7.95,12.16-4.18.34.96-1.21,3.16-4.72,6.83-3.51,3.67-16.64,19.88-16.64,31.31,0,14.08,4.25,23.79,12.75,29.14,6.13-3.57,11.88-4.84,13.15-2.81,1.35,2.16-2.87,7.22-9.41,11.32-6.54,4.09-12.94,5.66-14.29,3.5-.83-1.33.46-3.78,3.12-6.42-8.23-7.27-13.21-18.85-14.93-34.73-1.02-9.38,5.25-20.7,18.81-33.96Z" style="fill:#f77; fill-rule:evenodd; stroke:#000; stroke-width:.87px;"/></g><g id="ir"><path id="is" d="M560.21,20.08c-1.77.99-.98,2.94,2.37,5.85.77.67,1.46,1.29,2.09,1.87-3.99-1.56-7.18-1.8-8.09-.34-1.35,2.16,2.87,7.22,9.41,11.32,6.54,4.09,12.94,5.66,14.29,3.5,1.22-1.96-2.14-6.32-7.68-10.17-.36-1.01-.76-2.16-1.21-3.46-1.63-4.74-5.35-7.6-11.18-8.57Z" style="fill:#97ff90; fill-rule:evenodd; stroke:#000; stroke-width:.87px;"/><path id="it" d="M560.21,20.08c-4.21-3.98-10.38-2.37-7.6.99,12.09,14.61,5.64,9.01,7.6,15.98,2.21,7.86,1.99,13.5-.67,16.89-4.95-2.35-9.16-2.97-10.23-1.27-1.35,2.16,2.87,7.22,9.41,11.32,6.54,4.09,12.94,5.66,14.29,3.5,1.01-1.62-1.12-4.89-5.02-8.15.61-2.57,1.3-6.39,2.05-11.48l.06-.37c1.51-9.78,2.4-1.81-1.43-12.62-3.87-10.94-7.41-13.8-8.46-14.79Z" style="fill:#ffd761; fill-rule:evenodd; stroke:#000; stroke-width:.87px;"/><path id="iu" d="M559.23,22.44c-6.78-6.55-10.83-7.95-12.16-4.18-.34.96,1.21,3.16,4.72,6.83,3.51,3.67,16.64,19.88,16.64,31.31,0,14.08-4.25,23.79-12.75,29.14-6.13-3.57-11.88-4.84-13.15-2.81-1.35,2.16,2.87,7.22,9.41,11.32,6.54,4.09,12.94,5.66,14.29,3.5.83-1.33-.46-3.78-3.12-6.42,8.23-7.27,13.21-18.85,14.93-34.73,1.02-9.38-5.25-20.7-18.81-33.96Z" style="fill:#eca2ff; fill-rule:evenodd; stroke:#000; stroke-width:.87px;"/></g><g id="iv"><path id="iw" d="M481.07,6.56c.88-.01,1.49-.05,2.07.32.51.33,1,.95,1.65,2.07.4.68.72,1.43.97,2.24,3.22.59,5.68,1.17,7.42,1.94.82.36,1.47.77,1.91,1.21.36.36.57.73.57,1.14,0,.51-.34.98-.89,1.42-.68.54-1.67,1.02-2.9,1.42-2.49.82-5.94,1.33-9.74,1.33s-7.25-.51-9.74-1.33c-1.23-.41-2.22-.88-2.9-1.42-.55-.44-.89-.91-.89-1.42,0-.33.15-.65.4-.95.31-.37.78-.72,1.37-1.04,1.28-.7,3.12-1.27,5.32-1.65.5-1.13.72-2,1.01-2.97.05-.17.73-1.04,1.71-1.65.57-.36,1.25-.63,2-.63.24,0,.46,0,.66,0Z" style="fill:#ffd761; fill-rule:evenodd; stroke:#000; stroke-width:.87px;"/><path id="ix" d="M468.48,6.76c.77,0,1.43.26,1.96.6.9.58,1.51,1.43,1.51,1.5,0,8.56,3.67,18.05,11.05,28.46,3.88.28,7.03.82,9.29,1.64,1.1.4,1.99.85,2.59,1.36.49.41.79.86.79,1.34,0,.51-.34.98-.89,1.42-.68.54-1.67,1.02-2.9,1.42-2.49.82-5.94,1.33-9.74,1.33s-7.25-.51-9.74-1.33c-1.23-.41-2.22-.88-2.9-1.42-.55-.44-.89-.91-.89-1.42,0-.71.63-1.33,1.59-1.89,1.16-.67,2.83-1.24,4.84-1.63.21-.04.41-.08.61-.11-.11-.18-.21-.36-.32-.54-6.77-11.44-10.17-20.98-10.17-28.63,0-.07.56-.92,1.43-1.5.5-.34,1.14-.6,1.91-.6Z" style="fill:#93e3fa; fill-rule:evenodd; stroke:#000; stroke-width:.87px;"/><path id="iy" d="M454.43,7.53c.97-.22,1.8-.21,2.47.05.63.25,1.11.72,1.46,1.4.61,5.91,1.86,14.47,3.77,25.67,1.72,10.13,8.43,21.7,20.16,34.69,4.02.19,7.35.7,9.75,1.52,1.18.4,2.13.87,2.77,1.4.52.43.85.89.85,1.39s-.34.98-.89,1.42c-.68.54-1.67,1.02-2.9,1.42-2.49.82-5.94,1.33-9.74,1.33s-7.25-.51-9.74-1.33c-1.23-.41-2.22-.88-2.9-1.42-.55-.44-.89-.91-.89-1.42,0-.61.47-1.15,1.21-1.65.9-.61,2.21-1.14,3.82-1.55.26-.07.51-.13.75-.18-.18-.18-.37-.37-.55-.55-11.36-11.41-17.95-22.87-19.72-34.39-1.96-12.73-2.95-20.96-2.96-24.7.12-.8.44-1.47.97-1.98.55-.54,1.33-.91,2.32-1.13Z" style="fill:#ff94c6; fill-rule:evenodd; stroke:#000; stroke-width:.87px;"/></g></g><g id="iz" style="opacity:.74;"><path id="ja" d="M345.86,204.31c19-36.27,62.18-54.41,129.55-54.41s115.14,17.45,143.33,52.34c35.06-34.08,38.8-75.4,11.22-123.98-32.71-57.59-84.48-68.57-116.04-70.49-10.59-.65-23.11-7.27-33.22-7.23-13.17.05-29.35,4.96-44.83,7.7-41.2,7.31-85.59,26.5-106.52,70.02-19.2,39.92-13.69,81.93,16.51,126.04Z" style="fill:#bababa; fill-rule:evenodd; stroke:#000; stroke-width:1.08px;"/></g></g></g></g></g></g></g><g id="jb"><g id="jc"><g id="jd"><g id="je"><g style="mask:url(#jf);"><g id="jj"><g id="jk"><g id="jl"><path id="jm" d="M558.16,445.32c0,10.35-14.43,19.95-32.4,19.95s-30.87-8.24-32.07-18.51c-1.72-14.76.97-5.21,3.98-8.05-1.57,1.87-1.81,4.08-1.81,6.24,0,8.49,12.99,16.15,29.53,16.15s30.36-7.66,30.36-16.15c0-3.33.41-5.02-3.09-7.54,5.24,3.33,5.51-4.3,5.51,7.91h0Z" style="fill:#010101;"/><path id="jn" d="M525.76,465.35c-8.55,0-16.5-1.92-22.37-5.41-5.72-3.4-9.19-8.08-9.79-13.17-.78-6.68-.63-8.19-.1-8.53.31-.21.74.05,1.23.33.81.48,1.82,1.07,2.88.07l.13.12c-1.58,1.87-1.79,4.08-1.79,6.18,0,4.08,3.1,8.15,8.52,11.18,5.62,3.15,13.05,4.88,20.92,4.88s15.5-1.73,21.34-4.88c5.68-3.06,8.93-7.14,8.93-11.18,0-.33,0-.64,0-.94.04-2.76.06-4.28-3.06-6.53l.1-.14c1.97,1.25,3.21.93,4.03.72.41-.11.73-.19.97,0,.5.39.55,1.81.55,7.27,0,5.04-3.46,10.12-9.5,13.93-6.24,3.94-14.4,6.11-22.98,6.11h0ZM493.77,438.33c-.06,0-.12.02-.17.05-.53.35-.49,2.69.18,8.37.59,5.04,4.03,9.67,9.71,13.05,5.84,3.48,13.76,5.39,22.28,5.39s16.68-2.16,22.89-6.08c5.99-3.78,9.42-8.8,9.42-13.78h.09-.09c0-5-.04-6.79-.49-7.13-.17-.13-.44-.06-.82.03-.67.17-1.71.44-3.23-.24,2.35,1.97,2.33,3.56,2.3,6.02,0,.3,0,.61,0,.94,0,4.11-3.29,8.24-9.02,11.33-5.87,3.16-13.47,4.9-21.42,4.9s-15.36-1.74-21.01-4.9c-5.47-3.06-8.61-7.19-8.61-11.33,0-1.96.19-4,1.46-5.81-.97.53-1.89-.01-2.58-.42-.34-.2-.65-.38-.88-.38h0,0Z" style="fill:#010101;"/><path id="jo" d="M501.21,452.8c5.29,4.07,14.03,6.82,24.09,6.82,16.54,0,30.41-7.44,30.41-15.92,0-3.33-2.06-6.41-5.56-8.92,5.24,3.33,7.96-1.16,8.1,9.29.14,10.35-14.33,19.9-32.3,19.9s-31.38-8.09-32.57-18.37c-1.72-14.76,1.87-5.15,4.89-7.99-1.57,1.87-2.44,3.92-2.44,6.08,0,3.32,1.98,6.48,5.39,9.1" style="fill:#fab317;"/><path id="jp" d="M550.28,435.7c3.5,2.52,5.56,5.6,5.56,8.92,0,8.49-13.41,15.37-29.94,15.37s-29.6-6.71-29.94-15.05c0,0,0-.01,0-.02-.18-1.11-.06-2.35.36-3.4.34-.85.68-1.81,1.27-2.54-2.76.65-5.44-7.2-4.08,7.53.95,10.3,14.61,18.37,32.58,18.37s32.34-9.55,32.3-19.9c-.05-13.75-2.86-5.97-8.1-9.29h0Z" style="fill:#fab317;"/><path id="jq" d="M525.54,464.71h-.43c-8.62-.07-16.57-2.1-22.38-5.72-5.69-3.55-9.03-8.38-9.4-13.62h.17c.36,5.17,3.67,9.96,9.32,13.47,5.79,3.6,13.71,5.63,22.29,5.69,8.6.06,16.7-1.86,22.83-5.44,6.03-3.52,9.66-8.31,10.22-13.51.8-7.44-1.64-8.31-5.01-9.51-.89-.32-1.88-.67-2.88-1.17,1.52,1.21,2.97,2.7,4.02,4.15,1.07,1.49,2.25,3.64,1.74,5.46-1.3,4.62-4.94,8.52-10.52,11.26-5.59,2.75-12.83,4.21-20.94,4.21s-15.27-1.93-21.09-5.43c-5.52-3.32-8.68-7.58-8.68-11.67,0-2.07.83-4.08,2.46-5.96l.13.11c-1.6,1.85-2.42,3.82-2.42,5.85,0,4.03,3.13,8.23,8.6,11.53,5.79,3.49,13.24,5.41,21,5.41s15.3-1.45,20.86-4.19c5.54-2.73,9.14-6.59,10.43-11.16.88-3.14-3.47-7.93-6.7-10.18l.1-.14c1.38.85,2.75,1.34,3.96,1.77,3.45,1.23,5.95,2.12,5.13,9.7-.57,5.25-4.23,10.09-10.31,13.64-6.05,3.53-14.03,5.46-22.49,5.46h0Z" style="fill:#fdee0d;"/><path id="jr" d="M558.34,444.44c0,10.35-14.33,19.9-32.3,19.9s-31.24-8.14-32.44-18.42c-1.72-14.76,1.74-5.1,4.75-7.94-1.57,1.87-2.44,3.92-2.44,6.08,0,8.49,12.99,16.15,29.53,16.15s30.36-7.66,30.36-16.15c0-3.33-2.06-6.41-5.56-8.92,5.24,3.33,8.1-2.92,8.1,9.29h0Z" style="fill:#652b80;"/><path id="js" d="M501.18,452.95s.03.02.04.03c-5.24-3.32-8.44-7.74-8.44-12.59,0-10.35,14.57-18.73,32.54-18.73s32.54,8.39,32.54,18.73c0,3.57-1.74,6.91-4.75,9.75,1.57-1.87,2.44-3.92,2.44-6.08,0-8.49-13.41-15.37-29.94-15.37s-29.95,6.88-29.95,15.37c0,3.29,2.01,6.33,5.44,8.83" style="fill:#188bcb;"/><path id="jt" d="M501.09,453.17c-5.51-3.49-8.55-8.03-8.55-12.78,0-5.09,3.43-9.87,9.64-13.44,6.18-3.56,14.39-5.52,23.12-5.52s16.94,1.96,23.12,5.52c6.22,3.58,9.64,8.35,9.64,13.44,0,3.51-1.67,6.94-4.82,9.91l-.33-.31c1.58-1.88,2.38-3.88,2.38-5.94,0-8.35-13.33-15.14-29.72-15.14s-29.72,6.79-29.72,15.14c0,3.11,1.85,6.1,5.34,8.65h0s.06.05.09.06h0l.04.03-.26.38h0,0ZM525.31,421.89c-17.82,0-32.31,8.3-32.31,18.5,0,3.38,1.6,6.65,4.59,9.5-1.43-1.84-2.17-3.81-2.17-5.84,0-4.2,3.16-8.13,8.89-11.07,5.69-2.92,13.24-4.53,21.28-4.53s15.59,1.61,21.28,4.53c5.74,2.94,8.89,6.88,8.89,11.07,0,1.3-.3,2.57-.89,3.8,1.8-2.34,2.75-4.88,2.75-7.46,0-10.2-14.49-18.5-32.31-18.5h0Z" style="fill:#fcb715;"/><g id="ju"><g id="jv"><path id="jw" d="M525.54,422.23c-17.97,0-32.54,8.39-32.54,18.73,0,3.75,1.92,7.25,5.22,10.18,0-.14.04-.28.15-.37-1.6-1.88-2.49-3.96-2.49-6.15,0-8.49,13.41-15.37,29.94-15.37s29.94,6.88,29.94,15.37c0,2.16-.87,4.22-2.44,6.08,3.01-2.84,4.75-6.18,4.75-9.75,0-10.35-14.57-18.73-32.54-18.73h0Z" style="fill:#188bcb;"/><path id="jx" d="M498.62,451.95l-.61-.55c-3.49-3.1-5.34-6.71-5.34-10.44,0-5.13,3.45-9.94,9.7-13.54,6.2-3.57,14.43-5.53,23.18-5.53s16.98,1.96,23.18,5.53c6.26,3.6,9.7,8.41,9.7,13.54,0,3.55-1.68,7-4.85,10l-.5-.47c1.56-1.86,2.36-3.83,2.36-5.86,0-8.29-13.28-15.03-29.6-15.03s-29.6,6.74-29.6,15.03c0,2.05.81,4.05,2.41,5.93l.23.27-.28.22s-.02.04-.02.08l.05.82h0ZM525.54,422.57c-17.75,0-32.2,8.25-32.2,18.39,0,2.96,1.24,5.85,3.62,8.45-.94-1.54-1.42-3.14-1.42-4.79,0-4.24,3.18-8.21,8.96-11.17,5.7-2.93,13.28-4.54,21.33-4.54s15.63,1.61,21.33,4.54c5.78,2.96,8.96,6.93,8.96,11.17,0,.99-.17,1.97-.52,2.92,1.41-2.09,2.14-4.32,2.14-6.59,0-10.14-14.44-18.39-32.19-18.39h0Z" style="fill:#3a225f;"/></g></g><path id="jy" d="M501.17,453.05c-5.47-3.47-8.48-7.96-8.48-12.66,0-10.38,14.64-18.82,32.62-18.82s32.62,8.44,32.62,18.82c0,3.47-1.65,6.87-4.77,9.81l-.13-.12c1.6-1.91,2.42-3.94,2.42-6.03,0-8.43-13.39-15.29-29.86-15.29s-29.86,6.86-29.86,15.29c0,3.19,1.91,6.26,5.53,8.86l-.1.14h0ZM525.31,421.74c-17.89,0-32.45,8.36-32.45,18.65,0,4.06,2.29,7.97,6.49,11.19-2.48-2.29-3.78-4.86-3.78-7.52,0-8.52,13.47-15.46,30.03-15.46s30.03,6.93,30.03,15.46c0,1.76-.56,3.48-1.68,5.11,2.5-2.69,3.81-5.7,3.81-8.77,0-10.28-14.56-18.65-32.45-18.65Z" style="fill:#fdee0d;"/><polygon id="jz" points="507.05 427.72 506.22 428.06 507.31 430.73 506.16 431.2 505.07 428.52 504.23 428.86 503.86 427.94 506.68 426.79 507.05 427.71 507.05 427.72" style="fill:#fff;"/><polygon id="ka" points="510.69 429.59 510.3 428.28 509.4 428.55 509.8 429.86 508.61 430.22 507.49 426.51 508.68 426.15 509.07 427.46 509.97 427.19 509.57 425.88 510.76 425.52 511.88 429.23 510.69 429.59" style="fill:#fff;"/><polygon id="kb" points="514.77 427.1 513.55 427.36 513.65 427.82 515.14 427.5 515.35 428.48 512.65 429.06 511.83 425.26 514.5 424.69 514.56 425.69 513.25 425.97 513.36 426.48 514.58 426.22 514.77 427.1 514.77 427.1" style="fill:#fff;"/><path id="kc" d="M519.61,426.74l.22,1.02c-.25.14-.56.23-.95.28-.39.05-.71.05-.95,0-.25-.05-.45-.16-.61-.32-.16-.16-.28-.35-.36-.59-.08-.23-.15-.52-.19-.87-.04-.35-.06-.65-.03-.89.02-.25.09-.47.2-.66.22-.37.68-.61,1.38-.69.16-.02.34-.03.56-.02.22,0,.38.02.49.05l-.07.97c-.28-.02-.52-.02-.74,0-.22.03-.37.07-.45.12-.08.05-.11.14-.1.26l.21,1.61c.16.01.33,0,.49-.01.35-.04.65-.13.91-.27h0Z" style="fill:#fff;"/><polygon id="kd" points="522.63 427.64 522.54 426.27 521.61 426.33 521.7 427.69 520.46 427.77 520.22 423.9 521.46 423.82 521.54 425.19 522.47 425.13 522.39 423.76 523.63 423.69 523.87 427.56 522.63 427.64" style="fill:#fff;"/><polygon id="ke" points="524.69 427.56 524.65 423.68 525.89 423.67 525.93 427.55 524.69 427.56" style="fill:#fff;"/><polygon id="kf" points="529.23 427.63 526.75 427.55 526.88 423.67 528.12 423.71 528.02 426.6 529.27 426.64 529.23 427.63 529.23 427.63" style="fill:#fff;"/><path id="kg" d="M529.76,427.66l.37-3.86,1.73.16c.7.07,1.16.26,1.39.58.23.32.31.83.25,1.52s-.24,1.18-.53,1.45-.78.38-1.48.31l-1.73-.16h0ZM531.78,424.95l-.51-.05-.18,1.88.51.05c.17.02.29,0,.37-.03.08-.03.13-.12.14-.26l.12-1.23c.01-.14-.02-.23-.09-.28-.07-.05-.19-.08-.36-.09h0Z" style="fill:#fff;"/><polygon id="kh" points="537.51 428.71 535.07 428.27 535.77 424.45 536.99 424.67 536.47 427.51 537.69 427.73 537.52 428.71 537.51 428.71" style="fill:#fff;"/><polygon id="ki" points="538.04 428.84 538.92 425.06 540.13 425.35 539.24 429.13 538.04 428.84" style="fill:#fff;"/><polygon id="kj" points="542.65 428.59 541.64 428.29 541.23 429.67 540.04 429.32 541.13 425.6 543.58 426.32 543.15 427.23 542.04 426.9 541.9 427.4 542.91 427.7 542.65 428.59" style="fill:#fff;"/><polygon id="kk" points="545.83 429.73 544.67 429.29 544.5 429.73 545.93 430.27 545.57 431.2 542.99 430.21 544.38 426.59 546.93 427.56 546.43 428.44 545.18 427.96 545 428.44 546.16 428.89 545.83 429.73 545.83 429.73" style="fill:#fff;"/><path id="kl" d="M494.34,431.57s16.5-.62,24.38-1.2c-.34,1.2-.58,1.36-.58,1.36,0,0,1.88-1.37,5.72-.06,0-1.06.23-2.06.23-2.06l3.2.08,7.2,4.46-.34-3.54c5.94-.68,9.15-.67,9.15-.67l.37,2.82,13.41-.33-.88,8.46-1.83.23v3.88l2.85.34.02,8.12-10.09-.88.42,2.04-50.72,5.14-.28-4.44,6.92-14.61-6.18.95-2.96-10.08Z" style="fill:#e11d3f; fill-rule:evenodd;"/><path id="km" d="M496.6,460.03l-.3-4.77.03-.06,6.72-14.19-5.93.92-3.11-10.6h.32c.16-.02,16.58-.64,24.37-1.21l.36-.03-.1.34c-.09.3-.17.54-.24.73.86-.31,2.48-.6,4.89.16.04-.94.22-1.74.23-1.78l.05-.2,3.47.09,6.82,4.22-.32-3.28.24-.03c5.89-.68,9.14-.67,9.17-.67h.22l.37,2.81,13.47-.33-.93,8.94-1.8.23v3.44l2.85.34.02,8.62-10.03-.87.41,1.98-51.26,5.18ZM496.81,455.36l.26,4.12,50.19-5.08-.43-2.09,10.15.88-.02-7.63-2.86-.34v-4.32l1.85-.23.83-7.98-13.35.32-.37-2.82c-.8.01-3.8.09-8.65.64l.37,3.8-7.57-4.68-2.92-.08c-.06.34-.18,1.06-.18,1.81v.35l-.33-.11c-3.65-1.25-5.47.01-5.49.03h0s0,0,0,0l-.29-.41s0,0,0,0c0,0-.01,0-.02.02,0,0,.16-.16.39-.89-7.3.51-21.4,1.07-23.7,1.16l2.81,9.57,6.43-1-7.1,14.98h0s0,0,0,0Z" style="fill:#fcb715;"/><g id="kn"><path id="ko" d="M496.87,460.77l-.31-5.36,6.59-13.67-5.73.89-2.79-10.79.56-.03c.16,0,16.16-.87,23.95-1.43l.65-.05-.18.63c-.05.16-.09.3-.13.44.93-.17,2.4-.18,4.44.43.04-.9.14-1.79.14-1.83l.05-.42,3.77.12,6.52,4.03-.3-3.07.45-.05c5.9-.68,9.17-.67,9.2-.67h.4l.37,2.81,13.06-.25-1.11,8.56-1.2.78-.26,3.28,2.51.32-.05,8.67-9.87-.73.31,2.08-51.03,5.34ZM497.48,455.59l.24,4.17,49.12-5.13-.34-2.27,10.03.75.04-6.88-2.58-.33.36-4.59,1.23-.79.92-7.09-12.82.24-.37-2.82c-1,.02-3.83.12-8.25.61l.39,4.01-7.88-4.87-2.68-.08c-.04.47-.11,1.27-.11,1.93v.64l-.6-.21c-3.16-1.08-4.98-.57-5.29-.37-.02.02-.05.04-.07.06l-.57-.71s0,0,.02-.02c.02-.03.11-.16.24-.51-7.13.5-19.92,1.2-22.74,1.36l2.3,8.91,6.63-1.02-7.24,15.02h0s0,0,0,0Z" style="fill:#b11f30;"/></g><path id="kp" d="M545.15,448.05c-.28.08-7.34.91-15.19,1.82-1.05.1-1.27.13-2.91.34-8.93,1.03-17.96,2.07-18.64,2.15.22-.47,6.94-16.85,7.38-18.04l-.12-.23c-1.1.06-15.46,1.6-16.52,1.59l.43,4.29c.67-.08,7.4-.65,8.19-.74-.4.94-6.21,16.61-7.06,18.47l.15.23c1.02-.13,44.16-5.34,44.74-5.41l-.45-4.46h0Z" style="fill:#b11f30; fill-rule:evenodd;"/><path id="kq" d="M500.61,458.46l-.47-.73.12-.25c.54-1.18,3.12-8.05,5-13.06.74-1.98,1.38-3.66,1.74-4.62-.86.08-2.22.2-3.54.32-1.72.15-3.5.31-3.81.34l-.52.06-.54-5.37h.57c.61.02,6.45-.57,10.7-1.01,2.98-.3,5.34-.55,5.78-.57l.33-.02.38.72-.08.21c-.43,1.17-5.64,13.86-7.05,17.26,1.04-.12,2.92-.34,5.25-.61,9-1.05,26.98-3.14,30.13-3.53v-.06s1.03-.03,1.03-.03l.04.48v.06l.5,4.87-.49.06c-.25.03-8.5,1.03-18.05,2.18-12.24,1.48-26.12,3.16-26.69,3.23l-.32.04h0ZM508.59,438.6l-.35.81c-.14.33-1.02,2.66-2.03,5.36-1.69,4.5-3.94,10.48-4.79,12.56,2.89-.35,15.14-1.83,26.08-3.15,8.3-1,15.61-1.89,17.55-2.12l-.35-3.44c-.11.01-.23.03-.37.05-.57.07-1.4.17-2.43.29-2.05.24-4.9.58-8.08.95-6.35.74-14.01,1.63-19.24,2.24-3.36.39-5.78.67-6.11.71l-.91.11.39-.83c.19-.41,5.96-14.45,7.17-17.5-.97.09-2.95.29-5.16.52-4.85.49-8.77.89-10.25,1l.33,3.25c.71-.07,1.99-.18,3.33-.3,1.94-.17,3.94-.35,4.35-.4l.87-.11h0Z" style="fill:#b11f30;"/><path id="kr" d="M553.61,447.59c-1.1.04-4.62-.12-5.23-.14l.08-2.37c.51.02,3.62.21,4.25.23l.04-3.21c-1.03.05-3.72.05-4.18.04l.09-2.65c.42.02,4.09.04,4.95.07l.02-3.33c-.87.03-8.72.06-10.02.01,0,.58-.12,5.44-.13,5.76l-.1,2.69c-.02.46-.17,4.73-.27,5.79,1.21.04,9.63.54,10.47.57l.03-3.45h0Z" style="fill:#b11f30; fill-rule:evenodd;"/><path id="ks" d="M554.03,451.51l-.47-.02c-.39-.01-2.28-.12-4.46-.24-2.51-.14-5.35-.3-6.01-.32l-.49-.02.05-.49c.1-1,.24-4.98.27-5.76l.09-2.69c.02-.41.13-5.18.13-5.74v-.48s.47.02.47.02c1.32.05,9.12.02,9.99-.01l.48-.02-.03,4.28-.47-.02c-.5-.02-2-.04-3.2-.05-.52,0-.97-.01-1.29-.02l-.06,1.73c.93,0,2.84,0,3.69-.04l.48-.02-.06,4.16-.47-.02c-.33-.01-1.34-.07-2.31-.12-.56-.03-1.1-.06-1.48-.08l-.05,1.45s.06,0,.1,0c1.22.05,3.75.15,4.64.12l.48-.02-.04,4.4h0s0,0,0,0ZM543.6,450.04c1.09.05,3.44.19,5.55.3,1.63.09,3.19.18,3.97.22l.02-2.51c-1.14,0-3.18-.08-4.23-.13-.25-.01-.44-.02-.55-.02l-.46-.02.12-3.28.46.02c.25,0,1.08.06,1.96.11.67.04,1.36.08,1.82.1l.03-2.26c-1.21.03-3.3.04-3.74.02l-.46-.02.13-3.56.46.02c.17,0,.89.02,1.73.02.94.01,2.06.02,2.75.04l.02-2.4c-1.76.02-7.21.04-9.11.01-.02,1.4-.12,5.08-.13,5.3l-.09,2.69c-.03.98-.14,3.95-.24,5.34h0Z" style="fill:#b11f30;"/><path id="kt" d="M496.83,459.84l-.35-4.36v-.02s6.87-14.64,6.87-14.64l-6.09.94-.02-.08-3.04-10.21h.12c.17-.01,16.64-.63,24.43-1.19h.13s-.04.12-.04.12c-.14.5-.27.83-.37,1.04.75-.36,2.58-.8,5.38.13.01-1.01.18-1.96.18-1.97v-.08s3.32.08,3.32.08l7.06,4.37-.33-3.45h.09c5.88-.69,9.13-.68,9.16-.68h.08l.37,2.81,13.43-.33-.9,8.63-1.82.23v3.72l2.86.34-.03,8.3-10.07-.88.41,2.02h-.1s-50.71,5.14-50.71,5.14ZM496.67,455.52l.33,4.12,50.42-5.1-.42-2.06,10.11.88.03-7.94-2.85-.34v-4.04l1.84-.23.86-8.28-13.39.33-.37-2.82c-.53,0-3.66.05-8.97.66l.35,3.64-7.33-4.54-3.1-.08c-.04.26-.17,1.12-.17,1.99v.13l-.12-.04c-3.85-1.32-5.63-.02-5.65,0s-.03.03-.03.03l-.12-.14s0,0,.03-.03c.05-.05.23-.3.49-1.16-7.49.54-22.69,1.12-24.18,1.18l2.96,9.9,6.27-.97-6.99,14.93h0Z" style="fill:#fdee0d;"/><g id="ku"><g style="mask:url(#kv);"><g id="kz"><path id="la" d="M499.37,439.15c.67-.08,7.4-.65,8.19-.74-.4.94-6.21,16.61-7.06,18.47l.15.23c1.02-.13,44.16-5.34,44.74-5.41l-.45-4.46c-.64.18-35.37,4.14-36.74,4.31.22-.47,6.94-16.85,7.38-18.04l-.12-.23c-1.1.06-15.46,1.6-16.52,1.59l.43,4.29h0Z" style="fill:#f0d9b7; fill-rule:evenodd;"/><polygon id="lb" points="541.98 449.91 541.66 447.71 541.66 448.15 541.36 450.82 544.47 451.01 544.51 450.02 541.98 449.91" style="fill:#fcb715; fill-rule:evenodd;"/><path id="lc" d="M545.81,451.14l-4.52-.27.3-2.73v-.43h.11s.32,2.14.32,2.14l2.24.07,1.54,1.22h0ZM541.42,450.77l4.03.24-1.23-.97-2.3-.07-.24-1.62-.27,2.42h0Z" style="fill:#fcb715;"/></g></g></g><path id="ld" d="M499.93,457.19l-.47-.73.12-.25c.54-1.18,3.12-8.05,5.01-13.06.74-1.97,1.38-3.66,1.74-4.61-.86.08-2.22.2-3.55.32-1.72.15-3.49.31-3.81.34l-.52.06-.54-5.37h.57s.02.01.02.01c.7,0,6.47-.59,10.68-1.02,2.98-.3,5.34-.55,5.78-.57l.33-.02.38.72-.08.21c-.43,1.17-5.64,13.86-7.05,17.26.98-.12,2.72-.31,4.98-.57,4.69-.54,11.12-1.28,17-1.96,10.92-1.27,13.55-1.6,13.83-1.66l.57-.16.56,5.59-.49.06c-.25.03-8.07.97-17.14,2.06-12.66,1.52-27.01,3.24-27.6,3.31l-.32.04h0s0,0,0,0ZM507.92,437.33l-.35.81c-.14.33-1.02,2.66-2.03,5.36-1.69,4.5-3.94,10.49-4.79,12.56,2.95-.35,15.65-1.88,26.99-3.24,7.85-.94,14.76-1.77,16.64-2l-.35-3.47c-1.06.14-4.13.52-13.38,1.59-5.89.68-12.31,1.42-17,1.96-3.2.37-5.51.63-5.84.67l-.91.11.39-.83c.19-.41,5.96-14.45,7.17-17.5-.97.09-2.95.29-5.16.52-4.85.49-8.77.89-10.25,1l.33,3.25c.71-.07,1.99-.18,3.33-.3,1.94-.17,3.95-.35,4.35-.4l.87-.11h0s0,0,0,0Z" style="fill:#652b80;"/><path id="le" d="M532.35,450.79c-.12-.67-1.33-8.25-1.45-9.08.34.2,8.59,4.98,11.28,6.21l.19-.13c-.12-1.33-.39-4.24-.64-7.21-.23-2.98-.47-6.03-.57-7.64l-4.21.47c.1.88.93,6.32,1.09,7.44-.79-.43-8.09-4.44-11.31-6.15l-.19.15c.17,2.74,1.48,15.31,1.56,16.77l4.25-.83h0s0,0,0,0Z" style="fill:#f0d9b7; fill-rule:evenodd;"/><path id="lf" d="M531.67,450.17c-.12-.67-1.33-8.46-1.44-9.29.34.2,8.59,4.98,11.27,6.21l.19-.13c-.12-1.33-.39-4.24-.64-7.21-.23-2.98-.47-6.03-.57-7.64l-4.21.47c.1.88.93,6.32,1.09,7.44-.79-.43-8.09-4.44-11.31-6.15l-.19.15c.17,2.73,1.49,15.43,1.57,16.89l4.23-.74h0Z" style="fill:none;"/><g id="lg"><g style="mask:url(#lh);"><g id="ll"><path id="lm" d="M553.06,447.14c-1.1.04-4.62-.12-5.23-.14l.08-2.37c.51.02,3.62.21,4.25.23l.04-3.21c-1.03.05-3.72.05-4.18.04l.09-2.65c.42.02,4.09.04,4.95.07l.02-3.33c-.87.03-8.72.06-10.02.01,0,.58-.12,5.44-.13,5.76l-.1,2.69c-.02.46-.17,4.73-.27,5.79,1.21.04,9.63.54,10.47.57l.03-3.45h0Z" style="fill:#f0d9b7; fill-rule:evenodd;"/><path id="ln" d="M553.49,451.07l-.47-.02c-.39-.01-2.28-.12-4.46-.24-2.51-.14-5.35-.3-6.01-.32l-.49-.02.05-.49c.08-.77.19-3.48.27-5.76l.1-2.69c.02-.41.13-5.18.13-5.74v-.48s.47.02.47.02c1.32.05,9.12.02,9.99-.01l.48-.02-.03,4.28-.47-.02c-.5-.02-1.99-.04-3.19-.05-.52,0-.98-.01-1.3-.02l-.06,1.73c.92,0,2.84,0,3.69-.04l.48-.02-.06,4.16-.47-.02c-.34-.01-1.34-.07-2.32-.12-.56-.03-1.1-.06-1.47-.08l-.05,1.45s.06,0,.1,0c1.22.05,3.75.15,4.64.12l.48-.02-.04,4.4h0s0,0,0,0ZM543.06,449.59c1.09.05,3.44.19,5.55.3,1.63.09,3.19.18,3.97.22l.02-2.51c-1.14,0-3.18-.08-4.24-.13-.25-.01-.44-.02-.55-.02l-.46-.02.12-3.28.46.02c.25,0,1.07.06,1.95.11.67.04,1.36.08,1.83.1l.03-2.26c-1.21.03-3.3.04-3.74.02l-.46-.02.13-3.56.46.02c.17,0,.89.02,1.74.02.94.01,2.05.02,2.74.04l.02-2.4c-1.76.02-7.21.04-9.11.01-.02,1.4-.12,5.08-.13,5.3l-.1,2.69c-.03.98-.14,3.95-.24,5.34h0Z" style="fill:#fcb715;"/></g></g></g><path id="lo" d="M531.5,447.88c-.41-2.53-.87-5.49-.95-5.99l-.13-.94.82.48c.21.12,6.02,3.38,9.53,5.27l-.43.8c-2.69-1.45-6.95-3.82-8.74-4.83.19,1.18.51,3.23.8,5.05l-.9.14h0Z" style="fill:#b11f30;"/><path id="lp" d="M541.65,444.92l-.04-.46c-.21-2.66-.78-10.25-.86-11.55l-.03-.46.91-.06.03.46c.08,1.3.66,8.87.86,11.53l.04.46-.91.07h0Z" style="fill:#b11f30;"/><path id="lq" d="M527.02,451.45l-.03-.51c-.04-.65-.33-3.69-.65-6.9-.39-3.97-.83-8.48-.93-9.98l-.02-.24.61-.49.26.14c2.39,1.27,7.06,3.83,9.57,5.2.36.2.67.37.94.51-.07-.45-.15-1.02-.24-1.62-.29-1.94-.65-4.36-.72-4.93l-.05-.46,5.15-.57.03.48c.08,1.38.27,3.81.47,6.39l.1,1.24c.26,3.14.53,6.09.64,7.21l.03.27-.63.43-.24-.11c-2.27-1.04-8.29-4.49-10.49-5.76.35,2.29,1.2,7.77,1.3,8.34l.08.45-5.18.91h0ZM526.37,434.55c.15,1.86.53,5.84.88,9.39.28,2.81.52,5.29.61,6.43l3.29-.58c-.29-1.83-1.27-8.15-1.37-8.86l-.13-.94.82.48c.08.05,7.61,4.42,10.73,5.95-.13-1.38-.36-3.94-.58-6.65l-.1-1.25c-.18-2.31-.35-4.5-.44-5.92l-3.27.36c.13.93.41,2.85.65,4.44.17,1.14.32,2.12.37,2.53l.13.89-.79-.43c-.21-.11-.85-.46-1.74-.95-2.34-1.28-6.55-3.59-9.04-4.92h0Z" style="fill:#652b80;"/><path id="lr" d="M527.91,447.81c.09-.03.18-.05.27-.06.02,0,.03,0,.04-.01.77-1.34,1.21-2.89,1.21-4.54,0-2.6-1.08-4.95-2.82-6.62-.06.97.17,1.95.18,2.92.01,1.15.17,2.26.39,3.38.31,1.57.76,3.28.74,4.92h0Z" style="fill:#fcb715;"/><path id="ls" d="M552.99,450.53l-.47-.02c-.39-.01-2.27-.12-4.45-.24-2.51-.14-5.36-.3-6.02-.32l-.49-.02.05-.49c.1-1,.24-4.98.27-5.76l.1-2.69c.02-.41.13-5.18.13-5.74v-.48s.47.02.47.02c1.32.05,9.12.02,9.99-.01l.48-.02-.03,4.28-.47-.02c-.5-.02-2-.04-3.2-.05-.52,0-.97-.01-1.3-.02l-.06,1.73c.92,0,2.84,0,3.69-.04l.48-.02-.06,4.16-.47-.02c-.34-.01-1.34-.07-2.31-.12-.56-.03-1.1-.06-1.47-.08l-.05,1.45s.06,0,.1,0c1.22.05,3.75.15,4.64.12l.48-.02-.04,4.4h0s0,0,0,0ZM542.56,449.06c1.1.05,3.45.19,5.56.3,1.62.09,3.18.18,3.96.22l.02-2.51c-1.14,0-3.18-.08-4.23-.13-.25-.01-.44-.02-.55-.02l-.46-.02.12-3.28.46.02c.25,0,1.07.06,1.95.11.67.04,1.36.08,1.83.1l.03-2.26c-1.21.03-3.3.04-3.74.02l-.46-.02.13-3.56.46.02c.17,0,.89.02,1.73.02.94.01,2.06.02,2.75.04l.02-2.4c-1.76.02-7.21.04-9.11.01-.02,1.4-.12,5.08-.13,5.3l-.1,2.69c-.03.98-.14,3.95-.24,5.34h0Z" style="fill:#652b80;"/><polygon id="lt" points="531.33 447.85 541.92 446.6 542.04 447.61 531.45 448.86 531.33 447.85" style="fill:#652b80;"/><path id="lu" d="M514.86,451.17c1.37.72,3.75,1.59,5.4,1.53,2.6-.09,4.95-1.24,6.56-3.04-1.11.1-11.96,1.5-11.96,1.51Z" style="fill:#fcb715;"/><circle id="lw" cx="519.44" cy="442.85" r="9.25" style="fill:url(#lv);"/><path id="lx" d="M527.71,442.85c-.38.12-.57.05-.88.18.04,1.15-.17,2.43-.75,3.38.12.32.62.33,1,.4.46-1.14.92-2.41.88-3.69l-.25-.26h0ZM527.03,438.94c-.74-.65-2.07.16-3.01-.12-.63.05-1.19.11-1.82.1l.13,3.39h4.08c.14-.76-.35-1.66-.15-2.36.87.59-.18,3.32,1.72,2.21-.23-1.09-.4-2.25-.95-3.21h0ZM524.59,449.13c-.64.5-.96,1.01-1.65,1.38,1.58-.42,2.98-1.86,3.89-3.38-1.5-.6-1.4,1.32-2.23,2.01h0ZM526.45,442.96c-1,.05-1.69-.29-2.57-.05-.56-.01-1.06-.15-1.57-.09-.08,1.09-.16,2.24-.24,3.26,1.19.21,2.38.36,3.69.45.4-1.14.73-2.35.69-3.57h0ZM523.88,435.5l-.31.06c.86,1.04,1.23,1.62,2.09,2.53l.69-.18c-.61-.97-1.54-1.82-2.47-2.41h0ZM522.06,446.72l-.5,3.83c1,.34,1.71-.8,2.47-1.36l1.41-2.02c-1.06-.47-2.13-.29-3.38-.44ZM522.57,435.54h-.63s.27,2.81.27,2.81c.31.33.57-.18.88-.05l1.95-.22c-.61-1.1-1.47-1.94-2.47-2.54h0ZM521.71,434.56c.19.07-.01.64.37.52,0-.19.19-.32.38-.25l-.75-.27h0ZM521.69,442.88c-1.25-.21-2.76-.24-4.2-.07v3.07s.32.2.32.2l3.76.07c.21-1.02.1-2.3.12-3.26h0ZM521.57,438.91c-1-.02-2.39.15-3.33,0-.69.31-.15,1.21-.72,1.65.3.58-.21,1.09.22,1.73h3.95s-.13-3.39-.13-3.39h0ZM521.5,446.71c-1.25-.15-2.57-.11-3.82-.13-.15,1.34.27,2.56.56,3.85.68.46,1.57-.29,2.25.3.19-.19.57-.05.57-.31.21-1.21.29-2.49.44-3.7h0ZM520.87,435.51l-2.07.03c-.52.82-.41,1.97-.68,2.87h3.45c-.05-1.03-.34-2.06-.7-2.9h0ZM519.29,450.96c-.5.18-1.13-.02-1.7.1.62.52,1.56.41,2.32.17.38.07.69.14,1.07-.05-.49-.58-1.19.04-1.69-.22h0ZM520.83,434.36c-.5.12-1.93-.74-1.83.54v.06c.57-.12,2.37.68,1.83-.61h0ZM517.94,434.88c.13,0,.25.13.44.07l.13-.19c-.12-.13-.38,0-.57.12h0ZM518.24,435.46c-1.62-.35-2.97,1.48-3.75,2.81l3.13.18c.27-.95.41-1.97.62-2.99h0ZM516.49,434.85c.44.07,1.01-.11,1.51-.49-.57.05-1.07.17-1.51.49ZM517.04,446.63c-1-.02-2.01.09-3.08.14.6,1.48,1.71,2.97,3.13,3.76l.57-.12-.62-3.78h0ZM514.23,438.78c-.52,1.01-.98,2.09-1,3.37l3.82.13c.15-1.15.41-2.23.5-3.32l-3.32-.19h0ZM517.05,442.67l-3.83.06c-.15,1.21.15,2.43.5,3.53.94-.05,2.26-.09,3.33-.32-.17-1.09.16-2.3,0-3.26h0ZM515.1,435.47c-.89.62-1.91,1.57-2.36,2.45.12.26.62.27,1,.4.89-.94,1.42-2.21,2.56-2.96-.37-.26-.94-.27-1.19.11h0ZM513.34,446.88l-1.19.11c.92,1.49,2.27,2.98,3.83,3.52-1.11-.98-2.03-2.34-2.64-3.63h0ZM512.23,438.61c-.71,1.01-.85,2.22-1.13,3.43.56.2,1.06.15,1.63.09.02-1.22.54-2.29.87-3.37l-1.38-.15h0ZM512.72,442.78c-.56-.01-1.44-.35-1.7.16.42,1.22.08,2.75,1.07,3.66.25-.19.63-.31,1.01-.3-.29-1.16-.52-2.31-.38-3.53h0ZM525.82,435.79c-2.29-1.64-4.84-2.96-7.86-2.38-3.65.45-6.9,3.59-7.71,7.15-.75,3.57.45,6.91,2.91,9.45,2.6,2.16,6.28,3.12,9.57,1.83,2.9-1.04,5.14-3.43,5.82-6.42.81-3.44.06-7.22-2.72-9.64h0Z" style="fill:#652b80; fill-rule:evenodd;"/></g><g id="ly"><path id="lz" d="M500.16,457.26l-.46-.73.11-.25c.54-1.17,3.1-8,4.98-12.99.74-1.97,1.37-3.65,1.73-4.6-.85.08-2.19.2-3.5.31-1.73.15-3.5.31-3.82.35l-.51.06-.54-5.35h.57s.02.01.02.01c.7,0,6.43-.58,10.63-1.01,2.97-.3,5.31-.54,5.75-.57l.32-.02.38.72-.08.21c-.43,1.16-5.61,13.8-7.01,17.18,1.01-.12,2.79-.32,5.05-.58,4.55-.52,11-1.27,16.81-1.94,10.94-1.27,13.52-1.6,13.76-1.65l.55-.12.07.56.5,4.97-.49.06c-.24.03-8.12.97-17.18,2.06-12.54,1.5-26.75,3.21-27.33,3.28l-.32.04h0ZM508.1,437.49l-.34.81c-.14.33-1.01,2.65-2.02,5.34-1.68,4.48-3.92,10.43-4.77,12.5,2.93-.35,15.49-1.86,26.71-3.21,7.85-.94,14.8-1.78,16.68-2l-.35-3.45c-1.05.14-4.11.52-13.31,1.59-5.81.68-12.27,1.42-16.81,1.94-3.28.38-5.57.64-5.9.68l-.91.11.39-.83c.19-.41,5.93-14.39,7.13-17.42-.97.09-2.93.29-5.13.51-4.82.49-8.72.89-10.2.99l.33,3.23c.71-.07,2-.18,3.34-.3,1.92-.17,3.9-.34,4.29-.39l.87-.11h0Z" style="fill:#652b80;"/><path id="ma" d="M508.1,437.48l-.34.81c-.14.33-1.01,2.65-2.02,5.34-1.68,4.48-3.92,10.43-4.77,12.5,2.93-.35,15.49-1.86,26.71-3.21,7.85-.94,14.8-1.78,16.68-2l-.35-3.45c-1.05.14-4.11.52-13.31,1.59-5.81.68-12.27,1.42-16.81,1.94-3.28.38-5.57.64-5.9.68l-.91.11.39-.83c.19-.41,5.93-14.39,7.13-17.42-.97.09-2.93.29-5.13.51-4.82.49-8.72.89-10.2.99l.33,3.23c.71-.07,2-.18,3.34-.3,1.92-.17,3.9-.34,4.29-.39l.87-.11h0Z" style="fill:#f0d9b7;"/><path id="mb" d="M531.87,450.39c-.12-.67-1.12-8.2-1.23-9.03.34.2,8.87,5.44,11.54,6.67l.19-.13c-.12-1.33-.83-4.17-1.08-7.14-.23-2.97-.64-6.94-.74-8.54l-4.2.69c.1.87.93,6.29,1.08,7.4-.79-.43-7.42-3.76-10.62-5.46l-.19.15c.17,2.72.94,14.74,1.02,16.2l4.22-.83h0Z" style="fill:#f0d9b7; fill-rule:evenodd;"/><path id="mc" d="M531.73,450.27c-.12-.67-1.32-8.42-1.43-9.25.34.2,8.54,4.95,11.22,6.19l.19-.13c-.12-1.33-.38-4.22-.63-7.18-.23-2.97-.47-6.01-.57-7.6l-4.19.47c.1.87.93,6.29,1.08,7.4-.79-.43-8.05-4.42-11.25-6.12l-.19.15c.17,2.72,1.49,15.36,1.56,16.82l4.21-.74h0Z" style="fill:none;"/><path id="md" d="M527.1,451.54l-.03-.51c-.04-.65-.33-3.66-.64-6.85-.39-3.96-.83-8.46-.92-9.96l-.02-.24.6-.48.26.14c2.38,1.26,7.03,3.81,9.52,5.18.35.19.67.37.93.51-.07-.45-.15-1.01-.24-1.6-.29-1.94-.65-4.35-.71-4.91l-.05-.45,5.12-.57.03.48c.08,1.37.27,3.79.47,6.35l.1,1.25c.26,3.14.53,6.07.63,7.17l.03.27-.62.43-.23-.11c-2.26-1.04-8.24-4.47-10.44-5.73.35,2.29,1.2,7.75,1.29,8.31l.08.45-5.16.91h0ZM526.45,434.72c.15,1.86.53,5.83.88,9.37.27,2.78.51,5.25.61,6.38l3.27-.58c-.29-1.82-1.26-8.1-1.36-8.82l-.13-.93.81.47c.08.05,7.57,4.39,10.67,5.92-.13-1.36-.35-3.91-.58-6.62l-.1-1.25c-.18-2.29-.35-4.47-.44-5.88l-3.26.36c.13.93.41,2.84.65,4.43.17,1.12.31,2.1.37,2.51l.13.89-.79-.43c-.21-.11-.84-.46-1.73-.95-2.32-1.28-6.52-3.57-9-4.9h0Z" style="fill:#652b80;"/><path id="me" d="M552.94,450.63l-.47-.02c-.38-.01-2.24-.12-4.4-.24-2.51-.14-5.36-.3-6.01-.32l-.49-.02.05-.48c.1-.96.23-4.62.27-5.72l.09-2.69c0-.26.13-5.14.13-5.71v-.47s.47.02.47.02c1.32.05,9.08.02,9.94-.01l.47-.02-.03,4.26-.47-.02c-.5-.02-1.98-.04-3.16-.05-.51,0-.98-.01-1.31-.02l-.06,1.72c.92,0,2.82,0,3.67-.04l.48-.02-.05,4.14-.46-.02c-.33-.01-1.35-.07-2.31-.12-.55-.03-1.08-.06-1.46-.08l-.05,1.44h.09c1.12.05,3.74.16,4.63.12l.48-.02-.03,4.38h0ZM542.56,449.16c1.09.05,3.44.19,5.56.3,1.6.09,3.14.18,3.91.22l.02-2.5c-1.14,0-3.17-.08-4.22-.13l-.99-.04.11-3.26.45.02c.24,0,1.06.06,1.93.11.67.04,1.36.08,1.83.1l.03-2.25c-1.2.03-3.28.03-3.72.02l-.45-.02.12-3.54.45.02c.17,0,.89.02,1.74.03.93.01,2.03.02,2.72.04l.02-2.39c-1.75.03-7.18.04-9.06.01-.02,1.39-.12,5.07-.13,5.28l-.09,2.67c-.04.98-.14,3.94-.24,5.32h0Z" style="fill:#652b80;"/><path id="mf" d="M542.57,449.16c1.09.05,3.44.19,5.56.3,1.6.09,3.14.18,3.91.22l.02-2.5c-1.14,0-3.17-.08-4.22-.13l-.99-.04.11-3.26.45.02c.24,0,1.06.06,1.93.11.67.04,1.36.08,1.83.1l.03-2.25c-1.2.03-3.28.03-3.72.02l-.45-.02.12-3.54.45.02c.17,0,.89.02,1.74.03.93.01,2.03.02,2.72.04l.02-2.39c-1.75.03-7.18.04-9.06.01-.02,1.39-.12,5.07-.13,5.28l-.09,2.67c-.04.98-.14,3.94-.24,5.32h0Z" style="fill:#f0d9b7;"/><polygon id="mg" points="531.39 447.96 541.92 446.72 542.04 447.72 531.5 448.97 531.39 447.96" style="fill:#652b80;"/><ellipse id="mi" cx="519.17" cy="442.9" rx="9.28" ry="9.29" style="fill:url(#mh);"/><path id="mj" d="M527.79,442.99c-.38.12-.56.05-.88.18.04,1.15-.17,2.42-.74,3.36.12.32.62.33.99.4.46-1.14.92-2.4.87-3.68l-.25-.26h0ZM527.11,439.09c-.74-.65-2.06.15-2.99-.12-.62.05-1.19.11-1.81.1l.13,3.38h4.06c.14-.75-.35-1.65-.15-2.35.86.59-.18,3.31,1.71,2.2-.23-1.09-.4-2.23-.94-3.2h0ZM524.69,449.23c-.63.5-.95,1-1.65,1.37,1.57-.42,2.96-1.86,3.86-3.37-1.49-.6-1.4,1.31-2.22,2ZM526.54,443.09c-1,.05-1.68-.29-2.56-.05-.56-.01-1.06-.15-1.56-.09-.08,1.08-.16,2.23-.24,3.24,1.18.21,2.37.36,3.67.45.39-1.14.73-2.34.68-3.55h0ZM523.98,435.66l-.31.06c.86,1.03,1.22,1.61,2.08,2.52l.69-.18c-.61-.97-1.53-1.81-2.46-2.4h0ZM522.17,446.84l-.5,3.81c.99.34,1.7-.8,2.46-1.36l1.41-2.01c-1.05-.46-2.12-.29-3.36-.44h0ZM522.68,435.7h-.62s.26,2.79.26,2.79c.31.32.56-.18.87-.05l1.94-.22c-.6-1.09-1.46-1.94-2.45-2.53h0ZM521.82,434.73c.19.07-.01.64.37.52,0-.19.19-.31.38-.25l-.74-.27h0ZM521.8,443.01c-1.24-.21-2.74-.24-4.18-.07v3.05s.32.2.32.2l3.74.07c.21-1.02.1-2.29.12-3.24h0ZM521.68,439.06c-1-.02-2.37.15-3.31,0-.69.31-.15,1.21-.71,1.64.3.58-.21,1.08.22,1.72h3.93s-.13-3.37-.13-3.37h0ZM521.61,446.83c-1.25-.15-2.56-.11-3.81-.13-.15,1.33.27,2.55.56,3.83.68.46,1.56-.29,2.24.3.19-.19.56-.05.57-.31.21-1.21.29-2.48.44-3.68h0ZM520.99,435.67l-2.06.03c-.51.82-.41,1.97-.67,2.85h3.43c-.05-1.02-.34-2.05-.7-2.88h0ZM519.42,451.05c-.5.18-1.12-.02-1.69.1.61.52,1.55.41,2.31.17.37.07.68.14,1.06-.05-.49-.58-1.19.04-1.68-.22h0ZM520.95,434.53c-.5.12-1.92-.74-1.82.54v.06c.56-.12,2.36.68,1.82-.6h0ZM518.07,435.05c.13,0,.25.13.44.07l.13-.19c-.12-.13-.37,0-.56.12ZM518.37,435.63c-1.62-.35-2.96,1.48-3.73,2.8l3.12.18c.27-.95.41-1.97.61-2.98h0ZM516.63,435.02c.44.07,1-.11,1.51-.48-.56.05-1.06.17-1.51.48h0ZM517.18,446.75c-1-.02-2,.09-3.06.14.6,1.48,1.7,2.96,3.12,3.75l.56-.12-.62-3.77h0ZM514.38,438.93c-.52,1.01-.97,2.08-.99,3.36l3.81.13c.14-1.14.41-2.22.49-3.3l-3.3-.19h0ZM517.19,442.8l-3.81.06c-.15,1.21.15,2.42.5,3.51.94-.05,2.25-.09,3.31-.32-.17-1.09.16-2.29,0-3.25h0ZM515.25,435.64c-.88.62-1.9,1.56-2.35,2.44.12.26.62.27.99.4.89-.94,1.41-2.2,2.55-2.95-.37-.26-.93-.27-1.19.11h0ZM513.5,447l-1.19.11c.91,1.48,2.26,2.97,3.81,3.51-1.11-.97-2.02-2.33-2.62-3.61h0ZM512.39,438.77c-.7,1.01-.85,2.21-1.12,3.42.56.2,1.06.15,1.62.09.02-1.21.54-2.28.87-3.36l-1.37-.15h0ZM512.88,442.91c-.56-.01-1.43-.34-1.69.16.42,1.22.08,2.74,1.06,3.65.25-.19.63-.31,1-.3-.29-1.15-.52-2.3-.38-3.51h0ZM525.91,435.95c-2.28-1.63-4.82-2.95-7.82-2.37-3.63.44-6.86,3.57-7.67,7.12-.75,3.55.44,6.88,2.9,9.41,2.58,2.15,6.25,3.1,9.52,1.82,2.89-1.03,5.11-3.41,5.79-6.39.81-3.42.06-7.19-2.7-9.6h0Z" style="fill:#652b80; fill-rule:evenodd;"/></g></g></g></g></g></g></g></g></g></g></svg>