<?xml version="1.0" encoding="UTF-8"?>
<svg width="100%" height="100%" viewBox="0 0 3024 5012" version="1.1" xmlns="http://www.w3.org/2000/svg" xmlns:xlink="http://www.w3.org/1999/xlink">
    <title>Teammates_Atlanta_Characters_Child4_Bed_Full</title>
    <defs>
        <path d="M0,0 L393.893435,0 L393.893435,323.327042 C324.679991,386.717654 258.525034,418.41296 195.428566,418.41296 C132.332097,418.41296 67.1892418,386.717654 0,323.327042 L0,0 Z" id="path-1"></path>
        <filter x="-0.7%" y="-0.8%" width="101.4%" height="101.6%" filterUnits="objectBoundingBox" id="filter-3">
            <feOffset dx="0" dy="2" in="SourceAlpha" result="shadowOffsetOuter1"></feOffset>
            <feGaussianBlur stdDeviation="2" in="shadowOffsetOuter1" result="shadowBlurOuter1"></feGaussianBlur>
            <feColorMatrix values="0 0 0 0 0   0 0 0 0 0   0 0 0 0 0  0 0 0 0.5 0" type="matrix" in="shadowBlurOuter1" result="shadowMatrixOuter1"></feColorMatrix>
            <feMerge>
                <feMergeNode in="shadowMatrixOuter1"></feMergeNode>
                <feMergeNode in="SourceGraphic"></feMergeNode>
            </feMerge>
        </filter>
        <linearGradient x1="113.360344%" y1="89.5847562%" x2="50%" y2="64.0024936%" id="linearGradient-4">
            <stop stop-color="#877A7A" offset="0%"></stop>
            <stop stop-color="#4F4545" offset="100%"></stop>
        </linearGradient>
        <path d="M644.137042,3.28599194 L920.694883,307.412522 L1162.7404,0 C1317.79702,6.15262999 1418.96709,18.4352233 1466.25064,36.8477801 C1501.15857,50.4411841 1533.81533,69.7981594 1553.24697,92.9723846 C1569.2191,112.020793 1580.63321,135.015701 1589.18714,152.601109 C1629.29186,235.049503 1701.92347,405.840495 1807.08197,664.974084 L1734.67643,717.873301 L1522.46353,798.05818 L1424.30587,805.062307 C1443.7684,1064.78935 1457.74999,1281.36154 1466.25064,1454.77888 C1474.75129,1628.19622 1484.12011,1887.98334 1494.35709,2234.14024 C1239.73337,2265.43013 1091.75809,2281.07507 1050.43127,2281.07507 C988.441027,2281.07507 865.80893,2281.07507 819.80234,2281.07507 C789.131281,2281.07507 639.230226,2265.43013 370.099176,2234.14024 C369.065133,1885.93463 369.065133,1626.14751 370.099176,1454.77888 C371.133219,1283.41026 374.021672,1064.50335 378.764534,798.05818 L327.939505,798.05818 L61.8546649,751.187261 L0,717.873301 L230.45701,186.385753 C238.590238,163.43259 250.406219,142.847403 265.904953,124.630192 C289.153054,97.3043745 312.343756,64.5428796 362.806788,45.5307359 C391.06764,34.8833499 448.061385,21.1881004 457.515051,19.0668397 C495.782556,10.4801856 557.989886,5.21990302 644.137042,3.28599194 Z" id="path-5"></path>
    </defs>
    <g id="Teammates_Atlanta_Characters_Child4_Bed_Full" stroke="none" stroke-width="1" fill="none" fill-rule="evenodd">
        <g id="Bed" transform="translate(0.000000, 0.392751)">
            <rect id="Rectangle" stroke="#979797" fill="#D6E7F9" x="0.5" y="0.5" width="3023" height="5014"></rect>
            <g id="Group-7" transform="translate(3.000000, 191.607249)">
                <rect id="Rectangle" stroke="#000000" stroke-width="2.67774086" fill="#F5FAFF" x="202.233089" y="349.440676" width="2613.79419" height="1528.99182" rx="211.541528"></rect>
                <g id="Child_4-Copy-2" transform="translate(321.000000, 0.000000)">
                    <g id="Body" transform="translate(233.000000, 0.000000)">
                        <g id="Neck" transform="translate(772.319696, 1415.262767)">
                            <mask id="mask-2" fill="white">
                                <use xlink:href="#path-1"></use>
                            </mask>
                            <use id="Rectangle" fill="#EEB881" xlink:href="#path-1"></use>
                            <path d="M-77.3719247,-84.3461849 L429.062491,-84.3461849 L437.026804,59.4151642 C363.593322,151.095692 284.444507,196.935955 199.580358,196.935955 C114.716209,196.935955 24.7433854,151.095692 -70.3381134,59.4151642 L-77.3719247,-84.3461849 Z" id="Rectangle" fill="#000000" opacity="0.430146717" style="mix-blend-mode: multiply;" mask="url(#mask-2)"></path>
                        </g>
                        <g id="Head" filter="url(#filter-3)" transform="translate(126.018031, 0.000000)">
                            <g>
                                <path d="M872.915458,2.13197955 C738.793567,-8.71588767 611.393029,23.2460155 504.527907,65.9466138 C292.063075,150.842184 178.484749,287.150996 98.6401054,538.712239 C61.9292599,654.374673 0,1002.93143 0,1108.03462 C0,1332.02066 203.289293,1532.72877 305.431141,1528.82849 C373.525707,1526.2283 517.707818,1502.85142 737.977475,1458.69786 L790.850069,538.712239 L853.932274,422.244174 L1186.93844,589.603091 L951.154098,1472.66178 C1163.18873,1507.60905 1310.86393,1526.38278 1394.17969,1528.98296 C1519.15332,1532.88324 1661.50277,1405.1466 1706.53235,1254.70331 C1736.27957,1155.31823 1733.19266,973.549274 1719.97168,882.174214 C1697.75476,728.62493 1661.35951,553.094792 1651.793,521.829337 C1636.79268,472.804973 1604.85094,322.11154 1521.71259,231.581727 C1471.28974,176.675999 1443.19424,142.401214 1340.14895,94.9765059 C1237.10366,47.5517978 1149.64909,80.8512732 1078.79736,65.9466138 C1009.75119,51.421778 993.025303,11.8465433 872.915458,2.13197955 Z" id="Hair" fill="#000000"></path>
                                <g transform="translate(192.878345, 324.325053)">
                                    <g id="Ear_L" transform="translate(0.000000, 636.726124)">
                                        <path d="M102.865927,3.17016021 C62.5838128,-6.56489436 32.7313183,6.12114682 13.3084431,41.2282837 C-15.8258696,93.8889891 -0.395792018,211.07851 92.3489178,211.07851 C154.178724,211.07851 157.684394,141.775727 102.865927,3.17016021 Z" id="Path-2" fill="#DA9D6D"></path>
                                        <path d="M45.7408133,146.159982 C29.9700356,126.612597 27.2018941,106.147056 37.4363887,84.7633598 C47.6708833,63.3796633 64.4137973,56.9394695 87.6651307,65.4427786" id="Path-8-Copy" stroke="#4C250F" stroke-width="7.0304551" stroke-linecap="round" transform="translate(59.529885, 103.986889) scale(-1, 1) translate(-59.529885, -103.986889) "></path>
                                    </g>
                                    <g id="Ear_R" transform="translate(1198.461493, 618.810633)">
                                        <path d="M102.865927,3.17016021 C62.5838128,-6.56489436 32.7313183,6.12114682 13.3084431,41.2282837 C-15.8258696,93.8889891 -0.395792018,211.07851 92.3489178,211.07851 C154.178724,211.07851 157.684394,141.775727 102.865927,3.17016021 Z" id="Path-2-Copy" fill="#DA9D6D" transform="translate(70.754280, 105.539255) scale(-1, 1) translate(-70.754280, -105.539255) "></path>
                                        <path d="M43.0272478,148.800039 C27.2564702,129.252654 24.4883286,108.787113 34.7228232,87.4034167 C44.9573178,66.0197202 61.7002318,59.5795264 84.9515652,68.0828355" id="Path-8" stroke="#4C250F" stroke-width="7.0304551" stroke-linecap="round"></path>
                                    </g>
                                    <g transform="translate(63.875958, 0.000000)" fill="#EEB881" id="Path">
                                        <path d="M5.55622083,582.002687 C55.8607575,812.703492 103.55729,957.897683 148.645817,1017.58526 C216.278608,1107.11662 530.926033,1203.39929 600.441377,1203.39929 C669.956722,1203.39929 955.547847,1098.28604 1037.87452,1017.58526 C1120.20119,936.884476 1187.62563,591.523299 1187.62563,521.80541 C1187.62563,452.087522 1195.35495,0 569.550318,0 C152.347233,0 -35.6507994,194.000896 5.55622083,582.002687 Z"></path>
                                    </g>
                                </g>
                                <path d="M283.388269,998.018707 L283.388269,927.128664 C346.668162,819.025279 387.106029,753.501815 404.70187,730.558273 C431.095632,696.14296 494.218109,647.311998 504.512789,638.80032 C667.815697,503.780889 841.877813,465.759995 847.033748,465.029915 C864.239915,462.593526 661.059963,639.762534 684.715124,638.80032 C713.532332,637.628131 851.782205,638.80032 872.915458,638.80032 C1013.74434,638.80032 1228.36471,633.689388 1230.28035,635.871809 C1289.13633,702.924506 1403.59634,781.032963 1417.42721,854.332007 C1427.79096,909.256526 1433.05184,939.225742 1433.20984,944.239655 L1438.19987,944.239655 L1507.75553,786.964474 L1223.32961,275.825608 L442.41457,208.994717 L221.895293,560.613056 L194.238621,807.416113 L283.388269,998.018707 Z" id="BANGS" fill="#000000"></path>
                            </g>
                            <g id="LowerLip" transform="translate(786.977892, 1430.097775)" stroke="#4C250F" stroke-width="7.0304551">
                                <path d="M0,0 C23.7050369,9.36965993 43.7375559,14.0544899 60.097557,14.0544899 C76.457558,14.0544899 98.627907,9.36965993 126.608604,0" id="Path-4"></path>
                            </g>
                            <g id="Expression-Neutral" transform="translate(403.755732, 799.020840)">
                                <g id="Mouth_Neutral" transform="translate(269.922861, 514.579474)" fill="#FFFFFF" stroke="#69381D" stroke-width="7.02838641">
                                    <path d="M0,0 C78.7774813,7.80355925 137.97892,11.7053389 177.604316,11.7053389 C217.229713,11.7053389 275.334275,7.80355925 351.918003,0 C270.841938,49.5575242 212.737376,74.3362863 177.604316,74.3362863 C142.471257,74.3362863 83.2698179,49.5575242 0,0 Z" id="Path-3"></path>
                                </g>
                                <g id="Eyes_Neutral" transform="translate(87.298283, 139.384180)">
                                    <g id="Eye_R" transform="translate(544.325670, 0.000000)">
                                        <g id="Group-2" transform="translate(0.015118, 0.000000)">
                                            <ellipse id="Oval" fill="#F4F4F4" cx="83.7424108" cy="77.3173587" rx="83.7424108" ry="77.3173587"></ellipse>
                                            <ellipse id="Oval" stroke="#000000" stroke-width="7.03942252" fill="url(#linearGradient-4)" cx="69.7853423" cy="70.2885079" rx="66.2656311" ry="66.7687966"></ellipse>
                                            <ellipse id="Oval" fill="#000000" cx="69.7853423" cy="63.2596571" rx="41.8712054" ry="49.2019555"></ellipse>
                                            <ellipse id="Oval" fill="#FFFFFF" cx="76.7638765" cy="35.1442539" rx="20.9356027" ry="21.0865524"></ellipse>
                                        </g>
                                        <path d="M0.0171243837,84.6951273 C-0.21131373,74.1947196 1.84575983,63.9865518 6.18834506,54.070624 C21.5342907,19.0294492 49.1689229,3.11394052 88.6563431,3.11394052 C128.143763,3.11394052 150.901194,13.8395723 170.623331,47.975063 C177.835704,60.458389 181.44189,73.6200847 181.44189,87.46015" id="Path-17" stroke="#000000" stroke-width="14.078845" stroke-linecap="round"></path>
                                    </g>
                                    <g id="Eye_L" transform="translate(90.720945, 77.317359) scale(-1, 1) translate(-90.720945, -77.317359) ">
                                        <g id="Group-2" transform="translate(0.015118, 0.000000)">
                                            <ellipse id="Oval" fill="#F4F4F4" cx="83.7424108" cy="77.3173587" rx="83.7424108" ry="77.3173587"></ellipse>
                                            <ellipse id="Oval" stroke="#000000" stroke-width="7.03942252" fill="url(#linearGradient-4)" cx="69.7853423" cy="70.2885079" rx="66.2656311" ry="66.7687966"></ellipse>
                                            <ellipse id="Oval" fill="#000000" cx="69.7853423" cy="63.2596571" rx="41.8712054" ry="49.2019555"></ellipse>
                                            <ellipse id="Oval" fill="#FFFFFF" cx="76.7638765" cy="35.1442539" rx="20.9356027" ry="21.0865524"></ellipse>
                                        </g>
                                        <path d="M0.0171243837,84.6951273 C-0.21131373,74.1947196 1.84575983,63.9865518 6.18834506,54.070624 C21.5342907,19.0294492 49.1689229,3.11394052 88.6563431,3.11394052 C128.143763,3.11394052 150.901194,13.8395723 170.623331,47.975063 C177.835704,60.458389 181.44189,73.6200847 181.44189,87.46015" id="Path-17" stroke="#000000" stroke-width="14.078845" stroke-linecap="round"></path>
                                    </g>
                                </g>
                                <g id="Eyebrows_Neutral" fill="#000000">
                                    <g id="Brow-L" transform="translate(156.920115, 70.065279) rotate(-10.000000) translate(-156.920115, -70.065279) translate(5.042564, 27.731571)">
                                        <path d="M0.582001072,49.7813976 C-0.865513046,54.5336748 0.387093019,62.1506206 4.33981927,72.6322351 C10.2689086,88.3546567 24.6582424,85.1864324 32.1725335,82.2777616 C117.762543,49.1471367 157.971807,32.5818243 186.12914,32.5818243 C215.016432,32.5818243 235.466209,40.749499 286.586316,56.7264075 C293.548205,58.9022534 301.201748,63.078195 303.380965,61.2980113 C305.560182,59.5178277 297.75507,53.6387766 291.987133,49.7813976 C240.9379,15.6415889 219.07585,3.30610973 187.89443,0.557260453 C156.713011,-2.19158882 93.6654051,4.88786213 41.7936188,29.4347113 C37.3600186,31.5327866 23.6228127,38.3150154 0.582001072,49.7813976 Z" id="Path-5-Copy-3" transform="translate(151.877551, 42.333708) scale(-1, 1) translate(-151.877551, -42.333708) "></path>
                                    </g>
                                    <g id="Brow-R" transform="translate(737.042564, 70.065279) rotate(11.000000) translate(-737.042564, -70.065279) translate(587.654809, 27.731571)">
                                        <path d="M0.572460071,49.7813976 C-0.851324307,54.5336748 0.380747232,62.1506206 4.26867469,72.6322351 C10.1005659,88.3546567 24.2540089,85.1864324 31.6451149,82.2777616 C115.83201,49.1471367 155.382106,32.5818243 183.077842,32.5818243 C211.491572,32.5818243 231.606107,40.749499 281.888179,56.7264075 C288.73594,58.9022534 296.264014,63.078195 298.407506,61.2980113 C300.550998,59.5178277 292.873839,53.6387766 287.200459,49.7813976 C236.988098,15.6415889 215.484443,3.30610973 184.814194,0.557260453 C154.143945,-2.19158882 92.1299067,4.88786213 41.1084775,29.4347113 C36.7475593,31.5327866 23.2355535,38.3150154 0.572460071,49.7813976 Z" id="Path-5-Copy-3"></path>
                                    </g>
                                </g>
                            </g>
                            <g id="Nose" transform="translate(742.296366, 1205.501350)">
                                <path d="M1.88304153,0 C-6.16294833,19.681014 11.8757047,28.9421964 50.2466043,39.6745726 C63.1213544,43.2756521 81.2703534,55.7273367 101.043328,56.2220249 C119.218705,56.6767437 143.862012,39.3327861 167.484822,36.53331" id="Path-6" stroke="#4C250F" stroke-width="7.03942252" stroke-linecap="round"></path>
                                <path d="M43.7584481,0 C35.6945071,19.6809611 53.7734055,28.9421186 92.2299129,39.674466 C105.133387,43.2755358 123.322878,55.727187 143.139968,56.2218738 C161.355894,56.6765913 185.680514,39.6316674 209.356027,36.8321988" id="Path-6-Copy" stroke="#4C250F" stroke-width="7.03942252" stroke-linecap="round" transform="translate(125.613616, 28.115403) scale(-1, 1) translate(-125.613616, -28.115403) "></path>
                                <path d="M13.9570685,28.1154032 C55.1670562,56.2308063 85.7305778,70.2885079 105.647633,70.2885079 C125.564689,70.2885079 155.481797,57.3381317 195.398958,31.4373794 L163.55387,39.7938258 L117.825122,56.5210191 L97.9176438,56.5210191 L55.2239376,39.7938258 L13.9570685,28.1154032 Z" id="Path-9" fill="#664429"></path>
                            </g>
                        </g>
                        <g transform="translate(0.000000, 1612.070097)">
                            <g transform="translate(344.435168, 0.000000)" fill="#EEB881" id="Combined-Shape">
                                <path d="M644.751,0 L644.76985,0.00853764514 C931.306316,0.232166728 960.010075,5.06778762 1042.65731,12.3991504 C1127.29724,19.9072791 1182.41698,36.7562732 1210.17561,52.0345207 C1296.88073,99.7566952 1274.70743,231.170584 1225.96279,345.966055 C1177.21816,460.761526 1133.37936,460.761526 1133.37936,523.850637 L1133.37936,937.614026 C1133.37936,1014.33089 1142.7256,1174.04979 1161.41809,1416.77071 L1161.98736,1424.1513 C1166.39905,1481.25313 1127.20325,1532.55349 1070.94928,1543.30401 C875.100737,1580.73169 733.033538,1600.81564 644.747686,1603.55589 L644.751117,1603.878 L644.059707,1603.88061 C640.938644,1603.88061 637.735289,1603.85407 634.449642,1603.80099 C631.155663,1603.85407 627.952308,1603.88061 624.831245,1603.88061 L624.139834,1603.878 L624.143265,1603.55589 C535.857414,1600.81564 393.790214,1580.73169 197.941672,1543.30401 C141.687706,1532.55349 102.491902,1481.25313 106.903589,1424.1513 L107.472859,1416.77071 C126.165347,1174.04979 135.511591,1014.33089 135.511591,937.614026 L135.511591,523.850637 C135.511591,460.761526 91.6727963,460.761526 42.9281606,345.966055 C-5.81647502,231.170584 -27.9897762,99.7566952 58.7153433,52.0345207 C86.4739752,36.7562732 141.593713,19.9072791 226.233646,12.3991504 C308.880876,5.06778762 337.584636,0.232166728 624.121102,0.00853764514 L624.139,0 L632.69759,0.00189985887 C633.285595,0.00209059753 633.872549,0.00229993367 634.458456,0.00252785032 L636.193362,0.00189985887 L644.751,0 Z"></path>
                            </g>
                            <g id="Leg-R" transform="translate(1052.545858, 1012.154654)" fill="#EEB881">
                                <path d="M425.762858,79.5712427 C431.220193,131.699868 467.574567,410.141505 465.2512,487.375646 C460.137129,657.379279 445.902886,893.764803 422.548469,1196.53222 C423.030747,1190.27655 423.509739,1184.0446 423.98483,1177.84103 C423.324866,1140.2778 403.334878,1269.56587 286.757483,1269.56587 C207.663855,1269.56587 150.451404,1223.95236 115.12013,1132.72533 L115.998,1134.967 L115.819876,1135.76025 C115.101195,1138.93965 114.344225,1142.13671 113.568808,1145.40419 L113.84392,1144.24438 C114.51209,1141.42565 115.164628,1138.65514 115.788609,1135.89848 L115.998,1134.967 L116.098159,1134.52115 C120.396873,1115.25015 123.190683,1096.37692 120.045934,1066.11079 C115.05427,1018.06932 103.096375,930.338765 84.1722495,802.919118 L1.1854707,233.261098 C-6.91155716,177.679511 27.2328488,124.643204 81.1803791,109.005472 L324.150277,38.5759626 C341.699275,33.4886172 357.74501,24.2032171 370.899313,11.5220209 C399.808205,-16.3453669 418.096053,6.33770706 425.762858,79.5712427 Z" id="Combined-Shape"></path>
                                <path d="M291.786789,1012.25384 C408.501019,1012.25384 423.533644,1131.68665 423.991009,1177.77272 L423.991422,1177.75866 C411.743063,1337.6947 396.902781,1516.49624 379.470577,1714.16329 C374.85884,1766.44888 334.699794,1808.59521 282.697648,1815.72453 L259.793942,1818.86529 C200.592333,1826.98354 146.018803,1785.5723 137.900551,1726.37069 C137.69042,1724.83834 137.513172,1723.30165 137.368895,1721.7617 C113.36005,1465.44199 101.355627,1307.41631 101.355627,1247.68464 C101.355627,1183.56009 111.69475,1156.78206 117.519118,1127.84889 C156.221429,1050.78527 214.310725,1012.25384 291.786789,1012.25384 Z" id="Combined-Shape"></path>
                                <path d="M124.09428,1816.39184 C128.256739,1853.15183 144.060697,1928.03477 165.34293,1958.30315 C199.218903,2006.4828 262.10285,1997.76953 315.889458,2062.13284 C403.466952,2166.93175 464.918524,2180.46291 516.046516,2180.89269 C567.174507,2181.3168 622.195539,2133.31162 629.209867,2124.63027 C654.529663,2093.29299 655.080741,2086.52748 654.646265,2031.01279 C654.31796,1989.06407 600.08778,1950.47794 581.856727,1927.09232 C569.277064,1910.95594 562.822127,1912.20355 513.683775,1878.99333 C439.924521,1829.14303 386.903523,1761.18775 354.620781,1675.12748 C352.921774,1670.59822 346.420254,1570.2188 208.638795,1599.20432 C142.272459,1613.16601 113.804353,1671.39028 112.012877,1717.99671 C111.005896,1744.19398 122.53949,1802.661 124.09428,1816.39184 Z" id="Path-9-Copy-2" transform="translate(383.336974, 1887.425673) rotate(7.000000) translate(-383.336974, -1887.425673) "></path>
                            </g>
                            <g id="Leg-L" transform="translate(553.395902, 2118.042278) scale(-1, 1) translate(-553.395902, -2118.042278) translate(209.157475, 1012.154654)" fill="#EEB881">
                                <path d="M425.762858,79.5712427 C431.220193,131.699868 467.574567,410.141505 465.2512,487.375646 C460.137129,657.379279 445.902886,893.764803 422.548469,1196.53222 C423.030747,1190.27655 423.509739,1184.0446 423.98483,1177.84103 C423.324866,1140.2778 403.334878,1269.56587 286.757483,1269.56587 C207.663855,1269.56587 150.451404,1223.95236 115.12013,1132.72533 L115.998,1134.967 L115.819876,1135.76025 C115.101195,1138.93965 114.344225,1142.13671 113.568808,1145.40419 L113.84392,1144.24438 C114.51209,1141.42565 115.164628,1138.65514 115.788609,1135.89848 L115.998,1134.967 L116.098159,1134.52115 C120.396873,1115.25015 123.190683,1096.37692 120.045934,1066.11079 C115.05427,1018.06932 103.096375,930.338765 84.1722495,802.919118 L1.1854707,233.261098 C-6.91155716,177.679511 27.2328488,124.643204 81.1803791,109.005472 L324.150277,38.5759626 C341.699275,33.4886172 357.74501,24.2032171 370.899313,11.5220209 C399.808205,-16.3453669 418.096053,6.33770706 425.762858,79.5712427 Z" id="Combined-Shape"></path>
                                <path d="M291.786789,1012.25384 C408.501019,1012.25384 423.533644,1131.68665 423.991009,1177.77272 L423.991422,1177.75866 C411.743063,1337.6947 396.902781,1516.49624 379.470577,1714.16329 C374.85884,1766.44888 334.699794,1808.59521 282.697648,1815.72453 L259.793942,1818.86529 C200.592333,1826.98354 146.018803,1785.5723 137.900551,1726.37069 C137.69042,1724.83834 137.513172,1723.30165 137.368895,1721.7617 C113.36005,1465.44199 101.355627,1307.41631 101.355627,1247.68464 C101.355627,1183.56009 111.69475,1156.78206 117.519118,1127.84889 C156.221429,1050.78527 214.310725,1012.25384 291.786789,1012.25384 Z" id="Combined-Shape"></path>
                                <path d="M124.09428,1816.39184 C128.256739,1853.15183 144.060697,1928.03477 165.34293,1958.30315 C199.218903,2006.4828 262.10285,1997.76953 315.889458,2062.13284 C403.466952,2166.93175 464.918524,2180.46291 516.046516,2180.89269 C567.174507,2181.3168 622.195539,2133.31162 629.209867,2124.63027 C654.529663,2093.29299 655.080741,2086.52748 654.646265,2031.01279 C654.31796,1989.06407 600.08778,1950.47794 581.856727,1927.09232 C569.277064,1910.95594 562.822127,1912.20355 513.683775,1878.99333 C439.924521,1829.14303 386.903523,1761.18775 354.620781,1675.12748 C352.921774,1670.59822 346.420254,1570.2188 208.638795,1599.20432 C142.272459,1613.16601 113.804353,1671.39028 112.012877,1717.99671 C111.005896,1744.19398 122.53949,1802.661 124.09428,1816.39184 Z" id="Path-9-Copy-2" transform="translate(383.336974, 1887.425673) rotate(7.000000) translate(-383.336974, -1887.425673) "></path>
                            </g>
                            <g id="Sock_Green" transform="translate(263.914025, 2640.055492)">
                                <g id="Sock-L" transform="translate(252.811481, 283.858476) scale(-1, 1) translate(-252.811481, -283.858476) translate(0.000000, 0.000000)">
                                    <path d="M252.884852,52.4465973 C275.014351,138.644029 318.731724,210.201536 384.035423,267.12039 C428.714419,306.062705 435.266574,305.611155 445.775174,323.156356 C461.004741,348.583706 510.077952,393.481043 505.296444,435.147658 C498.968627,490.289003 497.598553,496.935417 468.678064,524.947061 C460.666239,532.707111 400.266849,573.639824 349.623525,566.989505 C298.980907,560.333439 239.697161,539.418812 165.620129,424.754028 C120.124967,354.331487 56.712838,355.315962 28.9893992,303.378759 C11.572432,270.749741 5.01892427,194.516218 5.36705035,157.531339 C5.49284322,144.167117 1.45617452,88.1212204 4.98394832,61.0559282 C3.25446749,42.3808531 1.59315143,24.264386 6.52589094e-13,6.70652438 C26.7752864,24.9109378 65.7414717,34.0119251 116.897418,34.0119251 C173.993572,34.0119251 220.846092,22.6746167 257.454978,2.20934382e-13 C255.95267,17.3279989 254.429302,34.8105145 252.884852,52.4465973 Z" id="Combined-Shape" fill="#DAECE5"></path>
                                    <path d="M252.884852,52.4465973 C253.940152,56.5571352 255.044544,60.6343805 256.19803,64.6783334 C225.287121,81.6581924 184.278098,90.0550912 133.222523,90.0550912 C84.8220736,90.0550912 41.8430211,82.5085058 4.33143886,67.3736277 C4.51227783,65.131784 4.72824162,63.0177253 4.98394832,61.0559282 C4.67367084,57.7055266 4.36558731,54.3731045 4.05969776,51.0586618 C41.0485367,67.0817133 84.0844433,75.1137935 133.222523,75.1137935 C184.400671,75.1137935 224.364083,66.4015088 253.171088,49.1950472 C253.074791,50.2773487 252.979861,51.3616824 252.884852,52.4465973 Z" id="Combined-Shape" fill="#9CCCB9" fill-rule="nonzero"></path>
                                </g>
                                <g id="Sock-R" transform="translate(918.708131, 0.000000)">
                                    <path d="M252.884852,52.4465973 C275.014351,138.644029 318.731724,210.201536 384.035423,267.12039 C428.714419,306.062705 435.266574,305.611155 445.775174,323.156356 C461.004741,348.583706 510.077952,393.481043 505.296444,435.147658 C498.968627,490.289003 497.598553,496.935417 468.678064,524.947061 C460.666239,532.707111 400.266849,573.639824 349.623525,566.989505 C298.980907,560.333439 239.697161,539.418812 165.620129,424.754028 C120.124967,354.331487 56.712838,355.315962 28.9893992,303.378759 C11.572432,270.749741 5.01892427,194.516218 5.36705035,157.531339 C5.49284322,144.167117 1.45617452,88.1212204 4.98394832,61.0559282 C3.25446749,42.3808531 1.59315143,24.264386 -4.53859172e-13,6.70652438 C26.7752864,24.9109378 65.7414717,34.0119251 116.897418,34.0119251 C173.993572,34.0119251 220.846092,22.6746167 257.454978,2.20934382e-13 C255.95267,17.3279989 254.429302,34.8105145 252.884852,52.4465973 Z" id="Combined-Shape" fill="#DAECE5"></path>
                                    <path d="M252.884852,52.4465973 C253.940152,56.5571352 255.044544,60.6343805 256.19803,64.6783334 C225.287121,81.6581924 184.278098,90.0550912 133.222523,90.0550912 C84.8220736,90.0550912 41.8430211,82.5085058 4.33143886,67.3736277 C4.51227783,65.131784 4.72824162,63.0177253 4.98394832,61.0559282 C4.67367084,57.7055266 4.36558731,54.3731045 4.05969776,51.0586618 C41.0485367,67.0817133 84.0844433,75.1137935 133.222523,75.1137935 C184.400671,75.1137935 224.364083,66.4015088 253.171088,49.1950472 C253.074791,50.2773487 252.979861,51.3616824 252.884852,52.4465973 Z" id="Combined-Shape" fill="#9CCCB9" fill-rule="nonzero"></path>
                                </g>
                            </g>
                            <g id="Arm_L" transform="translate(1328.112148, 11.511881)">
                                <path d="M159.414469,124.428465 C188.142517,53.8214642 199.351796,1.5140096 319.681712,29.1465713 C355.361868,37.340162 383.083768,71.1647544 402.847413,130.620349 L402.847413,130.620349 L397.838339,755.983254 C397.340742,818.106271 346.576704,868.063545 284.453687,867.565948 C279.797128,867.52865 275.147378,867.202232 270.53128,866.588578 L225.583314,860.613302 C169.021087,853.094052 127.048604,804.416631 127.932928,747.363651 L133.815712,367.829956 L133.815712,367.829956 C131.729518,252.63363 140.262436,171.4998 159.414469,124.428465 Z" id="Rectangle" fill="#EEB881" transform="translate(264.614687, 452.502295) rotate(-18.000000) translate(-264.614687, -452.502295) "></path>
                                <path d="M367.796819,637.045305 L413.785451,635.027367 C475.850741,632.304001 528.372323,680.410135 531.095689,742.475425 C531.196771,744.779073 531.226996,747.085284 531.18632,749.39079 L524.994085,1100.36997 C523.920124,1161.24264 473.702453,1209.71908 412.829779,1208.64512 C411.843861,1208.62772 410.85822,1208.5971 409.873124,1208.55326 L395.837501,1207.9286 C339.213223,1205.40854 293.308861,1161.15258 288.720661,1104.65826 L260.609781,758.530154 C255.58084,696.609022 301.701075,642.335264 363.622207,637.306324 C365.012006,637.193451 366.403784,637.10643 367.796819,637.045305 Z" id="Rectangle-Copy-3" fill="#EEB881" transform="translate(392.227769, 921.685573) rotate(-12.000000) translate(-392.227769, -921.685573) "></path>
                                <path d="M312.301554,1148.09836 C298.165109,1221.21402 291.096886,1269.23423 291.096886,1292.15899 C291.096886,1326.54614 291.096886,1371.93032 301.69922,1439.98431 C312.301554,1508.03831 312.301554,1541.69329 312.301554,1541.69329 C312.301554,1541.69329 371.420984,1532.96666 371.420984,1486.47549 C371.420984,1439.98431 369.095149,1326.91572 389.97657,1309.53736 C410.85799,1292.15899 445.565736,1393.49314 445.565736,1439.98431 C445.565736,1486.47549 354.503877,1617.35388 389.97657,1643.27934 C425.449263,1669.20479 503.608783,1561.95148 542.218835,1541.69329 C580.828886,1521.4351 643.696544,1397.89779 621.123034,1292.15899 C606.074028,1221.66647 585.755563,1157.67743 560.167639,1100.19188 C535.872836,1044.27409 491.768207,1020.9058 427.853749,1030.087 C363.939292,1039.26821 325.421894,1078.60532 312.301554,1148.09836 Z" id="Path-7" fill="#EEB881"></path>
                                <g id="HospitalBracelet" transform="translate(301.887852, 1070.418022)" fill="#F1F1F1">
                                    <path d="M266.763969,0 L292,86.0484993 C238.497804,98.1838322 193.976878,103.803534 158.437221,102.907604 C149.230945,102.67552 138.791938,102.034043 127.1202,100.983173 C121.149699,100.445616 113.652624,83.0807102 104.628974,81.9168893 C88.218984,79.8004189 53.3426594,73.8402278 0,64.0363163 L4.31450889,12.7580154 C50.4430839,21.5387744 83.8812389,26.4922455 104.628974,27.6184286 C109.797252,27.8989618 121.612441,12.6069684 126.528419,12.7580154 C132.262964,12.9342136 137.825851,13.0223126 143.21708,13.0223126 C181.060079,13.0223126 222.242376,8.68154175 266.763969,0 Z M70.5600363,38.4485845 C64.1531327,38.4485845 58.9593111,43.6589954 58.9593111,50.086363 C58.9593111,56.5137306 64.1531327,61.7241415 70.5600363,61.7241415 C76.9669399,61.7241415 82.1607615,56.5137306 82.1607615,50.086363 C82.1607615,43.6589954 76.9669399,38.4485845 70.5600363,38.4485845 Z M33,34 C26.9248678,34 22,38.9248678 22,45 C22,51.0751322 26.9248678,56 33,56 C39.0751322,56 44,51.0751322 44,45 C44,38.9248678 39.0751322,34 33,34 Z" id="Combined-Shape"></path>
                                </g>
                            </g>
                            <g id="Arm_L-Copy" transform="translate(312.968160, 835.165137) scale(-1, 1) translate(-312.968160, -835.165137) translate(0.000000, 11.521536)" fill="#EEB881">
                                <path d="M159.462937,124.418811 C188.190985,53.8118093 199.400265,1.50435473 319.730181,29.1369164 C355.410336,37.3305071 383.132236,71.1550996 402.895881,130.610694 L402.895881,130.610694 L397.886807,755.973599 C397.38921,818.096616 346.625172,868.05389 284.502155,867.556293 C279.845596,867.518995 275.195847,867.192577 270.579749,866.578924 L225.631782,860.603647 C169.069555,853.084397 127.097073,804.406976 127.981396,747.353996 L133.864181,367.820301 L133.864181,367.820301 C131.777986,252.623975 140.310905,171.490145 159.462937,124.418811 Z" id="Rectangle" transform="translate(264.663156, 452.492640) rotate(-18.000000) translate(-264.663156, -452.492640) "></path>
                                <path d="M367.845287,637.03565 L413.83392,635.017712 C475.899209,632.294346 528.420792,680.40048 531.144158,742.46577 C531.245239,744.769418 531.275464,747.07563 531.234789,749.381136 L525.042553,1100.36031 C523.968592,1161.23299 473.750922,1209.70942 412.878247,1208.63546 C411.892329,1208.61807 410.906689,1208.58745 409.921592,1208.5436 L395.885969,1207.91895 C339.261691,1205.39889 293.357329,1161.14292 288.769129,1104.64861 L260.658249,758.520499 C255.629309,696.599367 301.749543,642.325609 363.670676,637.296669 C365.060475,637.183796 366.452253,637.096775 367.845287,637.03565 Z" id="Rectangle-Copy-3" transform="translate(392.276237, 921.675918) rotate(-12.000000) translate(-392.276237, -921.675918) "></path>
                                <path d="M312.350023,1148.08871 C298.213577,1221.20436 291.145355,1269.22457 291.145355,1292.14934 C291.145355,1326.53649 291.145355,1371.92066 301.747689,1439.97466 C312.350023,1508.02865 312.350023,1541.68364 312.350023,1541.68364 C312.350023,1541.68364 371.469453,1532.95701 371.469453,1486.46583 C371.469453,1439.97466 369.143617,1326.90607 390.025038,1309.5277 C410.906459,1292.14934 445.614205,1393.48348 445.614205,1439.97466 C445.614205,1486.46583 354.552345,1617.34423 390.025038,1643.26968 C425.497731,1669.19513 503.657251,1561.94183 542.267303,1541.68364 C580.877355,1521.42544 643.745012,1397.88813 621.171503,1292.14934 C606.122497,1221.65681 585.804031,1157.66777 560.216107,1100.18222 C535.921305,1044.26444 491.816675,1020.89615 427.902218,1030.07735 C363.987761,1039.25855 325.470362,1078.59567 312.350023,1148.08871 Z" id="Path-7"></path>
                            </g>
                        </g>
                    </g>
                    <g id="Gown_Green" transform="translate(285.099421, 1612.936972)">
                        <mask id="mask-6" fill="white">
                            <use xlink:href="#path-5"></use>
                        </mask>
                        <use id="Path-5" stroke="#000000" stroke-width="5.62270912" fill="#AFE5D0" xlink:href="#path-5"></use>
                        <path d="M159.603333,2253.68122 L178.668333,2281.07422 L157.554333,2281.07507 L159.603333,2253.68122 Z M378.764534,494.333224 L377.945161,741.572998 L510.631415,899.932794 L510.631415,1153.727 L547.662077,1658.30439 L819.80234,2111.94808 L935.848333,2278.32022 L810.993618,2277.91729 L752.13746,2273.32645 L684.831749,2266.6074 L372.825695,2231.47159 C372.638628,2064.77131 372.541354,1922.97657 372.533871,1806.08737 L372.533871,1777.38393 C372.541354,1664.64565 372.638628,1576.81292 372.825695,1513.88572 C373.178837,1395.09206 374.606694,1287.66889 375.147915,1201.08043 C375.609234,1127.27524 376.343947,1062.1269 377.125788,1007.96551 C378.228335,931.58756 379.787449,860.664246 381.803131,795.19557 L326.508872,795.19557 L273.142333,785.191224 L378.764534,494.333224 Z" id="Combined-Shape" fill="#9CCCB9" opacity="0.67670913" mask="url(#mask-6)"></path>
                        <path d="M1426.97533,803.139974 C1427.2902,728.829109 1427.2902,669.171209 1426.97533,624.166276 C1426.66045,579.161342 1425.77063,511.637548 1424.30587,421.594896 L1596.93427,768.14076 L1522.24698,795.658127 L1426.97533,803.139974 Z" id="Path-64" fill="#9CCCB9" mask="url(#mask-6)"></path>
                        <g id="Group-5" mask="url(#mask-6)" stroke="#000000">
                            <g transform="translate(377.125788, 5.629305)">
                                <path d="M857.309133,0 C645.495379,291.070576 481.407671,506.206708 365.046008,645.408396 C248.684346,784.610084 127.002343,918.569988 0,1047.28811 L0.819372797,967.195097 C127.366896,827.665231 221.225699,720.402998 282.395781,645.408396 C343.565862,570.413794 430.623634,455.872068 543.569094,301.783216" id="Path-62" stroke-width="4.21703184"></path>
                                <line x1="508.37801" y1="352.144585" x2="198.201676" y2="3.12767221e-13" id="Path-63" stroke-width="5.62270912"></line>
                            </g>
                        </g>
                        <g id="Group-16" mask="url(#mask-6)" stroke="#000000" stroke-width="5.62270912">
                            <g transform="translate(357.684698, 626.507476)">
                                <line x1="1066.62117" y1="178.554831" x2="1066.62117" y2="0" id="Path-60"></line>
                                <line x1="21.0798358" y1="175.122793" x2="19.4410902" y2="55.0082502" id="Path-61" stroke-linecap="round"></line>
                            </g>
                        </g>
                        <g id="Teammates_logo_3" mask="url(#mask-6)">
                            <g transform="translate(1000.087885, 417.734566)" id="VCU_Richomond">
                                <g id="CMRRoT" fill-rule="nonzero">
                                    <path d="M156.715343,313.184837 C181.056357,310.826166 177.782167,307.154243 180.547996,288.958782 C183.227661,289.53765 185.933176,289.99556 188.578376,290.712665 C222.698877,299.948633 256.776296,309.357397 290.948494,318.394649 C301.408668,321.159391 308.27585,313.685947 305.30323,303.300883 C293.283508,261.337277 281.169007,219.40823 269.080355,177.461904 C267.064144,170.45501 263.42807,165.262478 255.294294,165.115601 C268.44275,118.676568 281.246554,72.1338576 294.980917,25.8676212 C298.203409,15.0246471 297.462408,6.87729676 288.363608,-3.06948069e-15" id="Path" fill="#FAFBFB"></path>
                                    <path d="M99.8736905,47.8732429 C100.226958,43.3114179 100.657773,38.7582328 100.907645,34.1964078 C101.381541,25.781223 106.25836,21.3230759 114.116415,20.4158948 C158.274891,15.3011213 202.4506,10.3764239 246.626309,5.40852735 C254.062165,4.57046481 278.463493,0.941740386 285.192814,0.941740386 C299.943899,1.20093499 298.203409,15.0419267 294.989533,25.8849009 C281.25517,72.1511373 268.44275,118.693848 255.302911,165.132881 C250.348545,165.063762 245.385563,164.986004 240.431198,164.916885 C239.802208,162.255821 239.104289,159.612036 238.54423,156.933691 C232.400817,127.376867 221.147945,100.291031 198.685282,79.3308278 C181.88352,63.6495543 162.333163,55.0529334 138.664219,60.6515368 C137.518253,56.9191345 134.063122,57.3338459 131.271444,56.4353046 C120.940515,53.0916942 109.773806,52.8324996 99.8736905,47.8818827 L99.8736905,47.8732429 Z" id="Path" fill="#E64895"></path>
                                    <path d="M180.547996,288.967422 C173.603267,286.988903 166.718853,284.751189 159.696578,283.100984 C151.295698,281.131105 146.573972,277.06175 146.754914,267.532028 C146.935856,257.907268 145.677878,248.24795 145.048889,238.60591 C145.62618,237.214899 148.986532,228.013491 152.605373,228.203567 C155.586609,228.359084 167.847587,251.073171 171.078695,260.170901 C174.723385,270.409088 181.44409,271.411307 190.37918,270.469567 C195.212918,269.959817 197.237746,268.456489 195.238767,263.557711 C194.316824,261.302718 193.472428,259.013165 192.65388,256.714973 C184.752744,234.674792 174.663071,213.248039 174.464896,189.082462 C174.413198,182.481639 176.369096,178.904754 183.477533,178.170369 C199.521062,176.520164 215.521509,174.368848 231.521956,172.312571 C235.924879,171.742343 241.137733,171.828741 240.413965,164.925525 C245.368331,164.994644 250.331312,165.072402 255.285678,165.141521 C263.42807,165.288397 267.055528,170.480929 269.071739,177.487823 C281.151775,219.43415 293.266276,261.363197 305.294614,303.326803 C308.267233,313.711866 301.400052,321.185311 290.939878,318.420568 C256.76768,309.383316 222.69026,299.974552 188.56976,290.738585 C185.924559,290.02148 183.219045,289.563569 180.539379,288.984701 L180.547996,288.967422 Z" id="Path" fill="#FBBA17"></path>
                                    <path d="M126.325695,213.775068 C111.4109,209.895788 96.4874893,206.016509 81.5726947,202.13723 C72.396348,197.82596 62.4014538,196.175754 52.7684438,193.385092 C45.9701925,191.415213 42.0325489,187.492735 39.9991049,180.53768 C27.1522194,136.517797 13.977915,92.5929515 0.993168894,48.6076276 C-3.07371907,34.8184748 5.72351103,26.2996122 20.5435265,29.7641801 C44.0315277,35.2591056 67.4592149,40.9873063 90.912751,46.6031894 C93.8595215,47.3116546 96.7201291,48.6162675 99.8736905,47.8646031 C109.765189,52.8065802 120.931899,53.0744146 131.271444,56.4093851 C134.063122,57.3079264 137.518253,56.8932151 138.664219,60.6256173 C129.530954,63.3558005 120.949131,67.2437195 113.427112,73.1533564 C83.5199758,96.6623068 70.6213926,129.208509 64.5813747,165.426635 C63.6594319,170.93884 67.1059471,171.362191 70.9229627,171.846021 C87.8453524,173.962777 104.75051,176.269609 121.707364,178.14445 C127.781848,178.818356 130.358118,181.574458 130.151327,187.605053 C129.84114,196.478148 129.177686,205.273485 126.334311,213.757788 L126.325695,213.775068 Z" id="Path" fill="#2C7CBE"></path>
                                    <path d="M126.325695,213.775068 C129.16907,205.290764 129.832524,196.495428 130.14271,187.622332 C130.358118,181.591738 127.773231,178.835635 121.698748,178.161729 C104.75051,176.286888 87.8453524,173.980056 70.9143464,171.863301 C67.0973308,171.38811 63.6508156,170.956119 64.5727584,165.443914 C70.60416,129.225789 83.5113595,96.6795864 113.418495,73.1706361 C120.940515,67.2523593 129.530954,63.3730801 138.655603,60.642897 C162.324546,55.0442936 181.874904,63.6409145 198.676666,79.3221879 C221.139329,100.291031 232.392201,127.376867 238.535614,156.925052 C239.095673,159.603396 239.793592,162.247181 240.422581,164.908245 C241.146349,171.811462 235.933495,171.725063 231.530572,172.295292 C215.530125,174.351569 199.529678,176.502884 183.48615,178.15309 C176.377712,178.887474 174.413198,182.46436 174.473512,189.065182 C174.671687,213.230759 184.752744,234.657513 192.662497,256.697694 C193.48966,258.995886 194.334056,261.285438 195.247383,263.540431 C197.246362,268.439209 195.212918,269.942538 190.387797,270.452287 C181.452706,271.402667 174.732001,270.391808 171.087311,260.153622 C167.847587,251.055891 162.298697,242.770304 157.60282,234.216882 C156.336226,231.91005 155.586609,228.341804 152.61399,228.186287 C148.995149,227.996211 148.426474,232.022368 146.83246,234.441517 C146.013913,235.677011 145.634796,237.19762 145.048889,238.588631 C138.862394,246.589104 135.510658,256.127466 130.771699,264.914163 C128.160964,269.761102 113.875159,272.897356 109.90305,269.467348 C107.016593,266.97044 109.265445,264.352574 110.101224,261.993903 C114.495531,249.699439 119.182792,237.517293 123.542634,225.20555 C124.843693,221.524986 125.412368,217.576588 126.317079,213.757788 L126.325695,213.775068 Z M165.081759,70.4058936 C155.181644,63.9951472 144.971342,66.8722072 135.260786,70.2676565 C107.490489,79.9788143 76.6786431,123.437109 75.8342469,152.864336 C75.68777,157.935911 78.3329704,158.186465 82.0724394,158.177826 C98.8569686,158.177826 115.650114,158.298783 132.434643,158.316063 C136.010403,158.316063 140.353012,159.171405 141.654071,154.479983 C142.98098,149.684882 138.56944,148.501227 135.605437,146.591827 C125.713938,140.19836 119.966874,131.299345 119.561909,119.367754 C118.760594,95.9365619 138.543591,81.9314136 164.564781,87.4263391 C191.120181,103.047134 192.447089,130.668639 167.451238,147.507648 C165.004212,149.157853 161.445685,150.341509 162.755361,154.281267 C164.05642,158.195105 167.675261,158.307423 171.139009,158.298783 C187.303165,158.255584 203.475938,157.849512 219.631478,158.341982 C227.463684,158.583897 229.238639,155.55996 227.696324,148.648104 C221.966492,122.91872 210.394817,100.403349 190.534273,82.8213151 C183.374138,76.4796871 175.585014,70.388614 165.098991,70.4145335 L165.081759,70.4058936 Z" id="Shape" fill="#FAFBFB"></path>
                                    <path d="M164.556165,87.4263391 C138.534975,81.9314136 118.751978,95.9365619 119.553292,119.367754 C119.958258,131.299345 125.705322,140.19836 135.596821,146.591827 C138.560824,148.509867 142.972363,149.693522 141.645455,154.479983 C140.344396,159.171405 136.001786,158.316063 132.426027,158.316063 C115.641498,158.298783 98.8483523,158.169186 82.0638232,158.177826 C78.3243541,158.177826 75.6791537,157.935911 75.8256306,152.864336 C76.6614105,123.437109 107.473257,79.9874541 135.252169,70.2676565 C144.962726,66.8722072 152.91556,66.4834153 165.142073,69.5764709 C164.969747,75.2528327 164.719874,81.7499774 164.547549,87.4263391 L164.556165,87.4263391 Z" id="Path" fill="#2C7CBE"></path>
                                    <path d="M164.556165,87.4263391 C164.728491,81.7586172 164.883584,75.3046716 165.05591,69.6283098 C173.706663,71.5204304 182.150625,76.2204925 190.517041,82.8126752 C211.342609,99.2369732 221.94926,122.91008 227.679091,148.639464 C229.221407,155.55132 227.446451,158.575257 219.614246,158.333342 C203.467322,157.840873 187.285933,158.246944 171.121776,158.290143 C167.666645,158.298783 164.047804,158.186465 162.738128,154.272627 C161.428452,150.332869 164.986979,149.149214 167.434005,147.499008 C192.429857,130.659999 191.111565,103.038494 164.547549,87.4176993 L164.556165,87.4263391 Z" id="Path" fill="#E64895"></path>
                                </g>
                                <path d="M159.245758,282.707177 C150.880571,280.743541 146.178907,276.687081 146.35908,267.18756 C146.539254,257.593301 145.286621,247.964593 144.660304,238.35311 C138.500095,246.32823 135.1626,255.836364 130.443777,264.595215 C127.844134,269.426794 113.619027,272.55311 109.663795,269.133971 C106.789603,266.644976 109.028899,264.035407 109.861128,261.684211 C114.236764,249.428708 118.904109,237.285167 123.245427,225.01244 C124.540958,221.343541 125.107217,217.407656 126.008083,213.600957 C111.156659,209.733971 96.2966563,205.866986 81.4452327,202 C62.115217,235.45933 43.0769103,269.099522 23.2578529,302.274641 C18.5390297,310.180861 15.5361423,316.683254 20.7182681,324.01244 C21.9108434,325.519617 24.4590079,327.870813 28.8174846,328 C49.2199602,327.285167 126.153938,315.615311 156.268609,312.695694 C180.506201,310.344498 177.245923,306.684211 180,288.546411 C173.084779,286.574163 166.229616,284.343541 159.237178,282.698565 L159.245758,282.707177 Z" id="Path" fill="#9ACA40" fill-rule="nonzero"></path>
                            </g>
                        </g>
                    </g>
                </g>
                <g id="HospitalBracelet" transform="translate(2183.000000, 2694.000000)" fill="#F1F1F1">
                    <path d="M266.763969,0 L292,86.0484993 C238.497804,98.1838322 193.976878,103.803534 158.437221,102.907604 C149.230945,102.67552 138.791938,102.034043 127.1202,100.983173 C121.149699,100.445616 113.652624,83.0807102 104.628974,81.9168893 C88.218984,79.8004189 53.3426594,73.8402278 0,64.0363163 L4.31450889,12.7580154 C50.4430839,21.5387744 83.8812389,26.4922455 104.628974,27.6184286 C109.797252,27.8989618 121.612441,12.6069684 126.528419,12.7580154 C132.262964,12.9342136 137.825851,13.0223126 143.21708,13.0223126 C181.060079,13.0223126 222.242376,8.68154175 266.763969,0 Z M70.5600363,38.4485845 C64.1531327,38.4485845 58.9593111,43.6589954 58.9593111,50.086363 C58.9593111,56.5137306 64.1531327,61.7241415 70.5600363,61.7241415 C76.9669399,61.7241415 82.1607615,56.5137306 82.1607615,50.086363 C82.1607615,43.6589954 76.9669399,38.4485845 70.5600363,38.4485845 Z M33,34 C26.9248678,34 22,38.9248678 22,45 C22,51.0751322 26.9248678,56 33,56 C39.0751322,56 44,51.0751322 44,45 C44,38.9248678 39.0751322,34 33,34 Z" id="Combined-Shape"></path>
                </g>
                <g id="Group-6" transform="translate(0.000000, 2282.002255)" stroke="#000000" stroke-width="5">
                    <path d="M1523.39958,186.000584 C1630.34299,186.000584 1725.5086,196.736245 1789.08034,219.883474 C1831.4615,235.31496 1925.2762,276.050713 2070.52443,342.090733 L2174.139,342.090584 L2198.49417,424.75935 L2198.50765,425.457612 C2194.60607,424.633856 2190.60404,423.774697 2186.50157,422.880136 L2182.37486,477.849323 C2187.24432,478.637603 2191.95948,479.398639 2196.52035,480.132431 C2195.24994,483.215638 2194.06722,486.367162 2192.97178,489.587088 C2178.84256,562.72296 2171.77795,610.756447 2171.77795,633.687549 L2171.77824,636.813263 C2171.78749,670.828414 2172.09586,715.523112 2182.37486,781.553738 C2192.55108,846.924057 2192.95507,880.56366 2192.97111,883.131615 L2192.97178,883.290835 C2192.97178,883.290835 2252.06097,874.561796 2252.06097,828.057767 C2252.06097,781.553738 2249.73632,668.453887 2270.60706,651.070718 C2291.4778,633.687549 2326.1678,735.049708 2326.1678,781.553738 C2326.1678,828.057767 2235.15251,958.972345 2270.60706,984.904964 C2306.06161,1010.83758 2384.18116,903.554628 2422.77146,883.290835 C2461.36177,863.027042 2524.19727,739.455574 2501.63531,633.687549 C2491.64322,586.845729 2479.32687,542.874742 2464.68625,501.774585 C2468.06567,501.12162 2471.48308,500.443361 2474.93839,499.740862 L2448.61274,410.321238 C2445.52891,411.001472 2442.46098,411.658102 2439.40895,412.291128 L2425.3,342.090584 L3017,342.090733 L3017,2554.9946 L0,2538.84029 L0,342.090733 L637.781,342.090584 L613.702331,461.894729 C592.165626,514.072434 574.747072,571.336708 561.446668,633.687549 C538.884704,739.455574 601.720208,863.027042 640.310512,883.290835 C678.900816,903.554628 757.020361,1010.83758 792.474911,984.904964 C827.929461,958.972345 736.914176,828.057767 736.914176,781.553738 C736.914176,735.049708 771.60417,633.687549 792.474911,651.070718 C813.345651,668.453887 811.021006,781.553738 811.021006,828.057767 C811.021006,874.561796 870.110198,883.290835 870.110198,883.290835 L870.110485,883.199922 C870.119736,881.24001 870.428106,847.584363 880.70711,781.553738 C890.986114,715.523112 891.294484,670.828414 891.303735,636.813263 L891.304021,633.687549 C891.304021,610.756447 884.239414,562.72296 870.110198,489.587088 C866.161985,477.981797 861.079996,467.265067 854.864232,457.436899 L888.87,342.090584 L950.321505,342.090733 C1151.40275,260.399791 1261.8341,216.949961 1281.61556,211.741244 C1311.28776,203.928168 1416.45617,186.000584 1523.39958,186.000584 Z" id="Combined-Shape" fill="#DBEEFD"></path>
                    <path d="M1787.78199,46.5655079 C1858.63783,80.67783 1989.82243,157.308752 2048.65349,157.308752 L2116.52045,157.308752 L2174.255,343.001 L2064.65182,343.001077 C1946.50659,283.487977 1844.96195,240.026279 1760.0179,212.615983 C1632.60183,171.500539 1376.59567,187.420955 1279.72631,212.615983 C1182.85695,237.81101 980.434474,343.001077 941.112803,343.001077 L888.036,343.001 L945.403041,155.88353 C998.527422,138.172038 1101.10722,101.732697 1253.14243,46.5655079 C1487.49638,-38.4716924 1716.92614,12.4531857 1787.78199,46.5655079 Z M673.37,157.308 L636.246,343.001 L0,343.001077 L0,157.308752 L673.37,157.308 Z M2391.241,157.308 L3017,157.308752 L3017,343.001077 L2425.373,343.001 L2391.241,157.308 Z" id="Combined-Shape" fill="#92ADC1"></path>
                </g>
            </g>
        </g>
    </g>
</svg>
